<mxfile host="app.diagrams.net" modified="2021-06-02T05:56:04.978Z" agent="5.0 (Windows NT 10.0; Win64; x64) AppleWebKit/537.36 (KHTML, like Gecko) Chrome/91.0.4472.77 Safari/537.36" etag="3zs_qaHTtIWc1s2Co3qh" version="14.7.3" type="github">
  <diagram id="C5RBs43oDa-KdzZeNtuy" name="Page-1">
    <mxGraphModel dx="976" dy="587" grid="1" gridSize="10" guides="1" tooltips="1" connect="1" arrows="1" fold="1" page="1" pageScale="1" pageWidth="827" pageHeight="1169" math="0" shadow="0">
      <root>
        <mxCell id="WIyWlLk6GJQsqaUBKTNV-0" />
        <mxCell id="WIyWlLk6GJQsqaUBKTNV-1" parent="WIyWlLk6GJQsqaUBKTNV-0" />
        <mxCell id="WIyWlLk6GJQsqaUBKTNV-2" value="" style="rounded=0;html=1;jettySize=auto;orthogonalLoop=1;fontSize=11;endArrow=block;endFill=0;endSize=8;strokeWidth=1;shadow=0;labelBackgroundColor=none;edgeStyle=orthogonalEdgeStyle;" parent="WIyWlLk6GJQsqaUBKTNV-1" source="WIyWlLk6GJQsqaUBKTNV-3" target="WIyWlLk6GJQsqaUBKTNV-6" edge="1">
          <mxGeometry relative="1" as="geometry" />
        </mxCell>
        <mxCell id="WIyWlLk6GJQsqaUBKTNV-3" value="Lamp doesn&#39;t work" style="rounded=1;whiteSpace=wrap;html=1;fontSize=12;glass=0;strokeWidth=1;shadow=0;" parent="WIyWlLk6GJQsqaUBKTNV-1" vertex="1">
          <mxGeometry x="160" y="80" width="120" height="40" as="geometry" />
        </mxCell>
        <mxCell id="WIyWlLk6GJQsqaUBKTNV-4" value="Yes" style="rounded=0;html=1;jettySize=auto;orthogonalLoop=1;fontSize=11;endArrow=block;endFill=0;endSize=8;strokeWidth=1;shadow=0;labelBackgroundColor=none;edgeStyle=orthogonalEdgeStyle;" parent="WIyWlLk6GJQsqaUBKTNV-1" source="WIyWlLk6GJQsqaUBKTNV-6" target="WIyWlLk6GJQsqaUBKTNV-10" edge="1">
          <mxGeometry y="20" relative="1" as="geometry">
            <mxPoint as="offset" />
          </mxGeometry>
        </mxCell>
        <mxCell id="WIyWlLk6GJQsqaUBKTNV-5" value="No" style="edgeStyle=orthogonalEdgeStyle;rounded=0;html=1;jettySize=auto;orthogonalLoop=1;fontSize=11;endArrow=block;endFill=0;endSize=8;strokeWidth=1;shadow=0;labelBackgroundColor=none;" parent="WIyWlLk6GJQsqaUBKTNV-1" source="WIyWlLk6GJQsqaUBKTNV-6" target="WIyWlLk6GJQsqaUBKTNV-7" edge="1">
          <mxGeometry y="10" relative="1" as="geometry">
            <mxPoint as="offset" />
          </mxGeometry>
        </mxCell>
        <mxCell id="WIyWlLk6GJQsqaUBKTNV-6" value="Lamp&lt;br&gt;plugged in?" style="rhombus;whiteSpace=wrap;html=1;shadow=0;fontFamily=Helvetica;fontSize=12;align=center;strokeWidth=1;spacing=6;spacingTop=-4;" parent="WIyWlLk6GJQsqaUBKTNV-1" vertex="1">
          <mxGeometry x="170" y="170" width="100" height="80" as="geometry" />
        </mxCell>
        <mxCell id="WIyWlLk6GJQsqaUBKTNV-7" value="Plug in lamp" style="rounded=1;whiteSpace=wrap;html=1;fontSize=12;glass=0;strokeWidth=1;shadow=0;" parent="WIyWlLk6GJQsqaUBKTNV-1" vertex="1">
          <mxGeometry x="320" y="190" width="120" height="40" as="geometry" />
        </mxCell>
        <mxCell id="WIyWlLk6GJQsqaUBKTNV-8" value="No" style="rounded=0;html=1;jettySize=auto;orthogonalLoop=1;fontSize=11;endArrow=block;endFill=0;endSize=8;strokeWidth=1;shadow=0;labelBackgroundColor=none;edgeStyle=orthogonalEdgeStyle;" parent="WIyWlLk6GJQsqaUBKTNV-1" source="WIyWlLk6GJQsqaUBKTNV-10" target="WIyWlLk6GJQsqaUBKTNV-11" edge="1">
          <mxGeometry x="0.3333" y="20" relative="1" as="geometry">
            <mxPoint as="offset" />
          </mxGeometry>
        </mxCell>
        <mxCell id="WIyWlLk6GJQsqaUBKTNV-9" value="Yes" style="edgeStyle=orthogonalEdgeStyle;rounded=0;html=1;jettySize=auto;orthogonalLoop=1;fontSize=11;endArrow=block;endFill=0;endSize=8;strokeWidth=1;shadow=0;labelBackgroundColor=none;" parent="WIyWlLk6GJQsqaUBKTNV-1" source="WIyWlLk6GJQsqaUBKTNV-10" target="WIyWlLk6GJQsqaUBKTNV-12" edge="1">
          <mxGeometry y="10" relative="1" as="geometry">
            <mxPoint as="offset" />
          </mxGeometry>
        </mxCell>
        <mxCell id="WIyWlLk6GJQsqaUBKTNV-10" value="Bulb&lt;br&gt;burned out?" style="rhombus;whiteSpace=wrap;html=1;shadow=0;fontFamily=Helvetica;fontSize=12;align=center;strokeWidth=1;spacing=6;spacingTop=-4;fillColor=#dae8fc;strokeColor=#6c8ebf;" parent="WIyWlLk6GJQsqaUBKTNV-1" vertex="1">
          <mxGeometry x="170" y="290" width="100" height="80" as="geometry" />
        </mxCell>
        <mxCell id="WIyWlLk6GJQsqaUBKTNV-11" value="Repair Lamp" style="rounded=1;whiteSpace=wrap;html=1;fontSize=12;glass=0;strokeWidth=1;shadow=0;" parent="WIyWlLk6GJQsqaUBKTNV-1" vertex="1">
          <mxGeometry x="160" y="430" width="120" height="40" as="geometry" />
        </mxCell>
        <mxCell id="e0OOAfn7zYN69eVYryci-8" style="rounded=0;orthogonalLoop=1;jettySize=auto;html=1;exitX=1;exitY=0.5;exitDx=0;exitDy=0;entryX=0;entryY=0.5;entryDx=0;entryDy=0;sketch=0;shadow=0;" edge="1" parent="WIyWlLk6GJQsqaUBKTNV-1" source="WIyWlLk6GJQsqaUBKTNV-12" target="e0OOAfn7zYN69eVYryci-2">
          <mxGeometry relative="1" as="geometry" />
        </mxCell>
        <mxCell id="e0OOAfn7zYN69eVYryci-10" style="edgeStyle=none;rounded=0;sketch=0;orthogonalLoop=1;jettySize=auto;html=1;shadow=0;" edge="1" parent="WIyWlLk6GJQsqaUBKTNV-1" source="WIyWlLk6GJQsqaUBKTNV-12" target="e0OOAfn7zYN69eVYryci-9">
          <mxGeometry relative="1" as="geometry" />
        </mxCell>
        <mxCell id="WIyWlLk6GJQsqaUBKTNV-12" value="Replace Bulb" style="rounded=1;whiteSpace=wrap;html=1;fontSize=12;glass=0;strokeWidth=1;shadow=0;gradientColor=#97d077;fillColor=#d5e8d4;strokeColor=#82b366;" parent="WIyWlLk6GJQsqaUBKTNV-1" vertex="1">
          <mxGeometry x="320" y="310" width="130" height="40" as="geometry" />
        </mxCell>
        <mxCell id="e0OOAfn7zYN69eVYryci-0" value="DB" style="shape=cylinder3;whiteSpace=wrap;html=1;boundedLbl=1;backgroundOutline=1;size=15;gradientColor=#ea6b66;fillColor=#f8cecc;strokeColor=#b85450;" vertex="1" parent="WIyWlLk6GJQsqaUBKTNV-1">
          <mxGeometry x="190" y="490" width="60" height="60" as="geometry" />
        </mxCell>
        <mxCell id="e0OOAfn7zYN69eVYryci-1" value="List" style="swimlane;fontStyle=0;childLayout=stackLayout;horizontal=1;startSize=26;horizontalStack=0;resizeParent=1;resizeParentMax=0;resizeLast=0;collapsible=1;marginBottom=0;gradientColor=#d5739d;fillColor=#e6d0de;strokeColor=#996185;" vertex="1" parent="WIyWlLk6GJQsqaUBKTNV-1">
          <mxGeometry x="590" y="290" width="140" height="104" as="geometry" />
        </mxCell>
        <mxCell id="e0OOAfn7zYN69eVYryci-2" value="Item 1" style="text;strokeColor=none;fillColor=none;align=left;verticalAlign=top;spacingLeft=4;spacingRight=4;overflow=hidden;rotatable=0;points=[[0,0.5],[1,0.5]];portConstraint=eastwest;" vertex="1" parent="e0OOAfn7zYN69eVYryci-1">
          <mxGeometry y="26" width="140" height="26" as="geometry" />
        </mxCell>
        <mxCell id="e0OOAfn7zYN69eVYryci-3" value="Item 2" style="text;strokeColor=none;fillColor=none;align=left;verticalAlign=top;spacingLeft=4;spacingRight=4;overflow=hidden;rotatable=0;points=[[0,0.5],[1,0.5]];portConstraint=eastwest;" vertex="1" parent="e0OOAfn7zYN69eVYryci-1">
          <mxGeometry y="52" width="140" height="26" as="geometry" />
        </mxCell>
        <mxCell id="e0OOAfn7zYN69eVYryci-4" value="Item 3" style="text;strokeColor=none;fillColor=none;align=left;verticalAlign=top;spacingLeft=4;spacingRight=4;overflow=hidden;rotatable=0;points=[[0,0.5],[1,0.5]];portConstraint=eastwest;" vertex="1" parent="e0OOAfn7zYN69eVYryci-1">
          <mxGeometry y="78" width="140" height="26" as="geometry" />
        </mxCell>
        <UserObject label="" id="e0OOAfn7zYN69eVYryci-9">
          <mxCell style="shape=image;html=1;verticalLabelPosition=bottom;verticalAlign=top;imageAspect=0;image=data:image/jpeg,/9j/4AAQSkZJRgABAQAAAQABAAD/2wBDAAMCAgMCAgMDAwMEAwMEBQgFBQQEBQoHBwYIDAoMDAsKCwsNDhIQDQ4RDgsLEBYQERMUFRUVDA8XGBYUGBIUFRT/2wBDAQMEBAUEBQkFBQkUDQsNFBQUFBQUFBQUFBQUFBQUFBQUFBQUFBQUFBQUFBQUFBQUFBQUFBQUFBQUFBQUFBQUFBT/wAARCALvAfQDASIAAhEBAxEB/8QAHQAAAQQDAQEAAAAAAAAAAAAABwQFBggAAgMBCf/EAEoQAAEDAwMCBAQDBgQEBAUCBwECAwQABREGEiEHMRNBUWEIFCJxMoGRFSNCobHBFjNS0SRi4fAXcoLxCUNTkqIlNLLCJkST0uL/xAAbAQACAwEBAQAAAAAAAAAAAAADBAACBQEGB//EADgRAAICAQQBAwMCBQMDBAMBAAECAAMRBBIhMUETIlEFMmEjcRSBkaGxQsHwM9HhFSRS8UNicoL/2gAMAwEAAhEDEQA/AJl0Y6up0u41p6+PFVocVtiyVn/9so87Sf8AQcnHoc+R4sAzHb+pvd9B5SoHjFUZbcRITsOCCOQrtRg6MdZVWoosV+fUYyRshzXjnZjs2o+noa8IRxzPU2pnlYUOrnTSPre0ILW1q6x0AR3uwcA/+Wr+x8qp9q7Sj8Bb8d6Otp5sqQtDgwpKvSr/AKixdrWhY+pC053f0NDLqJ0ya13G8UARrq0gBuQBkPY7JX7+ho9dvpnHiLj3DaZQC7QVGN4qU7cY4po5aCgO4Oc/eifqrTb1tfmwpDRaeYWpC21DGCKHDrOxagR2HNbFbbhErE2GIVu4JIAxSlmXsRkZJPmKSklD6uMp8xXNxe38Iwn1FExmLg4jou5FPf6hjFeqkhxHbFN7RyOTS1sJOORzVSMSwaP2jdQphPuwJYzEkApBJ4BPf8jUr6b67k9K9exH46lLituZ2f62j+JH+1DZcRSxkKwAfKnmNKbulv8ABdwidH+pDvYmgNWCf37jKuSMHxLsajmQdYQ1Tre4HIslAcbPnz5V36H6gTpTVbVmuDpRbJfLRUdoQo+X680BOgWv0uqcss90Iacz4IJxsc9B7Gilqu3OOwEutEtvtkkEHkKT2qlbbDGmUWJxLTu//wBP3OTvUX4jh3LdUew/25xTVbgH0ftyK4HI0Z4rbA77BkKH81Cm7ob1AY15pNcOUM3WJlDqCBuIxwacIGnpKWL23FkGKy44tSWdvCVHOSPYnuPenXXcBjzz/OZY9pIPEjfUaRLuUpM9rDKS0khZ7ZHI5qb2rVkOZov9pyZLYlLYU4oBXKVYzgUy6vXDm6Ijo3hEkBKcdiD+FQx7GhVo+zCdqxEEFSme6k5JCiDgj+tcFhV/nMJs9RAesQ2aWiuSNIMSGUJQuS0CXVcn6j3/AJ1LbTbzboLTBUD4YwSPM17EhMwbbFiBseChKG9o9B2/mKWqGE98VpVVBBiZr2EkzzPtWYJ96zP8PnjNeg4HamYCeV6DivO5r0jFSSeHv/tWfwmvQOM1nc1JJ4e5rKys7kipJMr1JAHPFeVxnP8AykGTIJIDTS15H/KkmuE4GZJFVT5F/wCoL0Bk4t1pZSJS/wDW6v6gke4wCal4TtAAwPtTJouyrsmn4zb7gfmvj5iW+fxOur+pRP24H5U+VRBgZ+ZYnMxXcV6QeMdq8r0q5xRJWeV6BmsAzxWZ47VJJ7kVmRXgGawjFSSeHlX5V6Dj/evBz9qypJPVc9qjuptPMXOI9GSwHHnU7wtXO3kef61IFpC04/pWobCEEJJHvQ3TeNsujlDkSrHWe0MM2Z+OhzappZV4fuM4H86CVtlGOpOU45yf5VZHqFaP2jqG6suIS4lgJCiPMlOf5Zqub0OJ+0HWHluJwopODjHP9qwl4yDPR9hW+ZaXoe9G1FaWG1nxFsqyUjslIII/U5o35wT5Z5wO1VI+Fa/u2/XL9k+ZC2HmVKGR3KeQkH7VbXjjHpWnpMBTMbVE78GB7rxEkwJNvu7DYWwkFtxAH4iOefyquzmoYtzvbshOGSpRIT27+VW46tRUStIrLicpQ6knHkCCKo/d47Npuz8YnYAc5z2NJ3riwzR0z5qH4jrqBr5u8W5oc4XuP5VYNi5hVgjtxmC64EBPHaqz6dcU5dzKff3NNjCCrj71Zjp48zcdJNONALBHelscwzYxmDfV7M+S4S6Qz/ypFOvSEFnV0JalkFRLe4qxjIrvrk7JGEtnePPHFINBvljUkEpAGHkfj7d6qvDATrfYYc9R6FQYN0lMOOKcKS4htfbtz+tBTTb6n9QzYbrXivIaxtTyMVatxrxWlNqIIUkpORwciqssWORpW/XCT4qnH3XFJLnl34xTupqVQGEU0lrOSpiWzxT8nKW0wtlSTswodvWuEOa3aFqWonxFnJWRSyWpbAwHC1nKlccKpuMpucyptUcuFXG8+VJryI+eBLRaJjJiaVtu1W8uspdUoeZUM/0xT5TNotvwdI2ds5BRFbHP2raRqq3x3nmUul55vulscZPlntW+pCos80wLO0d69A70miTmJzSHGXUuoUMhSMke9dyr0yfsKJnMHN/LFa1mPqwT5VwelttPFnC1vBJX4aE5UR/b867nEk7FJUSR2rKapN9isrSHFSPE2gqEdK1JB9MjjNZXN07ifNNhpLKiVHJ8q9kbVsqChkg5IHmKZPn1KSlaDvZUOCOxrpGnlRII4HPrXi9hntN4h/6F9ZBagxpm+u/8MpeIctauE7uzas+/Y0f5SEMqSrcEEK4I7YPbmqGqQ28wTng4x60dOifWV1ciLpbUDviNL+iLNdP1YAyEKP5cGgunHECyH7hFnXzpyi8Ie1DCbIkJT/xTYHdIGN/5HH61T6/WtUaU6Ak7VedfTV2Azcg9GKUuMvDac+VVT+IXoe5ppz9tWxha7K6T4gAyYyu3P/Kf5U3pnK8GL2YdceZVGW14ToUAcGuTKBlxlQ4PY+lPdytxaOFA45FMxAS6kj7GtUGZpXE5gpaUUqyVCuiMKUMAitZCC43kd09q5MOkKAPH3rh5kjsxIUcJI7V0f3pWFtpIUPSkTa9pB785pyZnAjbjyxmqHI6hlwe5tEnOWmU3NjKIKjlQHdJ9atj0v1oxrnTQaeWPn2BtdT/qGOFVU+Ox4qlYBU0eFJPl9qlvSrVjujNUN5V9CjjBP40eYNDccZEPUxVsZlo9EXuR0+1gzeGh/wAMf3EhsdlJPnVprVMTKnKfx9D7RWkY4Hb9arCwiHdYaFNEOMykkpUD6j+oo8dL9RiTZ4cCUoCdDbIIP4nEAYyPXjH6VKbOQpMpqq8jcBEPUm3MSILny4CJrbyXikf6TwofmBmkHSFyD/ieTjYVBg4Ue+8KH/8ALU9sJgaimXOQlpLg3hgqPIVjuRQd0VbnrF1gdZUkmEuQpsI54ByP+tHI2OrjoxdW31tXLE+M26rahYUoDJA+9dCeTSdbRS6lTSUpHIURXetoZ5zMk48TPasPbjvXoOK8q05MrKysqSTYdq1r0DzrCcipJPCrCcnsKyvCMlOeyecepr3z4qSTbAqI6+uEnw7daISFLduUtth9SOfDYzlwn0ykFP5mpSkh4KO0FAIx71xiwGI0h99tsJceIKlefFDcFhgTowO4qVhROAMeWK8xivcYFeUTqcmV4QorB/hx/OvRycVg4NSSZWE+xr08nNajtUkmw71nn+VeDyNZ/EakkysrKypJMrxbiE53YAA55r3+IVotlDnCkhQ9D51znxJkDuDXXFj8Jq5XJrBD60nI9xx/Sqm3ewSv2zPQhpSvrJBA9eaupr9lMbTziEj90spTwOAQc5/tQlcszD4LqUJTxzj86xbhssxN3TturyYKOhsGdZepFnkOtbE/NISd3oeDV3VVVBalWu7MONbUKadSrI8sKFWqjPCRHbdHZaQrj3FNaRs5UxTWrhlMZNfQjcNIXNlJwvwt4+6SD/eqZdRNFIixpU1xZVJUSo4NXgvDPj2ma2eymlf0qsur4Dc3KNmfPJ7d6HrOGBhdDggqZWtKpZg7MLQnOBgVZr4eH3P8FKadyNiyBk9+aEmo0RLcA0tKfBB+vHGKK/QZ6Ku1SGorpfSpZVsV/BnypUnMcZNojprhgEFSe5qKWjbb7pFWpWCFhYx6g5qb6zjKS4CrGw8YFQ5TzCFrKFAupVkUsxwYUAFJae4XdiHA+YU5+NIKAgbiScdhQU1m0mW8t5KChkunYCMZH/vRe0fsf07bH8eIpbQXvUM5OMedDzqVC+WkyVFRISvenAwADzWpeC1asZlaYhLCogwkOAtqbeO4DkHzFJoAbDyC2oFJPp2rneHj+8KRynvjmosxep0W4NHwSlon09/OkgvxNUmXH0cwBpi3BaTw2D9dO6IjCEFCWW0pPcBA5qN9M7k5dNHQnXARtBbBP8QHn/OpTW3Xgopnm7MhzPEJDaQlICUjsEjAH5V6eays8s0aDnoOCPKvPCT9WEgFX4iO5rDk+Veg4qdyTVpHgNpbaQEoSMAVlek81lcxOcz4wac1Q5Y3VMvErhrP1A/we9TWNI8ZRdSUltQygp5yKG8xjClcYx3Se9KtOagXZpQbWomKvgjOdmfMVg3Uhvcs2aLyp2t1CvElIIABynOOaVyEoeQk5KFg8EHBA8jmoxGuLSWw8lecnAI5BFOiLikY38ADzrMZCDNpbAeJZ3oF1hTfHIunLzISi5s4TFkqPEgDuCf9WP1qwcq2xb1bHocxkOMvJU24hYyFgjkV833b0yy60604WHW1BSHW1YUlQ7Ee9XA+Hzr3D6jw27LcpLbWoY6clBOBJAH40+/qKqq7YnevO5TK3deOijvTu9OqipW9ZZCiY7h5LRPPhq9ceR8xQBuEQsPDIwN2K+jHXeMLlpm4Rnmd6UjP+1Ua1Pp8sb17SEg5xTtFu7IMFZXlQ0gjzRQQO33rPATJaK04DiO6fWny4wCW9xBBwMc0xFCmHcgZ8vvTYOYqRic2/KlUcblEYFcloKlAtjGe474pQwwRypW0+grhnVjpDQptpWTwRSZ0r3p2qwtB3IP9qcbbHMkAA8due1LZml1OMhSVDjsAaDuAPMY2kjKw39BeoEe4RWbVKVh1KvoJPAPnVkdNQzJ1DEcS+plxG5tCknGc188tL3SVpO7olNhSdqhuB8jnvV8eiOpGOoFhMtpQTKZUjJz2V6/nS7jaQfENvyhHmFSyW6fpJ963rJIUVOJUnssHBJ/KmhtxiLq6C8TiSZadyj5gkCiotpm6MtrKRuByM90nzoX64sYs95jyEOcJcacRkeW8ZFOPS1SgqcrM2u0MxBHMLR3JUQQPasrUueIoqGCkjOP5/wB62BCuR2rez8zMmVlZWV2cmVlYOa8Hc1JJ7WVlaeM2FKClbMEA5964TgZMg5OJuCOM+dclr8VJS2rk5BUPKmxu6PzEOfLpQQV7UZPIHYmnCBHVEipQtW5XJUfU5zQw24iXKlZ1ZbSw0hpOSEjGa6kZrT6VK3J5yO9e0QfiUnpPFeVlZXZJleFQTjJ78D717/Ca8UkEncBgcjPlUkntYeaysqST0DyrCOQACa8rUoy5vyc4xjy+9SSbeXNaMuFxsKUkoJJwD6VvWVJJ6BmvK8UvYnOCR7VvgED3qSRl1ihLumLlux9LKlj7jtQctLg+TUF8qI5ouazZnyrS6xBSlRWk7wocH2oF2i6mTcJEZweA6hZQpPuO9YurOLRNfR8ocfMadSsoYlqVyN1WL0HcBdNH2mQDnMdKTj1SMH+Yqu+ro7niBSjwKL3Qe7ifo1cUnKob6k4/5VfUP6mppWxZj5ltYuUBhJxn6SAQfI1XzVCWozslLhSkpWpP/wCVWDAwoetAjXUaPJu08pGW/GXjHn/0pjWj2qYvovuMDV0tUJ+d4i0eInd2PbvRE6awLZa7q4LcNiXE7lJzxntkVHbjGZQk5QR2HFa6PujVi1Ay5IcUhCxswe3rWWGJb8TYYZXMI+sUF1spSj3zQpcKGpCwR9YPOPvRQ1XfYiogWHUncODQol3qCJD4dGXOcFNdP3ZErWMriWo6YTfndE25RUCtCCgp9ADxTH1VgqkIATgeI35eoNIfh9ubM3S8hoL/AOIadILRPO08g05dWlONxoa0ZTkLBc9O2BWmxzpsmY6DbqcQE31AtiNwHiOfhIPrSZmOpaWvFbH4c+1I5Oo35l3W0UeKy2MHd271JrXeIzsUMSI4+s4DnbFZ35m4G29QxdF70J1jkxFKTviuA4H+kj/pREoJ9L4Q0/q5IhyC/Cno2LbJyUqxkc+lGytnTHdXPO6ldtn7zKzyxWoOSeCMHH3ramotPdx9a8rKypJMyff9Kys4885rKkk+RPVHQc/St2fizorsSW0opWhxO3kUM5CSFHcPuK+nnxo9O4Wo+mqr8Iw/aducQkupH1KZUcEH1wSnHpXzXuluLLq0qBwCeay9prO0x9iHG9Yms90fiO+GlwpZyFEHsKlJuRkM5Dm5WNwNQqIylcxAUcBRwalMWMUABOMAUB1XuMUs2O5zC3XSrcrmin8NjhtXWPSz7g4ekqYUT5bkEf7VAIsPlXGeKnHTWYLNrzTE1zGyPPZUrjuN4Gf5mlX5XAjIU9y8euLnbpc6Tp2W4hEqTGK2N/G9OccfnVR9U6bLUmZFdGOSkE0YPjNakWuVpe8w3VNKbU60lxJwUnAI5/I0JLBrJGsoTjMtSf2ikgEn+P3FJVZGTG12lRIBerAW4rSQkbkjGR51BbvBLCyQnBzRwvdoJUGwDu9CMVCNQ2DxY6j4f1euPOn1aBesY4gyC/CcyRx2rd58R1BSUlSDyDSm5wlRzgpII70nQgFHhrH0ntRRzEcRVFu5SkJQMU7Q7q8rjdnPvUZQUMuFITjBpyiSuQUjmqMBiGRiD3FlxLq9yySc98edGD4XurLug9YRoExQFsnOJadUo42ZOAr9SM0JW3lSAQvHIpIpK4729J2qRyDn+VUK7lxCHg5n2It5CtjjSgptYGQnsRUU6swJDtpblso3pbIS5/yjdwqhX8H3WodQdKpstxkJVd7cgIGT9TrXZKvyxg/b3qxMkMuNKaeAU06NqkqGRg+Rp+sLbRg+P7GZjZquziNtquLc+0RikHcW0hRA88U6MApbAIpk07D/AGU27COShpxSG1E92yMj9O1Lo95YJKFq2q8xR6nwF3nmCdcn2iONZ5j3rTfvRlH86xKiFAKA/KnMgRcA4mxBJHOAPIVsT5njJrUrSgZUcD1JpvevsZtB8NxLy84ASfOoXC9zoUnoRwU62jCVKSCfWh/q6fNvt6t1tilcaCmTuef3YK0JHIHt3p7tqD4XzKip95xQUVdxz5D2FZf7S8w03LYUVvNq/DjuD3FKWMXXPiMIFU8x6g21mE20WE7EhOAPbyFaXOUI0ZalkBPGAD+VKY7u9lIP0qSkbh6UwaqgSLk7HRHVsbSoKWoeeOdv58Vew7U9sooy/ujzaJAejIBGCBwPalmQo4AxTfZ47kdKvEwSOBThRaz7RmDcDccTK9PA5rwHFYST9qLKTBx71q8C4AONpOVc+VbVh5xXJJmMcVlYeazj8674kmVg4zWYzWdu9SSZWVlZUkmVydbcK97S9qsdj2Nda4ypBjt7k4UrjAJqjdZnR3I/fdcQLdAcIdHzaPpSx57vMUCmNkuW9IKPDfdWtwKx3ySaOF60RarnAkyJDOJRQpwvgcpIBNBS6S2YDDBUNnJTnHPIrC1ZYsoabek2bW2xm1Bc3CPAfTg4yFmpp8O188G5XSA4tKEOpStIJ7qHFRfUMI3W0hacFwjOR60PbTqsaXu6w66W1EbCQcfnVFYowYRmysOpWWx6mdQGNFwIyf8AMlzXPDbQnulPmr8u350MZMldxaVIX+J0leB5Z8hUE0pAm9QtWsNLmLltDxHG1KUVYSPI0/6sug0ffE2mQRvQ2leR6K7Vey1ryXPUDVUlPtB5iW823xIi3mt2R3+1RF2F8+63GcOwqOd2MbfzqUov6ZcdxDKhtPp3phjo8W+xEuDKPEzj1PlS44Md8SWN6LSi3NqdeXIOPpWr/aohNssW3y1hSc7j3NGaZFAgtBWEoKR+tDu/w46ZLpfKuwDeOxohglOQZNehM9uBqF2E1H3/ADjJy4P/AJez6vz74ojdT4hfsDb6RuLDn4PUEYobdB2HRqVbmUBnwHACfPkcD3ox6rhfPacuLIyVeCpaQO5UBkf0rTpXfQRMq87NRmU2U85/iGYw4tDbe7PPHnUpS/AKUoYdDikpyojnmoVeJjDk56WpvcXieD5falWhX0Lub7bn0MqTkKPIrOYZE1wecQvdFrkWtXtsKcCW1oUUBfrjy9zVhVZJGOBzmqy6NlvWPV9slORyAHAACnOQeBj9asyCQhORg4GQfKtLRnhhMfWj3gzKysrK0JnTKysrKkk9CgB/0rK83beMVlSSRDrBaRfOl+p4QTuUuCtQHunCh/SvlXqq2+HOdBGMnn+tfXy4RROgSoyuQ+0to/8AqSR/evll1Es5g3WQ2U4U24pKgfIgkUhf94Meo5QiBpxgokkjjYc/epjFYR4aVD8JwT61HLo0liadyRjORj1qYW5sLhoWoBJwMUnbwuYxpx7iJvHZw1uSeCfPuac4CFMqbdQoJLakrST5YINcC1tUAeBnNKozZW2UKG3dwT9/OkSZpgCW7+L63/tDo3aroUBTkaTHdOPRacH+ZqkaJrsSU3IjLLLrZCklPr6Vd7XsdzXfwiofaV40lu2NOJwckLaIGP8A8TVEkXBAcLaxsdzjafOuVjkgRYNtGDDbYtUx9aW5tZIaujOEut/6x6it59sVtU2pP7scjig5CmyLdKbkR3C24nkEeftRu0lqqLqmFklKZiAEraV/F7iutnxGkbdwYLdX6cKQt1IOBg9qhlyiFlYGDggEGrE33TrdyiupQnc8RwkD+VCXVVgciAIcZLbiTgpIwQKuj87TKW1+RB74e8nPBH86xEgtr4PFKp8IsKJ8/akIa3ndtzjvTPEQPEWsPFfY804sPspbUHQVZ7U0RXQDjFObaEOJzjkedUMMp5ko6Wa+m9N9awr1b17FMr+pBOAtBxuSfvX1C0VrSB1D0tDukF3xGZDYVjIyPUH3GMflXyWkQVBoLSdxHnVkfg36zq0rqJOm7m9iFOP7lTiuEO47ewV/WqBvTO8def8AvKOm4fmX8Qwl1CAs5cQfLzpBMisRnVOBBKt2TjzHnSiPKDo8ds7h/alUdxqR9fkDjkVqKUdQBM73ITmJ5d0ZhxkkHceAEppBGuKnwXHnfDb2nv3486WRBFW4tSwgq57+XNNb1haud0BS4TGR+JA7HnIFRmY4M6u3BEVSmReQAkqDAIOe2RXFvSzT5bIPhpSonansRmnzx2owCUAHA4QkdsVpDC1JLigU5JO0+lF2AnBlN5A4m0WGIyUNpxtQFBPtk113IW5tODxwK3PPeuQYSlxTmPqIwAaPjb1A5J5jbcZAauCEhtSy4AAE9uO9ezG5jbDXghKlJGDk+eR/alzaNz6lbQUYBScedKB9QPkM0IJuBhd+MGcIZJa+oYWSSR+dd65PRw6tKgojHkK64IAHciirkDBgiQeplZWVlXlZlegcV53GPOvScipJPKysrPapJPRx3rDgmvVdq1qSTP4fzrFdxWeWKypJMrghgOL8RxI37jt88AdqUbaxOMVwjM7mM+pUuiE2GON7gaUD2+o7c/zoWdR9EtWaPFWAXGXHCk5PIx2/WjJcFFMVakthxaRuSk+o5qHdUY5m6aaeWraWnAQ2nnKlDt+QrO1VakM57HUe01hDqogmQpEW3HeMADj70ENTWhUnUK1+HllffPkaODZE9nwiNhSnA9sUwamtTIj4S2Mjn86yQ2eRNz95NPhh0oxbG7tPV9T30Mt57ITjJx96hPXtv5jqjcxuCHG4zIA9BsyKmHQm/C1KuTTywkKCClJPB5wcflQQ6pX+TM6q6guLroVHefLbZB7oQNox7cUyrbqgnmIAEXliOIv0q4puOvxOTnlSTmnkJLE2M5jBC08/ehVEvqrapSo5V4RJJBOaJ9h3Xu3NPtrKzxux/Ol24PMfUhuBC1cHWkW5pYWXCoABI5qOT0tXRluM8AgdwftUwhxmI1rbOzdhIHI9BUA1Y0UlTyFFGD9PsKs4zBL8CTPo3GegauUwvHgBlzZ55PtRukx0y4j7CyQh1soJHBwRj+9A3pHfWH77bmFKAdIIyeM5Bo7pyDnH5f2rT0RzWQZj6zi3MpVq3TjVsmzW5REdEd1SeD3wo+fkKZdKzWpDrngfgSr6VY70QviCtLEW/S0E79z2/b24IyePShfY3hGW2zGYIHBJIpNhjImxW2VBEMumr+8p2A3IbSVNvoIP/qH+1WYUdxJHbNVDs0lciU2vJT4agRVtojvzEVhwchaEq/UCnNHxkGZut7WdayvRgHmsOPKtKZc8r3BryvSrjtUkmhVz/wBayt0gY5NZUkng7j79/Svnd8RVhFs19fmAjalMtxQHsTuH9a+iPfj1qlXxdWf5bqBLfCcCSw09/wDjg/zFI6rgAxvTH3FZTrU0UIWlQGMjNPenEmTbEK3HKeCPWuGqo48BtforFZpEqdjpZRyoLOBSVnKCO0+27Ee3VYUnJyPOlkMLkLS4MJSOOaSTLW+46Y4lNof2lwtHuRXWwOKejoyNygSOeaRbqag5OJdD4fkIvnw/yICMOLQqSwts54Oc45+4qofVXpiqNPTMhNEcFSkJHYjuKtl8HlyEzTOobae8eUleMeS0f7io5rexMuSLklKAmbGdUFNKAP8A2MVRSynIi4VWZklMoEra6I7zagocAqqSW8vW2W3Lhr2PIIAA8/aphq7QaZbbkyFFU0E5Kxjkfahs3cnrLNEeVkpWRtUf60U5flZZf0x7pYDRV+bvXy7hwmWlwBbZ7min1T6ON6w0qi4wWUt3FpGSkDG8Y5FVcst6XbZLMyO4PEQoK/8AN96vR0m1hD1ppCPIbdSteNrrfmlXmD6UmxO7MOxKrPntqjTbsF11txlTa0HapJGCDUIKVRnDxx25q+nXLpCxfG3bnbmR8ygfvG0jhQ/3qmGprE5DlupKCAknPGDTlVu4YPcUur/1CRUrIeJSnFLYy1qxnikbzZSvtzWNPrYVgHimyOIoD8ySxAkt4cJwfKuzMdDEoPMvGO439SSDg58se+aaYc4qAyc0pdX4wCgMrB/7FAPxGQR3Pov8LXV9jqXpP5aQ9/8Aq0IJbkIUeTxwsex/rRXM4W+8fKuK+h0jH3r5i9Heq8vpRr6BeGQr5QqDUxkHhxo9/wAx3HuK+iEbU0LXllautseS62tKVNuJPnjIqoc1KEHjqLlN7EyXaikM21DO1BK1L2hKe6j/AN5rpbLe6214y1FJ2nI7ZqNaKfN9lGRNcLsiMsDaryGOP71NQ6ietTSNwS3kLPb8q1ayLDv+eopYDX7TOFoX8wt905IVgJz6Af8Af6U6Jrm0whhAQhISkeQrenUXaIoxyZ6e9JZbyS1gLwrnkHtwaUlIUnBriiI0jsM855qNkjAkXHmbsqShhB7YSBj3xWyTvQCR5ZxXuc1lXAxxKzg8p1LzKUY5OSo+ld+M5HnWAAkE+VekZFVAxmTI4xNUqJQSobSPKtEvBxe0JUBjuRXY8CtatJMr0d68rK4ZJgIUkEeYr0DjNaNgpG3yHb7VtUH5kmZzWVlZXZJg715/FWwGawnNSSZk1ie/v6Vg4NIX7gpuSG0sqcTySpPl7VUkLyZ3GYrcwpKkqPCht/WmbVtrRM03Lbwd7bRU2R5EU7jEhDSiCn6gsDz4rWY148R9vnC0KT78g0N1Dqf2l1OxgZWyOhbN0Sgk4UnuTW2owGW1EgEY7962ubyos9sYwsEopHqTxAz4q1EoIrzgUrPSg7uRGrTEJ693dEGAdj7x+k9gOMk1DepmjJsK8phy07VhPioUk/iQTwf1zRI6VQ3Ymo4VyKhs8RSUpzzjsT9uTSr4ipDFtvlimhlSnHmFtKJH04BBSD+ZNXQ5BI8QTMd+0wHWjSqJW9hS9ueORxz3NEnTun7hZ7Ap5DaW0AbvqGBxTVJlsKhoktsHxQATgck1JxqyTK02qAlopWtspK/Iccn9KXvNhI2xjAUYEnNuuqntPNrWQVkDJTyORUP1FdktxnI7rIWpQO1Xt60u0s4I+kwJCgCykA/V3x70w36YxdIfitJyRxkU0QCBArnJnPRV4jxtWWdtDewiQ3uP/q7VbhWcntjngVSLS7qWr40+o5W26FAfYjHNXabcDraHE/hWkKH6VpaTAyJla3sGATr7Y2l6gRLUAoOsJyM9sZH+1Cm3Wlll0qKggnsRR/62QC4mK8EpIUhSFZ9j/wBaCDjKULP09qUvz6hE0dMc1KZ0hMJiP7d4UM8kH1q1WkpKZumrW8g5SqOjn7CqmMPJS4NuO9WZ6TyRJ0PCTkFTSltkn/zE/wBxTOlOHx8xTWjKhpMCMV5WVlakyJn8qzOKweVek5qSTN59qyvUnj8Of1rKkk17+1Vl+Ma0Au2adt/zGFtFXqUkEf8A8RqzRGeMGgr8Vdq+e0JDlYBMaXgn0Ck/9KV1IzX+0Y05xZ+8+e+qWAIjvGdpzTBYbgIt1QEADPOPyqYakjEtSE8fUkjFQi1Mb7tFUlODzms/tI8SVtBEmaZ8iXIDzUZtLyU48VacnHpUl08YkJwqkoAUfqIQngnzpnZaQ1zgj396cY6FJYJWtII4CSOSKzGyeJtJ8mWP+EaYhrUuqo8cZjusMvJJ9lEH+v8AKnbqdakrvciTGc2zvFwUjstJ8iKhHwo3Zi1dQ3oj4J+dhqaaUD/ECFf0zRQ6i2n5nWJLQDUnwvESjP464vj8QHVp/Mj9mtduvj8CM4hCXgra8wsYKh51DfiX+FdX7PRfdKxlOgAreiJ5UjjOUjzHsKn0JsTpcGchv5efGWMk+f8AuDR7s80XWx5dQG3dpyk+tGrUMxGcHxF9QxTHwZ8h49/esz6o0lCiUHbjzGKIfTzrfM6fXdubDK1ML4fjg/SseuPWpZ8XHTVjT+vlTI0IxfnQZCgBhC1ZwSMefqPzoJWu24cAVx7UTYli5Ig1Zl9oOZ9I9A6mZ6hWdm5RwpLT6QooI7cUJPiI6ClcZd+s7G7AzJZQOT/zAe3nS3o5qN7TfSq13RALjUZW11seaMkH9KsdY7rbtXWht+OtEiO8nuORWfVtL7QeYzZuTDY4nyivtpXGWfp/OmFbZLeFDnNXJ+KHoGNPuvXy0tAwXSVvNoH+Ur/UPY/yqplwtyo5UCOQa067Nww3cUdf9S9GMzaiysJyR/tS+NJJV3pKtIKdquD61tACg5jGRRcQYJEcnEBakk5x7VZX4T+rSdPTjpac6SxJcCoq1H8JP4kf3H51XaO0XE425zSptuTaZDUplSmX2lBbbie4IOQf1pezDDEYGQMz6Pakubuir1BnMYMSWPBfSPTOUq/Lmi5bZDEyIHoykqQrnKexNU10P1kX1P0/Hh3LYieynasZ7qxjI+4/nVguiOpfEtzun5CiJMTLjRP8bZP9s0zo3KNsbowGqrygcQpJ/Dzyayszis2k+dbcx57jjNeV7yOK8qST0DNeVmcVnc1JJleg4rxPY1lSSe58qwjFZzXmc1JJlekYryvRkipJPKwcVlZUkmVlZnGK8RnH1VJJ6pYSjJOPLmsSc+mPLFI7ru+WwD5g/eusNvZGbPIJHY+VDDEuVlyvGZ3754NepPsMnzFYrvXlElJiyUoOO9aurUhpSko3rCSQkHGT6VsScgVhFc8cyCVr1ShTUwLeG11LpKh6KJ5pNdVty7cjxMlJGCaU9ZoEtnVz7TZKG3VBaT5dvKmv5J79lJS6c4Hb396804IyJ6ev3KCJHtO6jMDUsSMxJwyXklTfcAbvWjD8Rlibv2mbW40oIcbuCSMd1ApPAoDGxIt10EhI3K3gk+RNWe1RY/27oZmYTyhtEhPtwKtTyCFEBcoFikmBu22hCIyW3G0rWlPpTRqNxtDDrGNvoUnB7eVTRCUtvq/ixwMVDtX2p19t11oEfT27nJoY5joIJMTWict3TpgsqDxThKthyfUiu8qMpizKeYT4a9vLav5Vp0dtpS1JbWj6gtWfU/7CpZqazuLtjvhEJKhwEjk0UDzB58Svjt+lRL5vQCnaoDaPM19ANI3Zu+aWtVwaOUPxW1DnkfSMg++c1TFvSjQe8R1spWo49wBVsuj4S30+trCRgM72yP8A1Z/vT2lb9TEy9YmAHkf+ICWIumY6kvBt8KUpI8yOM8VWQahlSW1NIWFOE4HvVlPiNsEq+aSjfKNjLbuHXx+JCFcYH3qrSNJTbPdGlqXlnP1H/f3ql2BYcw+lJNYxHrwp8eOh1YAA7586sh8PF7RdNLz2AR4keSCpPmNyeP8A+Gq03S8qMxqIk/uxgqo0fDjITb9TT4aMqbmRd4Vn+NBB/oo12hgtgJk1YzWZYQjFeHsawnn2rMZ861+ph98zBx2rKyvefepJPDx5/wA6yvefQ/pWVJJ5UG612k3fplfGwMqabS+n/wBKsn+Wad9DdQtPdSLQblp25Nz46FbHm8FD0dfmh1s/U2oeih9s09XGCi526XDcO1ElpTJJGcbgR+eM5/KgtixCBLo21gZ8t9SMBuXISRnk8UN4i/BvjW3gBzbg0derOkZOkNTzYL4S4uM6psuI/Ccef596BFyHy10cWfp2O7vuKy06ImnYRlXEIrATkhXPPfypcy4W8AkHPmaQQFtuMNqCs5AJ96XhouE4GSRniswzZXmTXonN/Z3VLTruc5k+H9Xb6kkZ/nVpep2nXJs+LcIzpblx0kA5/EM5wapnZZirLdrXOCyVMyW3PsAof2zVzepV1ks2yHNiJDqdv1pP8QIqikA4grB7xIg1cBKjZUBFlHkAedGLSKhKsrLclwoe2A7gar/ZbonUCFNOtqiTGc5QrvjyqxGiG03Cxxg63tdSgAketNVpl4tqeEzK5/Gg024zYmH2VB0Bzw3z+FQIwU/fODVPWY/hvrT2A86v58X1gTP0PFkOIJDD20ODsMgjCvSqGBtTUlbWQSlXejFTXlYOptygyzHRjddOhd8YKuY63gn243D+tNXSTrO5oC9tpfdLlofP75sc+Gf9Y/uKcfhfX+0dPaothPBCV7funH9qC8qwOxJLyCtRCFqSQPYmsR1AsJ6M1k967TPoHdZtv1xYEutuNy4b6MgpIUMEf0qkHWvpC7pe5yJMVhSratRKSBkIz5fanzpX1buHTuR8i+pb9ncUCpHfwSe5Ht6j86sygWjW2nloUluQy+jJHB7ijC07st3FvS2e09T5nXG3rYJJBCgfOuUNwg980XesPTj/AAre5TLI3xN2W1en/KaEioxju+n2rWRw65iLpsaP8K5NjCcAH1pc9IU8kAKSoDtTBbm0LJURz50/xWWVcAjNCcY5h0JIxFmlNUOaX1DGl4IaB2rA4yn/AKetXX6T39E282m7RFpXu4Xg/iSocj8/7VSObbErZ3JwFeRo6/DdqtdtuMS2SVYQVjwyT6+VCawDDCF2nDKZfpDiXEpUnlKhkV0Hc012h7c02krylSfppzBxXo6n9Rd08067WxMP4qwjFZ35rCc0aUnlYPKsrKkk9AwDmvK9JzivKkk9J8q8rDyaypJPcGvd1a1nnipJPSqvCKzuPesI9uakkz+lZWfyrOSTx+dSScJTyEBAWMgnn7V2Qre2FAYz5U331JVD+g4UVAD9aXMgeEnByAKArfqES5+0Tetsg8VrXvHvRupSec7s+VZ27fek0SX80twJSQhJwFHzpVt/2risGGRIRiCrrHZkzJkCQnhfhqSTj0PH9TQ/fguJiEKVnA7DzNGLqdH8Szx3gP8ALcIJ+4/6UPk2xD9vWtKuQBn7157V+y458zf0j/pjMGctsNPfXz5DPlVk9MA33prDSDy9C2D7gEf2qud8RteUDxjtR76JzhN0BGbzyw640f8A7sj+RomkHvI/EprftVvzBcnKDtUfqGck+XOKZtSOPIhLSnGCMD1p/uEJcK7zor42qS8oe55zTJqTIiqB54JPv6ClujHlOQDE/TCVHhOyw85gKWSOcZqV6leLsUlg9z+LyoX6dLKb02XVEJxjb2onX2GHLbtaVhGO+aKDxKMPdBzerw3AfCXVJx+EmrCdDLqm56NV4agtDb5wU+4BP86p1rJLrU9SFPEjecD0o/fCKzLaYvaHX1mMlDRbbJOMqJyf/wAf50zQMWKRE9Wf0z+IcdaRxK0tckEgANFWT6g5qs90itiK8Dg4zjA71ai6RkzbVKYAyHGVpH/2nFVWvzrbDpaecCSePc0bVLhwZTRNwyyASrPtiOzFLwvPAqadBtRqia+tCHVYS654PB/1JI/rio1ebK7LCG23iGu+3yJrnplgabvEGe6o7oshDxx3ISoGlAcHJjlo3IRL0BJGR55rNtatuh5tLiMFK0hQ9wef71uM+db882Opr2596wnnive/HvXhGCKkkz6vf9aysI9gaypJBrr/AKIwNT3cal0/cJGjdbIGG77bAAXgOyJLX4X0eyufQ1HrV12uWgbpH0/1dtrWnZbqvDiaohZVaJ58sq//ALdZ/wBK+M+YozPMqWvxGnC2rtnulQ9CKQ3i12/UdrftV7gR51vkp2Ox5LYWw6PTB4/v6Uqy7T7eD/YzvBgJ+Ij4eZOvEy9XaTuCP2qqOHnIDqgpiYlKeC2ofhUUjjuD7V889RvIfkKPy6o0nJ8RtXkRV1urb2pfg5m22doWS7ddC3Iuoe0xdVqeahOgZ/4dw/WhJznbyMjHNU0vmpoGrX3JJYEOWtRUpoeWT2HtShxnrHz8Q6lsYPUlGm3iq3sukA4TjFOjUgNPfSSD5n1qG6buYYbVHKuQOKkzJLu0EErPPFZli4Y5noanDKCI9yVZZ2hIJ2lWauOl1zUnTGzvg7VKjtOZznJAFUvVylPcj8Jq3PTmZ830QtbjSS6UMlCkA/6SQf6UpjDCEt8GQyekXfWEVtomHNbZKjx9Lh8hVjelkpb1kLT6Ql5B8vOq5SJ8e7XJh5kqZkMp3cD6h7H2o3dGbo6/a32ZJClhwltfqkmtKlttimJalSUMUfEayw/0lvaZR2ICAULxnasKBTn+n5183n44auaxnOSa+ovU21t3jQF9ivILiXIqyQkbiMDIP9K+ZV6iCBdXglQW2pRwQPKmNQMWmL6T7IafhSk+Fq26RVKIS/Ezj1wf+tCnVerf2L1D1LZpIADM5xKD7E5H9amfQaeIHUK2rBwl1K2lfmOP6ULvigtblm6z3qQhKkokbH0qHkSnB/pWQqK9pUx22x6gHWOypanXgsZwec+VT3p31LlaTlJaW6tUFfBSTnw8/wBqr7YdZrOxl1fbgZ/nT8NQqLu1JJBrj0EHaYyuoRxmXXg6NtfUu0vreQl4PI7nuM+hqpHVjplJ0PqJ+H+Nn8TbnqPQ0SOh/Wo6LnIt9wdBtz52ocJ/yleh9jUv6xNQ9ZyESYqg4FDunuD71KnatsGVdfV6lTo6DHylQxn+tOltcC14Sk/enu/6WchOqygimKGVQn1JJP27GnCQw4gFUqZI2LcZAIUrCTT1pye7Y7iw4yra4wsLSvPmDwaYbfcBj6lYHqTSlRRIXuS8AR22mkmBzgx9SpGR3Pov0m1lG1tpiLLbUPESkJWkH8Kh3FEEHI9/OqA/D71Qk9P9Wsxpbv8A+lTFBC9xOEKPZX9jV9bdNRPjNSEK3pWkHIrZ+n25U1HsTzuspKNuHUVg/TXh8qw8Z9qytmZsys/h/OvQcV4fOpJMxisrzcSvbj869/nUkmd+e1ZWFPFegZqSTytiM1qeK9JzUkmqcnJxgeQr2vRxmvKkkzOfamy6XNEVaDvA+rGAe/FOYOKjN4gf8chSjlJVwPelr2ZV9sNUFJ5j07FVNaaWpWFjKh6ZNKYzYZYQgHcEgAGvFH5eMCPwpAArSNJ8VPAwM8faiDap/JlDlhj4ihXevNuePXisAOc4Ncn5SI4GeSTgD3q7EAHMqBk8Tha2vCjKTjCQsgfallatthpspTwO/wCdbYxXEG1QJD3Iz1HSf8JylgZKClf2oV6alh1S0FX0hR4NGPVrBk6YuSB+IsKI/LmgNppSFy1jcd55rH1ozaM/E19Hg1kRw1XplEpguNowo5JI9KlXQKSpm03WA8dimpCVhKvRScf2qO3S4OxwptRCk+pHJplj6okacVKnRjs3pG4dxkGkKnNNgIjdlRur2Rz1TILus7rjGUvq7c4H39aabwkFskJ7imCz6yi3+6SnkuHxXHjye5yeafrqoqjkhQyfWrMc8mGQYAkR01ATK1GhLiMJ86KtyjJt8XwynLZSD60Kre861e2Vtq2qKwKK91HjWxKnVnftyDRE6lLPuleOo9tXJu2U4QM/UfuaNHwvS/kb1Pt7jh3OxA4lPbO1Q/3oP9QYcpM1S95CEndu75PrTv8ADfqCS71itDTqghtaH2lf82WzgffIFHr4IMX1H/TYS6qfTyPFVCvNsjy71MLkjx1IeWPp4Awo8VbK8RpE20TWIbgYlvMrQ26RkIUpOAr+dUuk2WVpm4Pxg4C7HcUh1tRzhWcH+n86d1Y5URPQ/c0X3tKI7SCghKQcZJpG0hqSFZVuJFZLH7RYwokEDJxSVjZGSQknKf8AUc1nGbBG4ES6Gl5Tc3TdrkNKy25FaIz/AOUU5596FXQDXLGoNPGyOBaZ9sTk7sYW0pR2kH27EfaisBkVuVtuQGeYdSrEGeVmfLNZWf1ouJSe/VWVmB6n9KypO4jRpG8J1DpSz3NBBRMiNSAe+dyQf65H5U64BBGAQeCDzUE6GhTHTO2wHCVO2tx+2rz5Fl5aR/ICp5Q6yGQTkqn8Z1pvhbtpgSw5aQ0pw254ZHiZ2kpV37Y+ntVB7/AbMpxSWjEe821eX2r6g/E5ahN0dHkbRlta2yT6EZ/tXzz1Tbfm5L25IUW0k5J7VnNitioj6JuQESHaRiyJMzctZKW+/vRKjbQtBxggYzUL0a40JkhlQ25AORU3hr8QAEJ2jikr/umnpeEyI5tsnZ3xg9hVk/h4mPvdO7nEXyiO+rakeQUM/wBSarZGSQnbyQTyasT8L0z5i2amt5xwpDqeeeRg/wBBWY/cdYZWKkMR32JDpaDb4yM+dTfo5JdauLkdSiElQ59RQ3uUtoXuTGStSVJdUlQ9v+/Op90xmBN7S26AApO0E8ZxT2cAH4i7jKEQ53OdGhRVmU6lCFJI+o9+KoFqTo+udf5jrdyixoin3C2VHOU7iRgUWuvcvUunrPqa/WsG4xrcouvsOun6WuN237ZzjzxVVtOdbbxd9T2yNIjx0Q3n0oKMZODXbbrdRlguMRWiuqjAY8mGbSmktMaMuES4zL45IejObyhlHBqbah01onqreW5kizquB8MAuLJAxnjzqp3VHV95gaxuduTIcaZQ4ClppOBgjP8AejB8HNyuFwfvzU75hSQUqbU8DjkeVKNW6p6hMb9VXbZjiWA0H8O3Ti8MXO1y9HQjHcjEeMAQ4nPGUq7pI75qpPxB/DteOgV9C97l10pNdKYV0CfqSe/hPAcBY7Z7K7jzq/mgHfBv/hf/AFGlJ++DmpPrnSELXOn5VquLDcuHIThxh5O5Kv8Av9fStWlDZRkckTLtbZdxxPkqxKaQ2k7wQfLNSjTXUE26U0w7IW61wlIUf0FSv4g/huuXS65ruFvQ7J064fxjlUYnyX6p9FfkaDUeAGnkLIJAUCM+XNACKfd5jYsYdSxLjTF8jpcSnIUM8UPdX6UdgveIlJCD2PrTtaL+u2vRGlf5SspB/nVn7B04tPUXp6hwpAddb3BxP4kLHmKVc7DxHuGHulHFocTlBJAHenCzTURXQVo3YOefOpR1F0JN0jd3okpspWk/SrH0rGeCKhQBZdBIyQeKICHEFkoeJOHJ6JrSVJa8PbyD71bb4WusIv8AaXbBcn8T4YAQVnlbfkfyqmMW5LeZDacJ4pZZ77ctHXqPdoLqmX2znKfMeYoK7q2DL2P8S9oFq4M+o0a6tPzDGCh4gTkc9xS+q29NerKNQRbbc1ry60obkg9+PqFWMhy2p8VuQwsONODclQ8xW/pNQbQQx5nn9RT6RHwZ2rMZ4rKwd60IpPAclX3r3+VaurDLalkHA9K5xXfG8VXcbuP0qpYA7Z3HGZ33VgOK8r3afSrTk8PNeKUEAqPAxxW3A70mntqcir2fiSCcHzqrHAJnR2MxPbLgJa3geCFEAGl+fcGmW3MLYYWvA7mtoskmagZ45zSldhAG6HevniPSe9RXUk5SLgyhPYHODUpz6VF7tB+ZmqdVnCePyrupyUwJ2j7iTFYu4fhpQQc4xXdhexGEdzgVH35KWo6Skcg+Qp502pUhhbrgyM8UsjMzgGGZQq5j4gKABJzx2FcpMZL6Ow3DkGuqlJGBnBPlSCZNcanRWmkg+Ir6+OwxWg7AL7omoJPEcAMjBPOOa2214Rj0A9qzk0QSsbdRrU3p+4qSncRHXtH/AKTVZtHzFpvLaXAeQRnyzVheo11dsukbhIabDmU+EcnASFcZ/nVdIE+OxMaUCCUKOaxdaR6g/abGiUlDJXrJ1LCULScZTQz1DdlphrCFHB8hUk1HdZFz8JKB9ODk1Bb6S2wokE4I4rPIy0019ojciO9p5pF1aTjd9asVILd1LZuqkxlgpVjPPFJ23W75YPAKg3gEADv96hjrRYuCENDK08FYPFMcGVPGCIQGJ6W7qysq/jBIzRokeC9ZG1qUMBIOc9ziqrPonyJu7xVNpA4UmrC6Tt71w02gSXyolPOfIYqYwIJuTmCPqVdyt4oaSVYJAI7e9NvS6S5aNY2m5NYLrMtpw8+W4A/yJqW9QbIIra0MM7uME4qCaahyYUzxPFBKTuOOAParg4Eq43ZE+hnBUoDGM8EVVb4jtJSIHUGNcIQUxGuLIcc2Dgug4UT9xirM6flLnWK2yXf8x6K0tX3KBmoV1utKLhplh8o3LZdIH2UP+lat43VZmNQcW4lZ2IciMFBxW4gfixTSlLjrrjZPfITnzqWqTtQ6ngJGUgn0HnQ+k31uPcXEKV2OAry/KsjubxOIYPhjsE6XrybcfnCzEgxlBTSR/n+IdoSfYY3fkKtODgffmq4fC5c2XL/eWk/ieiJWPT6Vf9asY44GgdxxWvpzivMwtTlrTNv5Vqp5tHdaR7E03TJhdGeQn0pnkS0NJ3LUE+fNRtQB1BrUTJIqdHB/zk/pWUK7j1Lt8OWtkL3beCU4xmsoP8YIx/DGPvTJRiX7XtsPCWL2ZTY9ESGUOf13VPqGnT+8t3HW8iU0MNXvT0C5IPqpCltq/kpP6US+/wDvR9Mc15EQPEgfW6AJ3TydxnwlpX9ucH+tfOfWEEsXCSkcZChX061rbzctI3eNjcpcVZGPUDP9q+cPUKL4V3cPAyo+XvSt64t/eaenwayIJdOpU1d2zwEqyk1OIyEAggbkk45qCoBiahbTg5D2Me1ENDW1SQjA9fakdQeRHNJypxF7WSjbuI+1T/pNrr/Al6uT5St1uRDLYCT/ABg5FQGMpIK1Ff1dsetKA4qHtUnuTg4rPIy01SPbDLYr1G1IwiU7s+bVkqKfI1KtNXRcG+RNx2p3hJV3BNAvTd7bgxyAsMvb+SDjIol6S1Yh+XGDoDm55OFYz51oFMLE9+QYX9VwFX226ttaWkvMzrcvxW89xsUCPzqgFp1npezzILkLTZWtp1BDkl3lJBHP5V9ImmflNVxHGGA8mdDU2pO7jIwR/WvnPq6Ho7Sep7zAkQ578uHOebdYCsJQoLJwD5jtSlS5LKcwBYqwORH3rvrWZYdWNGDEhNpkxkPB1TQUrJ9/0p8+E3qFeLr1EkQp0nxYzsfelKUAJBBx5Ug6wastzdk0xd2LExJMiPtQqQc7OO1NPQbqnNd6o2mL8pDhxpBLRDLYCu2RzRdpag+2QkJd3PoBpZ4saihLBwC5tz9xiic4oodWQeSM0JbevwJkd0cbVpV/MUWZHC0rHYpNNaF/02ES1YAcGMN4gw9QNvQJzCHGXUkFKxkEYweDxVF/iN+HYdNHVXq0p/8A0Z50JUx/9Ak/TtPmgny8qvHqNCmo/itkhaTnI8qhfXqx/wCNekF4ilADvy5dQrHO5H1j+hqN7s/InUJGCJQOVLDNujOLQShJSSr0yKsd8OXVqLBjt2WS4lIKiWVE90ny+9dvhh6dWTqV07nsXKK2+sOLZXuHO0gFOD5EZoJdZOm186CalS2nxHbU+4pUKYODgc7T/wAw/nWc6M/I4mn6qD2MZcfqt0qt3UjTisIQiUBlp8DBQf8AbtVCtc6Xm6QvMiFNZLT7SiD6Hngj2q4Xw19YpOr9I+Fd8Ilx1lgrJ/GAAQceuK5/EZ0uhas0s9d4yUiaynehaRysf6TVVcIc/wBZQbj7f6SjkW4FD6cK86mbMI3SECpxIJHaoHebc9a5a23EKQtCsFKhgin7TVzc2pBUePImmbVONwlqXw21hCB03vr+mb41GeWRGUsZyeKvj0jvQmW1cYL3NhIW37Z718+Sw5OIcRwoeYNWo+FzVi3Zxt0pZ8ZLWRk9wDVNPb6dyky+rp3VNLPjzrMcZ96zyH9qzzx5d69WJ5UczjPdQ3EcU4PoA55r2EtC2UKQMJUM59aRajQXLHNSOCWyBSuAnbBjj0bT/SgA5swfiXH2TuOK2yK1rB/3kUeUnCRMQwoZBOfSksy9Mx2FKTlSu23GKXOR0Pd0g013S2pLC1pHbmlrPUAOIZAjcGd40wLiq+nk+lMynVsSVEAg544pxiHwWFdyMDANJpzyXCCkbVelKscgExlRgkCOca5tlgFw4Ukc02lz5hDix2JIGaa5TzjYAPZXatmn1ojEJ+o9/tVWuLYBnRWF5nNIC2FjaDjKe3nT7Y5AYiJQR9PemxhxtqIQRyOT96eLPDKY6FOZJxkJqUglhicsI24MXpR4y0rKfpHYHvWq46RJbeKgAnIIrv24pPPimUllKV7AHASR5in2X29ZMTU88RQD3HevQcCvM+1ZRpSNuqLY3dtO3GI6NyHGFj88ZBqqKbGuFELiyVODnJ7k1b2QN8V5J/iQofyNVj1F+43pTxgmsbXABgZsaA/csiMC8SpCiyUcDIGB3pov8N97JOR65qc6Ut7Mlkrxyc4I86jPURw2tpXhowCDkis4Dmax/MirJYbjKQh/YTxhPc+tKCiKiMH2UkgduKg1qdfuF02neG1HBAV3ot22wBm3JWEhagnPIyATTLDHcCh3dSFmYlyXt2fSRzk4FWB6cKbdsKAFAgDzPc0C7vBMd0AJwB+hOaK/Sd0JtobccAURn6j/AErgwZVxEPUx8RIrqT5g89qAttmzE3RZIVsUTjJqwPUtLbjRzyAc57/YUHXlsMvhSkJT3FQHxKkZxzL2aBkpl6I0+8CSlcBk8/8AkArTqHDMzR9wRjcUoDn6GmXoddkXnpVYHkLSsIbUySD22LIx+mKmF4a+ZtE9o/xMLH8q2j7qf5TAHtfPwZUDUjojR5C2xnucDscdhQDuMpx+8Kd2qJKvMcZ+1HiRJXJcd8RH7sEjJHp7VBLtZ2ESVrS2gKJzk/2rGU4yJ6F13iTT4dNRToWvoIbHhJdQtpYUPpUkjOKuHKcVtSsnJxVH9EXJVs1VanWhsKX0pGOO/H96tfqDWrNptwU6reoo4A7qIHlRVtVAQTErKizZEXX7VEO0MqXIeQgeuaDmq+prc7xUNyEx4qTguKV3of6yXqjX97WoufLxGzlplIOD/v8Ac1EdR9Pr94kVcqU4R4iWwEJwlGfIep96TawPxnEdqp2DOMyeqmIknxGGy80ey8HmspM30LlyWWnHr1MbWUj6EvFAA9MDisoez8w2/wD/AFhH+H29/O6c6SXAqKvGtk6zOk99zZDiQf8A7DVi6p58LF2D/SGxOlWVWPVrQ4P4W30lH6fWauJtIAHn271uaQn3CeVaaPI8Rhxv/Ugp/UGvm71UifL3V8ZBKVqTx7HFXa6s9QxZLc9bre5iW4kpddT/AAJ8wPeqV9QG/md6+cknOaDqLFdwF8TQ0yEAkwI3dZZvSF4x9QznzqeNL3J54UQP0qE6jA+abB4yMj8jUztwK2IwByVIBJNJ3+DHtKcFhF7b4Q4lJAO3tTg6EfKef0kKNN3gDcrPfPelylBcdSNhIIxWee5qgcSJammORnEuMOFtZVn8vSn/AEHr1y2z4yZCkqQHASVdu/OaifUKKWIrLiVYI5JzxUDGoXYicgkKAxWwg3JiYdjFLCZ9UIt3jrTpa6xwp1BUEYSrOUqQR388ZFUi+I/TunIXWrVr9xnPw35cpMtURDf1DegHIPmCQTXX4eOtN+uDrGm3ZpXGYJejrVytBByBnzAPaobr+2zNS66vNy1LqSOqat3BJ/ElI/CkAdgB2pBAVsKngQhXcosAkl1LcNMvdG7HMEORcY8R3wkBasKz25qE6E6jW+0a0s64WnYsUfMpR4qjuUATjINTmwwNMv8ARi8Q3pz86PDf8VZbTyO3ahjC1Lo+zz478eyyZSm3UrSp5zHY98VesAqygEy1mVKksBwJ9IYcjxmGl/6khQ/MeVF9D3iwIjw7LQk5/Kghpe4N3bT1umtJCEPMpUEjyBA4ou2h/wAXSkVec7AE/bBxVtExXcBB6wZIJ+ZpeG/HhuJPfBrDAavOj/BIB8RgoV+YxXUjxWV5+rIPFb6cGLOtv/QpSf0NNUjcx/IilnAH4lZvgnkqtszVNoXlK48r8P2Kkn/+EVPfjG061e+kUl5bQU7DkNPoUBynnB/kqh50U3aW+JLW9qSP3Tjzq8f+oLB//Kjb19Quf0xvrCG/EJiL4PnjB/tS6NnTsv5EIw/URvxKedCZqoTc+OklGXG3B5eRBo6aN1TJvkpux3LCm8FHPZeDVaumlyXEkSXiCnajt9jUvOvdl0dciuluUw5uSrPasK8OLNyz0de1q8HvxJR8VXRuCxa4t4tzCW3wvY5tH40kefvVVGGnLa5gnaQfOrW3Xq//AIytIt81tIJA3E9sjzFBrWejUqW49HSCk88VoU2BlwREnqZTu8zhpKa1JbAKsK8+aIuhdRO6Q1NFuLDhHhnCk+SknvQIiF60yONwGfWp7p6U5cED68EDjJpe+ojLKZo0uLF2NPo9pLU0bVFqalRlpWlSQcg9jinvB86ql8N+vlWC5KtE50/LyCPDUT2V6fnVq0OhxAUDkHsRXpPp+q9asBvuWeU1un/h7cAcGIb4Vfst8JGcpwftSmAvdBYJ/wBAFbSGw9HcbPZSSKQ6dUTbEIUcqQcGmM4vAPkf4MTHNf7RyrMZrK9BxTUHPB514ogJJV2xzXp5yfSuUwpTGcKjgbSRXG+0mdHYjHBkkPPIWNyQTj2FazXGlLCk4BrW3LHhuKVxn170mlJQkqUnGR71kknaJogCJpj/AI6wnOPL70siJDLKknk4pvwlbuT+tLpIDbBKFc47UEfMKR8T35dt0KWD+LnH5U6Wia5IaCR+vtUZjyFObcnAPH5VJtONlMZSu4BwKPScuMQNoAXmPAGBjOaTSZSY78dCskrJAI7dqU4x+dIbi0t96O2kAfUST6CtGwkLkRBQCeYuHI47DgVleIQAMA8DtWx70UdSs5SVbYzyu2EK/oarHqb94le3Cu/HrVkNQz2rXYrhKeUEttMLUST7VWqZKRIjlSVZI54rH1p5AE1tCOzCfo7QjCtAxZCED5hxlbilfxEnOMfpQF1c1/iBBKVYwTx6GrYdPyFaIsxyCDHGf1NVf1tpqXp3VV5YVlLKZLi0AcDaTuH9aFdUERGHmG0tm92RoFBb5MG9hLS8kK9O9HSzPFyzBJI8VKAnGaEE+BLduYlRE71oySBzUzsF3lNJy8OAACn1J8qo3IjiDBIiXUSnhJWCkEA8AUo0tdZMWawpDpwVYIx5UzaxvSWn1kEEnjaKWdNJbd8uRbU2C4D9GRwPeqAHEhIziEjXJbctKHlEhRT5+QoJz7hD8U85z5A8ijHrp4otDkZ1s4SkDIHKjVZ5jbjVwcJQvGTgEk4qyyjHb1L4/C6/Hd6UMNRydrEx9KwTnBJCv6Gi0QFJ2kZB4I9arz8GN0EvRl9j4KFMzUKKcf6kYz/KrDd+fTmtqjmsAzz9hw5P5lOdfyP2VdbkwyBvafWCE/wjdwP6UD5V2utxuy1JSpDAJABzn71ZHrLav2frG6JCPpccCwCO4IzmhFcoqWQ4WkpSVDGQO1YudpIM3QNyqY0xZTkZbDu7a8hSVAjvkGrMNwnbzGgvlYeKkJG5fITx5Dzqp06PIVIQQraPPJqyPSTU0WHosLnzEBbGclas8eVDsTd1LhivUm0WysRRhKcHupRP1H7mo11Bvlpt0dDalpLyeUhOCr8h5VAtR9bmrhcHYdvd8NoHHjev2FM91XAbszs2RIKpBG7c4oblfYUELt4xLrk8kx1ka61G85uiJQzHxhAc7keprKb7H1OtLNsZQvwkqA5CiM1lTmTcnzEHwfS1SdBdSbZnLzDUa6NJH+ppec//AIiri651WqzWpC4+PGlp3pc8kpIzn74IqlXwWyUNdWr7Y1Hc1dbVIjBOe5wCP71avUpN06a6dmHKlhhtCz/zBG0/zTWjuKhtvf8A9TBrUG0K0DuqpypIcUteVE5JJ5oOauRvDhHoaKd/USlYx+VDHUSPEC8ggUsk1yMDECWrGdqm3McgkZqTaZUH7THcUrkJ2mmfWbYaZIAzhea20W+pVtdSs/hXwKLaMpB0EC4j5kuCiW20nuTxTiyg7Dzjy5pEyoLZTsP1Ad6cUNFMZvOST3rLbubSyM6pYi+CPmTlgH6jQr13FhR1MOQB+4cT3z50XtSQ0O2xaFjd9XINDPXsQN2yPsZCG0EAEVp0McCZGpXkmJehtxNu6kWlSlYStfh/fNTfqL04lr6hXR4Ox47D58RKnV4NCjQkwwtZWp88eHIQR+tGfrjpa53PXMSZFbUph+On6ivCc12w4tBzjiCr5p5GcH/xHzpRpWAjTuqrVIvDD3js71JZ52DHJoTPRNE2/IXKmz1DjDY2jiif0Q0XJtuqJiJUiKhEqIpst+Jkk0PL3ozT9ous1qbqADw3lJ2NIyRz2oaEb2BMI4IRSFA77l6ei18h37pxZ34KFIjBoJSF9xijrpJfjaZlNjktLV+nBqrnwuXG2SOnLMW1vuSGIy1IK3Bg96s30+d8ZuewT3AOP5UDS5F22c1I3V7v2jxEGU+xBrpp47TNa/0u5/UVyhKwke1ZaleDepbfktAV+n/vWjUdrIZn2cgiVslxTYPjL27tiLlFQ4kjsSWyOf8A7KsH1JtwnaOuDBScLYUk490mgN10eRYfiW6e3RA5cwysdgR4mAP/AMjVkNRpEiyPIHdaePXtQkUAWp8S+TlDPnPp+OY92ejgZGFt5Hn3qF6/iz9NXpyWhK/Bd2qJx2yKMrlgVbeoElhxvARKIUQOMGunV7SLV8tjLERJcf8ADKfoHYg8f1NZqON3Im3au6sFex1AfbLzNuIQpCiD6iilpuemRFEaYdyjgc9+a46E6M3Nxppt/wD4dSvwqKd2fbj+tSCZoMWe7Ms3KbFt7zxSIy0rGHFbgNhHnhXHfjgniqMQM7YdFJUMxnmuvh9uLOn3bxCZ8UJTvU0nuU4zxQjXbpWmb03AdkJLm8IUtCv3QJCTjd7bsE+R4q32kPiIsV4TLsj0FbTVvHgS5Mp1DSGVAYUlwqI2kEHv6Uy6j0H026oSpS4EpiRJVILoRFK9wKkJSSFAgHO3dznOauCVBLdQGWLe2BLT2oW4xbeTI+tHO5J7EedWm6R9dG9QKhw31bnxtacHr7ihnC+EOdKfaTbJyV21SCtEhzGU/V2OOVHj0FTnSnws3PS9wjz277HW60oEtpbUAoZz3rtdViuLKQZXU30um1yMyyHbBB4pBbIvyrb47lTyv0Bpa0kpbQk4zgA1qhCkqX5jdkV6nZuKsexPL9ZAnQ4xmvP+8VlepPFGlZ4POm68uBUcoyQoDJpyA+rNJbg0hUZaiOQKDYCVOISvgyMQJaVtKRn2ro5DQtvO4+uKTW1KZL7gSjABKcU4mItoEclNZIztE0MgRjlDwiojjApEi8r8ZLazuBGKc7mztzkdxUQkfROQDxyaTuYryIwgBBkiSSUnHBB7VMdO8xFHnGcYqHtAJYCvbJp+sl0UkEY+kACnaHCsCYvapYYElH3pEh9P7UKSoFRb4Hpitk3JrbhRG49hTMiShm9BfqMc0/ZaPbj5iS1nnMkgJIFe49a0SrJBHArpn1pyBMi3U22Ku+hLtGSeS1uGPPBBH9Kp5Jl3C2LWjeVNd8+verddXLrJs3T+8PxWvFkKZLYI7JBwCr8gTVTJEpK4YKsLGO9Y+r/6n8pr6MZUiWy6OTzc+men5BTtV8vtI9SFEVA+uVrSm6Bwpx4zQUc+eOKmHQqQmR0wsyQMBpK2/wBFE/3rl1gtqHrbHllG5xAKOf1/rRbRu04PxFtMSl+D5lcbX8ta1upfSjcrnHp6VBdRXmTHvB+XwWcnsKdL9IkP39SN4QlGVFOP5VE7hcEM3dtC/qCfxY8qQHU2mJM2vsaRcWEPI547Yp56NrkRtR7UtfUlISAqkV1mIEZBj52kc5OBT70qfSjU8da8IU4cYI4qZgyMHMIWsmrhJmALbBYAHI5yaE2pLc01Ix4Q3c/SOBVj9Xshdu8XgJCQeP8Aeq66onR1yndriQRwea4BzLEgjmHL4QbihqbfbeAlAdabeAHmQSP71ZVaw2k5SVHuAO5qlvwu6maidSVRQUkyY6kpHuCMVdNSd3onIwSO/wD0rU0pJUqJh3qBZmVe66XZxnU8rxgjetI7H8AxwPvQduC3HIrm38QRwRmj38Qlug2S5RXRsSuW0VbVDK8jjJz5VX96WhxgqSRtzgnPf7VmFTuOZsVkNWCPiDCRfZ0aUttxtQAUQDiiJ0n09K1qmU0Xnm2gRlAVwPuaZrhEiugqLYznPrRQ6C+E2q5MNna7kKAAG0cdzUsYBZxRz3HJPQy0Qj4ryylfu4c1GtV6BtiR4TCwtQH4UkqP3JNEa8RZzm4LcUy2ruf4iKZU21mKhe3z5OeSTSmSeYwCOsQZ27QcZyMCUjOSPKsqWx07EqG8pwo8YrKtuPzK7RBz8P8AcTpH4kNPOLyjfO+XWO3CwUn+1XffiE9PLrCI+u23KS0B6JDqlJ/ksVRnqXb3un3xByHkgoRCvIW2ccbQ4FD+Rq/LKA+9reMDlD6Wbg3jzDjA5/VBp0HnHyDME8WAiV2vyMFzNDa/tjK9o5opagbG9zOc0Nr+yoKVntQE6E2m6gZ1uyTHeOOBzTToVwKW+2onAwRUt1dES7GdHmQahei1Kbu6kKITvR6elMMN1ZEUX23iECK34JKgQR6U9w1Ep253H0pjSlWMZ3I78etO0BaUtDar6h3JrIebyRFfY6ZEOQlQIc8sULNT2v5awupcfW+vOQD5UX57ZkLWs42bcVC9QwG3tOy/oysA84p2hsACIalASTAtZ1Bu6MrHBStJz9jVgOuEW5XG06VmwPmFNqZAWGScdu9V8ZSWZiQM+lWL1rMuEvoZZZdvW4XWVBKvDGTRrj71MSo91brI50r0zeYmvrVLebLbJWUrU455EemaSdROmYj6zu65N0iQmlPFwJUr6gDz2pp0vF1RMvtskNx7g9sfQonaQMZ5ojdUehWp9W63cmW6ElTLzKNzji8BKvPiqFwluSQITZvrICk8wk/CCmBa7bdrdEuaJ6w7vIQOE5q2/T5/ZdnEdvEaOPfFVC+HHpBfOll6nSrq7HQzJQkBCDnkVaLR99ixdSQUrkIT4ii0MnuSKTS1U1AYNnmFsRvRIIxCM0hLb7ifRZH881w3BnUUc9gtCk0quEOQ0+p+MgOg/jazg59qi72pGJN/hNhRS+he1bahhST9q07HFbAMPPEy1BcEiBT4yI5t960feUAhUeWU7h5dlD+aasBp27f4jtTLgIWhbYOR55FCL4x7Ym4dLxcEjLkKUy6M+QJ2n+tS/oBOE3p7a5Cj9amB5+gxVOtQR4MJgGnPkSuvxE6uHTfVdwUiEp1bqkrHHqPKhPJ6lXyZCalxmMHKSBjOc+X64orfGkUzbgXI7rSlpYyok88K/wCtCXp1Eam2NuVMd3MRkgqSBkFQPApJtiKWPia2mD32LXnuSPWXWe5aV0bFabwxcpDf75aSQsEjlKMHIA8zQg0T19u+lBd4zzUK6RLiwv8Adz4oleC+B+7dCVkjP8JPofakPUi4O3uct5KtrRB2b/IZ4/Xg1B7fFaafC3UJeASfLGTjyPem9KgFeWHJg/qDFbdlfQkpk67uevHnU3m4SHHNmIrbagEhzcMISn0KdyQTnsB9jj8O9jusWcxPtspL8eHu8VO3Y/HCu4eb/FsChwoZAJPbmqvOWaRHfWthl9bAAIV2IH3FHHp31Vi6R6hW+bOmPNAtMOruEdkB8L2fvELA/EgncFgjk/UO4NTVKzVkJK6Ngje8cz6WaIu67nAPjsfLy2wA4kABKxztUPL8+xqT4xjFAbpl1hsnUe7u6ZfnIi3mK1+0bVcIKwBJjdlKGONyD9LjZyMcjj8Jpt0x9AEW4BCJbaMqcbBCHBnGU+nlkHnn0pzRXFa1R+/n/vMvVV/qFgI4Hvms/iOeRWAgDJx+dJIc0yJUxpSdimFhP3BGc1ps+0gfMz4rrB5CsrKvJPQeKTyG/GbWkkY7V3pK8Cy2tSuaG4yJdZH4yPlpitoCQTS1cvxWiSex8qSJkIVKcSogHdxSMveHJKCo7CfKsfdgYmiFzOFznpUSgjgcg1CLzLSmYxjjnmppeA34e5I+omoJqprw2ytP48ZGPWktQMxmocGShMoJh5Sc4p1sU1BSAVfV2of2i4Ovw8KV9W3n70/6WfekyVApO1PnirUvuAlmUbTChHt0cR0jbuJGSrPNMr9tUzqCKBy0vJx+VLIl1EUJQsgJA7Gme5Xxbl9iLaP4ARj71pWNXtHzM5FcMfiTPsMDtXoHatGnPFaSvtuGcVtWpnI4iR/MSXiG3cLVMivJC2nWVpUk+eQaqzO0bGgIKNv0p/nVr3T+6czz9J/pQB1JHR9ZPqcfrWVrRggiauhPcJPRqD8joWGyCCnetSceXNOXUGEqbpt7GT4ZCv7Ug6ROJ/wey2nkocUDn71Jb80X7NMQAVFTZwB60wg3afH4ibHbfn8yj/UhKbRdkucoS4vCse9N7WnLbJSZalArWrHJ88VIutMNJlMqKAr6x37VAbncVCO0wxuLvG1CBwPessdTeJwTFE0MF0thGSBwT5YpVpyUiLfITi3CMOAk/eoVdlXFhxCHGyjcfxH3rrETIaltOLCilKgdue+KmIMtzLP9Qrwn/B6lMOZcLeRjywKqlEmFXjmWvCiSrKh3yasNChO6g0q2pSllIA/doHAHuaF+sLCxHb3NsgKz9RPc4rqnxLsvGYx9Kb2NIdRbPd2fEeDEgFbbfdaTwUj9a+h1s1M7frcl+Db32ioDBlp8MA/buf5V87tITI8PUtsddQAGpTa1AjsN1fQdvWEGJZmXmynOwbQVcUVHCMcttEy769x9olZetEC9QNfLlajuImtSEbWAEBCG0g8ISkdhzQomKSp57wVDZkhBOAAKKvxBPzdcXaK4lO2HHCvqCtuTQjasyILDgD6FKB5IO4n2oQIbmaCBlQLiNz6wcnIx61L+jt1Yt+qlBboSXGyMFWAefOoHMfR4i0pUMgZHFRmTqFdrvER5pzatLie3bvzVtpYYlCwQ5lw58syXV8lQJ49KbTGUXvPBHbFIdOXhMu1R5C17lLQCfel6LgPHH0qSPKs7b4jAOeYO763JYushDawlIV2xWU8X5Sv2m6RtweeRWV3Bh8CP3xeaPe19r3TFtsNmc/xK804Hi4oNoUgctkq7Hsvny7Udenk1dxdsDzqdjly022h4E5w6y5sUP/yV+lDf4kdQudP+qOk9TlsusNRXMgDGdijlP/5Zpy+HPU6tS6A0JdCo7kzrhBcB7jeVLSD+gpwMy3kN1medtUemjiRHqfFe0pf5EB3wZW394gsrwdh7ZHkaFl6vsU7gtLjJI53I4oi/EZ0+gTOok6ap19l51psktOEY4oD3mx3e2IUYF2XIQOzUobq4F2kj4mirtsBIiHUM6IoKSp9ASeM0PwwLdqhopXllR4UDT7drlLUwpu52ph0HutrINQ1c5lqc06htaUIUMJUe1MgcYgGcFgcQnNSQyjH4gfKnCK6FkJOBnyFMzTokIbWk4KgDjyp4t2wrSRwRxWUwxNxDmOB8VaEtt+uCfaoveVpjxZbCyMEHk+tS5uOXEuKK9oSchXrQ26kzV2t9spb8RLh7ii0cmC1B2qTBPMZLMvdjH1mrB9KNex2tNsWOY3lAXuBUMjFCiLpo3QB1f0JX9X2ohWDpfev2C3forK1WRtWxT6RkJOcZPtnjPai6hlZMGJ6ZWRs47h9b1tbbbHT9TaMYAS2mlX/iUw44gNh5wqGMjyFDKBp9v/BJuSN6p6Hdu0+gVg/2p2iQ1RIaHn3UMfTk5Neeesjo5m8Bk4Ikod1JcJk5ZbwhjyKjzXrT0tW9Uh4uL7oIONv51ApHUKBDk+Ax4s10dwwkqx+lIx1TkPoUGIC15OAT6VwU2HoTm+rruWi0r8Qtzgt2m3TbOue2jDUiahfZPbdg9z2qeT9TWG83MScoQ6E4DvmfzqmqNe3+U22iNESwnur3pQ7qW8FClPykxknv9WOPtTyX3rhHORM9tJSSWTiWH+JOdJPR+chsoksr2JUQeQncDkfpVZrP8Tt76V6OFrYYbkIQgBlalEFHP8xTnd+rLrljNsdkqmN4xhRyB/0oFdSWPmbH4qQARkj9a0qz6jAtEXqFdZAjxB1hM6g2m7z7rJclSnFuLOTxzzge1PlpCbVou325KVNfOqU44M84IOf5CoF0YcKo1zj91bdwB+1TLUVyTCui2S5u+SZCM+WcDP8AL+9B1K4Ppr+81vpgUL6x7xiQq/W+TqLVgtsMqcUhKQrHZGe4/TFEqydD5DUNuMylLshw/Ws9kj1zWvwx6fOpLvdZzqAoh0DcoZPYVayPZflQMgIHrjFUsudGFa+I3VVUym5xkt/iB6x9D41tt6mpCxIKk4V9ICSaEXVLo8/At6ZcBta5tvIQXUd3GM/u1H0Ug/Tn0Kf9PNyFxEE4LgH3qPXe1RXEOpLzaStJSrJA3D0/79K5XZZuyJ1q6rF2kYlC2dVTtMagt15s8lVnnRnkyklnKUxHhwvHf6FEBWDxhSkkYFXy0/8AE2jqR0fN3SpNqvUFJE6KwsF0NhJ3Psf6ig7VhH8SDg5qrvXPpu5Ywu72lCm3EqyoNDy75x5j+VAaDqCdBkGRGeMZ/wCpJDX0pwcggDsO5/WtIr6yZXiYFqLp7cWcifR/pP8AHjpm/XW3WPVARapj+1kXFs/8IXMkA5PKUq+k89t2D2q0LDW26uSAoLbeZTsIIIVg+v2PBr4bOLWsFQTu4xgjgD0wfKvo58A2ute3bSr1m1Japr2l4qEptF1l48RoHgskE71N/wCleMJPGcYp6o7dqsc4mTYA2WUS3XYk+1Zz51mc8+tZWlEfEykT7i1pKSnilp4FeY5zVGXcJdWxB1dI0hu8NKQtSEHvTopKWkblcqAFb3s5uiGlfSfKuj8RSElRbJGO5FYWwgtiae7IEabg8l1KgEjgdqHWrrmhpW1Q5T5VNX5jbklzZyAPL1oc62Wh6b+HgDnFLXEYjSCcNJXVMiStC8DngZ70VNMKSlextOST5CgJa3tl1Z8MlGVYo86ClNxMKcOVK7ZoWnO2wLK2cKY7XeK+g7lJCRnvUcS6qPeWlr5STRAuzzMpjaBwOc1B5zKP2iyAQCTWjYoU8GAqYleYRLXMElkAeQpbTTYkbEHn+HtTxgVr0klBMyzAbE0JwCT2wc0B9WLbcS+QoJGVc/nR5IBBB7Hg1X3Vlu8Nc1IOUhatpB8s0jreCsd0XZkx6B3ESLHcGFLypuRnB8gaJr6kIYc3427Tmqr9NdXz9OanlIjpLjb+C4jPAx2NGeVq6a9GWssk8cDPAoNeqWtNkvbpmazdAX1bhtqWtawNraidtMelrZbrlCS+gI8QHyAyBT91Re+atMoFSS4rI4780I9BSp0ND7YdKUJVtAHNKdrNUHaQJJtXQGnlkFtCADwVetQKdMbhrWMpVjjI9afNQy5r6XQrKSDt3E9/tUXNpU+hTjzizzkjGBVl47lXyehLG9MpjU7RqNquMYxnvUD1i2GpbgCUqQCfLvTr0XmeFY1xdw+gKSABnJrTVqdq3dw4xkA96ocBp1clYKiEomlxIAWlWe3bFWitT7OpdJwHG1IKyhKsZ7cDuKqzcH/AkLyOByRjgD0ou9GNQSLhbnY6nMNNnCUgeX3rlgyMygGDJjqjS63YCi9scG3CR71V7WMr/Dt1lMh7cAf4RkCrUXK7LdQ7GWMnsDQA17plmZcSvYO5JSTjPua7WcSNllgjtl/clXAICFbc4znypfe7Y26Er2lKgQRjv3p5RZokCUkoGVd8gYApNcilRXgZUD29aZ3ZPEXC4GGhw6fgSdPwUHJASAeanS2mWoySkhLifPPNCrphdPFsKMqG5HG0VJf2m4qT9Wdo7DPFIEEPGVPHE1vqC5cFKAUoEDmsrpIeMhzf7YrKpzGg0Jfxu2sSOn9nnYJMeYtkqHo42f7pqDfBtdwvpDcWCrK7PfY8kDzCVFKVfyJo2fFPaU3boleyE5XEWzJT7YWAf5Gqz/BrNCn+o1jz9b1u+ZQny3IJI/tWpqV22meYH/TA+Mw1/EDbCvUzrmD9TSCPyyKrtfoy078dqtJ1kQm4RLTOQciRFScj7A/3qvV/hcrGM+9AzlpqV5NYgcvoV9eRk0O72AX0A4HHP60YL/bcbyAO1CvVEbwnEnHOSKYUgwFwIXMmFpxItrLiDtQEinqMQ1tKjnPFMGj3hIsjaVDGxRGR51I2m8gnbjHIxWXZwTNqrlQf2jm4k/KFKSfq5qGdQLet+LGeStKUII3bx5VOmlgNpChkY5UBTDqZDE2Cpt9WxCkEc1yk4aWvXKyNWltqTCUELGCnbuHYUUtHdX4mieis/Sstvxip1zY6OQEKOf5HP60CJLqbYylqLIKm8844psuTj7kRSCtRQrkg+tMtVv7iHqBR1zCLL6rvFrw7a0Qyo7vq7Z9aZXNUTrw4VTJC9v8AoJwKZdAWC7aslmDAjBakDcpSuABT4qE3FeWzIT++Qdqk+hHBoLIiHA8QwdrMMT3DT8NN4sVmvk1dzab3LSAhakZPbypbrqyMP6om3SKwYVvkvoSgLbKArJAKgcYpr+G9UVWt2477KHApKSncPf8A61dPqvpSLcumV7jpitKWiEtaBtBIUBkEenallpe7cVPXM7dqF05GfMqpr3RrOkLJDmQ3/GW5wvcexqvN8ucx6+FDr6inPbPFW11nZI8ro9BmMblrDKF71HJPH/WqjalaLd0QscZ4Jp7Tovp5Aidlzu4yYsaRuAAyfWk2roSndMvA/wAB/linSyOgBSVgH3Ndb1E+YtEtvvkA4rgba8aZNyH9oPeissNXqS2QdziEBI8iN2CD+tKtbXbfqK6qB2NuvEBOc8FeMfypu6YMKi6yQlAPdSSccYrnr4Fu5OLT2U4CftmiuA138pKGZNLmG34aIhZ0pdpStQiztJeUV7QlJHuVKozaP1BHvEpJh6qXem2lBsgutuJz7kdqrf8ADxo+FrCe8ZK1LEZWTGUApCkqBGSk8HPI5o/dOOhFu0ddfmbe24y3vLhW44SpR7bcdsAdhjisrUBd7e7mb2nz6KkgYx88yc6vlORmwyFlou4SV+eD3oD6pk9OrBd0NXa4znri9+A7nFBXOOCOO4Iqw2sbYmdFYU5wUd1A0Lrh0kt94dtzr8CPJRAKvlFYP7rcdxAGf9WT+dRF9MhnJx+Ib76wExn8xlssOx6hszrNqmOTY7iDhLjpWBxjz5Bqp2oNGP27XM61EbEodO0n/SeRV9LZp636Vt6m2WmWlYJJSgD8qrlqPTTepepN4ug+mJDKVOEfhBA7qV5Din6LMRPVaYXBc8Yg90BqLSGgbgqZe7R+2rqy4PDbeG5DX2QeD9zX0g6J9SbF1Q0pAvsBwtZT4Qkoa2OIKOChafMDt/Svk7qO4ovN8mzWE7GXXSWx57fL+lXP+Ba4N2uyS4jcxTzEwfNlsqwmO4nhzP8ApBG0nPFNuRWFcmYqg6gtUgGBmfQNKwtII5z5+te7sZ+9BDUPxH2bRyDboKBepyCUDaststK8kFRGSCQcEZHFIukvxITOo/UB6xu2+C1CVH8dl5pwhY5SCk7j9RGSOPTPtTY+oUZC7uYqfo2sWo3bMKIfCfWtVuoQtCFd1HAAqI3Lqfb7St1qUy6l9tRQtAHYimOydT2tUavhRGkeEwM4B7lRo7amsYCnmZQofG49SbTbSiRfIclXISlSSn1OKdVIStJCgCPKvFtha21EcpOcflWyf6UZawN35lCTIS3pNl+ZNeKiN6+EelCrWcVqJdpMdSwpSDnIPlR6mW1bjxW054QUnBA9fWq96+gPQNRS0POFThPKu5rB1aeljiaunYue5BGnjHuQc7pQonjyFG7pzNZuzraVKBIA4oEXVwxHFrBxkVK+jeo1N3zBXxikwMMrnxD2ZxiWietra2sAYIodXsJh3ZpS+NrmPyqYnUyGoyVq7hOc0OdQX1q8XAtNq+oKySPKte96yoKRShHyc9Qm2iU2G0rSRyMU5OzmI6CpboSPMZ5obsXpVsjAlXHvUT1L1EeVlDasD1zXBqjWuB3IdKXOYSdU62bhRVNxyQ64ClODk/eh5cU+Nb1KX3UCT6k1AZGrHXZKRvJBP1K9aepWr2GrV9Shux2NKF2tbLx6ukVDicNIQW279JcKAVADH96mt0u7yWHmWm9uE98ZoU6U1s0q+kkjaoEcCi/FvcJ9lRJSMo7EUrYdku/zK8au1B4rsph1XhkKyE4wTTFZZCWdq0KJIUeE+Z96eesNlErUDkmIo7CMqSkcVFtPAsu+GpeDkcYptCCgxLZJYR8u8hDrO7Z3yCah1yltssbMKUhR8jxRHuCmf2YtKU8kEAY7epoYTYvzCXUAEoGQnPaohzLWfEkfTDVCLC/IBWQ0r8JJ7Gu2reo0V+atKTuGcZzUItcAOyflAoIVgncT50sk6CMF7dI3OIUM5x3P3ohC5yYAFsYE8nXmNJbU5u25zhI8z709dKddot12VCQrlzgDPc1E9SaaTDZHhqCU45IpHpG0Ih36M8XE7wRkioQCpE4S2RiWWl3FRC3SMp2k5oHa66goQp5lG7eFEEAcfrReulyZTpxwIxu8M7R+VVL1E885cX1PE7isnHkBVKVDdyWPsXAktt0sS20uqc+pRzj+L/2rLsQ02XUDJx51CYL7qHmwh1QCjjFS9wH5JKVHcrHGTRyMGBV9w5kk6RXaS/IkMLylAPANFJ5xTTZJ/PFCTpW+6q+PoUjCED6iDRYnOBVuWQecedLWkboav7Y4RHUOR0K3JTx2zWVGYE3w44SVnIPrWUPbCerLs9WLUm99M9UQgnJctz20e4TuH9Kob8I92Taev7EVZw3cGHoq0q7HKSQP5V9FpzAmQpMc8h5pbf8A9ySP718vtCSl6N+Ie0LUrZ8tdktK8uCsoxWrqx7s/iYCdS7l9YM7p5Z9+d8TfGV6goJR/wDyihLc7XvQ59I4ye1HW5QwLHf4gGfl7i46j/yLwsf/AMRoWXGFw55KrKB5mrQfZiBDUsNKCsbRig3reN4YCgk4CqPmqYykLWFe9BvW8bdGd2gcc9qaQ8zt67kMRaEcBt7rSldl8c1LmlYSDn6e1QbQmFKfRnkYOKnKG0sgk8nyFI3/AHmaGlO6sR1hAPNYSogE55NM+rre7LtjX0fQVFG4U4W5WGioJ5NGPph0/t2utGXMzMrejLOzHBTxS6WbGzGLwDWcypitOFp7w/U+Yo09Avh/jdTrxJNzSpu1MI+rYcFavT7VHLvppbd4lMoSVGOsp98CrC/CvJegPSopQoBago+nvTLWEkCIGsKpI8SaaI+GzSPT5h429txclSVJU64slW0nt9qph1PsybJra7xkAp8OSvv6ZzX02eiNtqUoJxuR2r54fEs0IfUu5I8MoKlBee2eKu1ewjjuBqcsMExJ0SuZtuv7Y4pX4lbf6Y/pX0lkATLK6l1sFLzJSpHqCMY/MV8tdEyzB1Da5IOPDfSf519R7BJTPsEF7O5LrCD/APjTGj5sdfkQOu+xf3lbbeqPP6XT4LZU41EU6wgHuAkkAH9KqVrOEhYD7atqgeyqtBYpabRftcWBZwGLg8pCD/pUd3/81Vn6oJ8GQ4loFACyMfnQtNnbiDByoaNFtdKynHGcVJG2drCkK+rejAFRizLC/AOc5FShKVfMNFSiRnAFCs4bM1U5Wa6W0kmEpexkJeWSorI5x3J/ShHq9HzZfx/9JRH/AKVmrIx31wLe9IDJ2eEoBZHBURgVWy6Tkou8fckFoyXmlD2UTxS+nObSc5xH7kA04U8AmGD4O3YZuMlxawmU3uaWCe6CQpJP2INWycugalIbQoIbB+pZ4CRXzt6eapd6ca9Q6HCGC54T2OxTnhVXLHUqNboiHXGJM2O6gLK4rJdOD7DyrmsQh8joxjRYupC+V4MnOttR2yDZW1PTWgh3Gx0K459PemDRsx121urcd8RCXFBtz/WnPB/OhVfOo0G6pLrVhuskBZ/cLjYKcHvTnZupa5RVG/Zsu3oQBgSUJTg+nBP86ofU2gmagoVFx8yQdQL98tFdIVggEd6pXr3Vdycv91hMzn24Tqh4rCFlKXDx+LHce1H3qdrxmHHkHdvKUEnCuKqpNlqmy3ZDn+Y4oqPtmtLRpnLMJ5/6vbt21KZzQeCO49KPHRPW83RWmX4MKQDGubinJzacZcAG0JJIyAB5dj3xQISM+3vUz0JdksuNwzuDilkI54OR+H+RpjVobKioiP0a2ujVBrevzD/fr+xHsKJcdba3FjwkNFWFtAHJIHqkjnPqPWlvQfT2pdQaxhXKztJS3Fk/XIkOhlpORlQCiQFEEA7RnnyposmlI0dj5i6sqlL4wwrIQjPBJI7n/pT3888+6lERKozCDuaQ0s7W8fTuAzkeWaR0mhyPcZ6v6n9ZySlPPiXM6laEuV4ufz8KJ8wh1tPjhsglCwOePTjvUL0pbP2HqaFJdQpvw3ASFDBxSj4aNYuyWn7Tcpsl+VHzsVJOfESrnAPckEZ59e9ErX2knJ7ybvEOXG0gPNf6kj+IfatS3TlcmueFW0j9KzqSU6gibmkpcyXVY+1Of8VDJ+MuO2w6gFKkkcE0RYDniw2V5zlIyaZ09rOSrTPvrCAETqpYBSKBvVFLQush5Z+sgjn2os6iuYtzkRJOPF3fyoX9RI7M9BfOCv2pH6hZv9vwY3pEwcwC6geCluEHORxTDpXUL9kvKHEk43c1Jr5Gb3eW7OKi/wCzVGcNg4z3FZ4I24MeYZMsLG1eu4WgKByrb6+1Ri2yVN3IOFZKiTnJrlZEfL2gBatv0+XftTA5IfbnnY5uGfKqUtu4MMoAEm991AUR+VY9s1A73ew6OGwTjnnNN+onJ8jakLVnPcVrChLUztWkqUe6jzTB+4SwOAZ5FuKUoCVHCzwaWKjfORVHxM02XC0uJWPCzkn0rpb3FR0FtavYA12UU+4xvhpTZboy4s4SleSanki5Klwm1x1k8ckGh1eZKSs4GRmpbptl6bak+DyrHAoNoGMmWcZ9sSplsSA6mWsqUfU1AnrswzdVobwrnJCefOnvV9puUWUAlKk7j3FQP5eTEu+0jBX330esDEpkgAYk9ueqmWLSogfVgjaPKhHJ1Yv5pwtcgn86nb0ZKo6w/lIUDwPOoGvT6W5xCeArJGTjFETb5lbdxIxE1p1GsagZdUVBO7J9TRbuF0NzaaKjwcHcpQ449KB1xjCDc0JPKc96LVhnsKs6NuxLm3AKRlQ96taBwRK0sclWjJqWR8whLSSpQT5BO0H71H410/Z85sKPKTxjv+dO2qY6mlJlHepAPJcVj+VD6/Xht18LbHPt3rqrkStjbYbkXxy6QEhoqUkJ5oPatBVcF4SEkfnU+6fOqk2pK1A4wOBzTHq+3qeuxDTKckHJI4HvUXCnAgzlhmDjYtx9CUrKcnyqU+C5C8NTy9xwOVc/lUflxX4DyntqvDSe+O1KWL0Lk0srKgUDjPGaMRuGRAKQpwe5NNGX/wDZuoER0tgKf+nOOaMV7hOs2wbSVhScmqzadvIi6jivEEYcAyOT3q3bCWrlYWXANwUjtjg0pcu0gxqhtwIggbuixvBByFEd6ym7UDAiXeQ2FFI3ZxntWUUKMQJHM+oYOFAjuDmvl119hnSXXq9FAKC1cFPII/8APuBr6inPlya+dfxw2f8AZ3WORJSMJktNPZ9ykA/zFaGqHUyk8y5Ntm/thuY4MFufbI8xJHmdpB/tQ+mM4eVkA54Ip+6E3A33p7omaTuL1qXEX90Hj+le3i0OR3nNzS0jcQFFJAPNYYUkZmpQwBwYENawv+IdwMDyoJawiFTLyQDyDmrJawthLiiQcUCNbxPDdcHbvR6yI0/IMFWiyprUDbYJwvgiiJMKmlHackdsUPdP/wDB6maCuPqNEIutuSPrI2nOB5k0HUj3iH0J/SxFtklB4Fsp+tNWA+HCWC/eIJIy42lYA7HuDVZ7HIdXcFIShWMnIo+dBnlRtZtpJIDzKkCs5/aRH7BuQxq1Zpw27WdydDZ2KJyR25qV9KLm5Zb9HI3BtYwobcCnXqK0mPepSdp3OoyCB51HbXIXHaZU2MPJ78UXBbn4i4wyYPmWhZuwfX/qCuxx2qoXxp6cjs6htlwaQAp9spWfUjtVoNCTlXGxsOvD68Y7UCvjMiD9kW2QU5IcKc/cU9uLKGMygAHIEqRallh9pec7VpV+hFfUTpZNRP0FZnUncPACf5V8u4aN547819FvhpvBu3TaCD3ZATRNKcalfzkS+rGac/Er71CbkQPiJ1FGYBAmMNvDHmduD/Sg71TtjrDslLoO8K8x5HmrR9U9NCP1+sNwKMolxlNKPqQf/wDqhN8R2nvk7m4pKcJcZB49RxXKeHKxVfslfbIrYwjHcGp5p+KLxIYZW6llsKSsvK/CAO+T9qH1mS4p1bLf4iraPzNF7S8dubFkOPleElGXEJSEqAP1lXp2GAPSlNU2ybmiU2gBRDovS1v0/wBE5t3vAaQooShsEdt6hgD1POK+deoniqSVE4JcK8ehyTVmupnVmbqqIixJfUm2QGwG0J4yoJ4Ur3JI+1VYuz6ZDrqxykLKB7gVfRAEniE1qNVWFY8ma6icEhMaUPxbfDX7kcZoodGOqUiM61Z5rxUz2b8Q9vahnBgv3ZbcVhlUh0rIS2gZJyAalkjoxe0w0vQo7q5YCSGykoWDjOBnvxWhYiWJ6bRfSfxC2etSpI8y0jnys+M0tV5dioPdlChkfnjtUL1JItFlYUlMxDbSSVFZXkr9z6mhPpjR+vru/GauDrlqgZO9+TjxAkd9qByVY9eKlMuy6bYlJhsRV3OYAE7itUhzdyckfhSPcZPPtSCabbwTmenGqtvXdtK/vBdrC5K1EJLjG4RAo7N3d0jz+wqAqGRRl1JGjxoLrgKS46C3sjfUlAx+BHqfU+VB7A9P1rWrAAwJ47XoVsBY5zNNxwAKnnSy2SZ2oor0eK7JDIU654TBdDYGMqUR+ED/AFHtUFQgqUgAAk+VFHpVcLcmXGgPImW1TzqiubCllK5JxhLexX07UnuRg/Uee1ctyF4itAy4hxVIW/CHJLZSOMYAJPP5mvXPBiQ/m0PJSOdyU/VtBOCAMcev5VwYKlwxt/eArDaWs5AHqP8Avyrq7BeS4yy5IaZbQCo7ASVYPIHl2zXKTgiP2Ankx507r9/SVyediPuoX4YbbUlR2g48+OQMHjyqyXSbr+mdAai6iWPF8XaJoBBVu5TuSMkYwRu7VTOXcv2beUslxam1OF1PiJ/hPn+mBUhauSoBwwJTa2ylaPpCFFJHcAntkngntWp937zOZQ+cz6CXy3NSoBmxSCCkOfQeFD/UK6WKfmOEFRUKD/w39WIV0tLdinywzLQQiMwsElzk55HGTxxnFFN9tFnuxbSkoZcAWjnPfuKUsX03Fgi2CQUaM/UJ9S5cRSiQhskAfehrq6+sNsOIKzgDATnzqb9VJ6Y9sQ8OFBXegNcbibi4refoBPFYuoO6xpo0DCCRa+zVCQClWE5zSqxTGlqSVc+dNGonE+MG0c0hVcBb0hWcEDtQyu5MCWB2sSZNLvqF5toNNKKVL4wKctKwJMgFboPPYkc1Cbbck3NTZ27iDk0U9MuktJTsIV359KEB6ZAjCYPIipzTofzkYHqaSSbWIwOAPTNS1DiQ0RjJpDLQhbCtwqxYgw+MyKFlCSSe+KhepGlJkAs5Tz5VPJUclClJGKidx2Nv5cHnRgeYMr4kMlMvKQrcDmin0nQhFvSHuVY5BPaonMDa0EoIyBmpnoOGlUIK3bVYodx3LxIwxHXXLbSYgUlIURzkd6AesLgiLcW3doTzyCMmjprCW3b7epx1QKAO55FV+17PYnMB1o5Gc4HnU0xOMmUJyvcbXr5IuTm0BZBSD6YFMV2uimkKCTtI8sc4pZaXDHT4rrStq+/P6Cmi9OF+S4TtSlXp5U+BzBMTtzI3PluTHQtxXbsKl1tuTrNpSUKOcdk1FZMAg535HoKf7QnfD2DOMURgCIsnDRxXJXcowDh4HfPNQi8Q0pkFDadxHepKw6GHCFHCfQmmiepLcpSglSkj8qiS9nI5ha6ZPIkaXRhshSMDO3gU1apv7cCWW0sgunuTSPpxqlENh2IpJ5ztAPA+9Nmtp6Hprb7ZG8DBJ7CghWDHMvvG3gyNakuq3GlJ8LcHvM1GbWlDMpbbqQkKHanmbcx4DhUNyvLIqNOyC+ovJTtwe3lTS9RKxsnMd97MWQy+kHDbic+mAauw5dbXcenkeVDcYWtDAOyMeE8eePOqIfNb0qCiOOeKs50Oc/aHTG4NoV+DKSPfFUtr3cy9LkNj5kCuM752c87nGVEd6yua4CkuuD/mPlWVYATpPM+qnp6VTD4+9P77hZbklP8AmRFNlWPNCv8AZVXQKRtxVc/jcsn7R6eW2YlPMaSpsn2Wg/3FOakZryPEza/uiH4Nrr+0Oj1oBVvVbrm4yeewV/71YLVgbXZXm1tBxa/pbTjncfSql/Anc9+lNXWwqO+O8zLQnP5E/wAquUUpWN20EHkZGfzpTToGDoJYnbgmQ+0dObd8rm5R0y31jlK+yR/vVL+s1hTZdVXOAgfQy+tCQT/D5f1FfQLAINU7+KWziLruY8AAJDaHgfywf5g13UUrUqlY1RaXcgynt5Wq33vxACClQNEWxuQp7EOS6yrxm/qBHY1B9bNBE5Kj/EmpDoSQl22tBRUQkYzWfqBlA00tGxW1lkmRcHotzUpiGhJUcbsdxRE6d3h6HrSzvY2kvBKh5c8VCYzfivJUfoAPnUktL5iT4y/4m3UrBHsRWQ5GRNwDK4h46oshE+O6QAVjniom6lLLoUkJ+pIqd62SmXEt768KSpAOT9qiEBTDzykLAIQrjJplOZnJ1DX03G7TTKloAVjtUD+K6ytXHpe/L8IKcirS4nj8v70RdDzGk2xLIwOB2pB1mtbd26eXVlYBT4Cjg+wzWoig6fcPExmP6s+bkYYd4GMeVXu+EZ/f07bGcnepJ/I1R9tsfOuDaO/arkfB3OK9PT4hHLT5IB9CM0tWcais/n/aaF65oaT3rNaAq4aZugHMaZ4aleyk/wDShf8AEppovWyNNQkFO1SOPfkUduqUH5zRspaU/VHcQ+D3P0qFRjXOnmtW6GbQQPEKErbKhgbtvAP37Ue39PUv/IzJpJK4/M+fmhrCu46lfZKNqEk73VK2+H55GPPjNTDV2ombOw3AhJ8GJFTsQgkArUO6lY9O5+9SvUbUPphYJbWGhOkrLaHNoB3HnjjgBIySe/aq8TZ0m9XNchYUiEhJCSoHJSe2fcnNY7H+JuLeBPc6ZRotOB2xia/XtdustwkqOX5R2hR77lf7D+tDc8Q8fZVPWt7oqZMQwle5DWVK9Nx/7FMiv/2IPYqyf51taevYufmec1l3q2keBJ90YcaZ1U0VuMtqOSkuqCcDBBIz3PtVinLpNDQdZQwjDbSgn6Nyz+EDIGATjhXYA4BqnkVlUmS0htexSUk5BwR9qJ+lo9zheAlyY+QFpQ14ifFAUBkbc8cA+fbmqX1nO4Gb30nVlU9HZx8wiXqdJdblsSrgdgUEpZaARyAScBWcpTgEkEjd39KjMy7K+XWYreyIQl5K3AUheOxOPqVnOdvHGKXRrS280F/tItkBe0tIQFbs4ISrG4A9yR/Oks2321TuHDJujq2wR4yiQsDJJKE4B86Eh8GbVysV4GJFL3c23UutMrVJkJQQVAYxxyDj/LHsOTQmTx7fejPqKcqDEU3Ebj2llxvLXZKiSMAcDHbI9RQYJGRxgA9q0auFnifqYw65nZH0pI7biAc/0omdGdOW7V9+Yis3Ni1XNG5Yh3JtTseY2BuUEKSMpWMZCVd8cKB4I/tV1ds011TSWnG1oWw60+gLQttXBBB8+xBHKSAQQRXKHOegymX47zkeQ04HEPNLKVoUDwoKHII9ajqWUgGZ1TbGDS1+5Frny44C0No/jdSSSnyyPXkCt5MB19plYkFUgYSB2Snzzz5Y8qhuhuo3+KpCFXBpLl1Q1sddCAgOYwN+E8ZIAyexwOKnT8xUmOlJSksj6z9QBB8uaFSMYDdzTc7xuHUjV1hCK4HCyQ4SraVAFO7AIHftS6FJBLXzBSW1p4AG7jzT9+a5SFlxQaW0EtOOAJW4cgg9iPQ/70keeeiompSktnhYJORx3x+la+cAGZ5hE6c3qRpO+x34qnpSnF+CYiRtKgQQMq7DHfnzAOeKu9JCb/YIz6Vnx20JeKFKBVkjJCsef24PlXzw0/fnFPfMvPuLbaBWA3gFPfPPmOcYq4HRPqczItMWPIZ+WjgMxvGJUUKdKTjv+HPH5+lctGefEA+TyO536lp8e04OTjnB8qDxhJUFpx9eCaMfWpssKWlnKiQF49jQigSArIUDk5715fUDbYRNSjDKDIFdrc4icvCSqme7wlut8cYoqzLaha/EIyCOfaotOtu+ScJ4z6V1X28GGanIzG3p1CU3LWt4Yx24orW94Kew2nGB39aiGm4AXJUhOc+lEG3W4x07lA58s0q7EtmWrG1cRfEB4Kxwa7S2W/D4HnXjH7xP2rg+6UnaeasTLRku/wBCMNp4/pUC1MUo5PfNE16AZQIAy4aGvUK2O29WXDtRnjNFQ+7mdJAWM6ZbQbwk0vhakehxdjWQR6VC3pxZHB3DyxThBmIXHJPJ9M0yyeIJmyI+XG7v32F4EhwpSrjGahmt9Ootti8RlztzjOadXi+lguBACUnOc1F9X3x6TZlN5JA71xFA4EXQjaciQ1m9LdjBnBHlkmuDj4cSU7c++abY8srQQnhX9a6lQJSpeSrPkcYpvEW35E4uurZyknIPkDSqz3P5dYz5+avOuEpsoOQkY9aSokBTnI+ocdqv4lM4OYvvFwCljafT8PFetyGJcEpUMup9TTLJfC3QM8Ui+ZW07hJJ9AKtjic38yQaeuCkzwwlXhk+dOGqmXGIwWCD9qi1pLxuzZSk7lHA45NTrUVguwsSn5EF9LSf/meCraPzxVyygYPcHyTB544LDoVyo+ee9NCOU43BJz2zS5xSChfmM8HzpsKiFCpKH8z18FCRjvnuKsj8Lbpe07e2Vq3DGUpJxjvVc3EbmcdqMfw5XJ2I7dWUAry2PpHP6DzrjnCmWq+8ZkjciI+Yfztz4iv61ld1aeu8l55xNslqBcVz8uv1+1ZQfUX5hCRmfSsHmhn8SFmF66Q3tATuUwESEj/yq5/kTRLpo1fbRedJ3qCRu8eG6gA+u0kfzArUvG6pgPiZifcJST4G5wh9Tb7aSobZkFYCfUoVn+9XtiKKojJPfYBz7ACvnj8OMr/C/wAR9uaX9CHpDkcg+ih2r6HRfpaKD3SpScfnSWkI3E/85l7RxOtVr+LW1EyLXNA+lyOpokDzSrP/APNVlKDvxOWc3DRkSSlOfl5BSpXolSf9wKZ1Q/TnaDiwT5966jjLTiRkg4Ne6XujUeIhptOFA/VT7q2yqdiPlW4FCsp471DtPtKQ48kgjnPNZDjemB4mzVlLuPMIkGc66tKuVJzz7VKoKkoO/Off0qEWdzAKU9/epXAkEMDd584FY9gm7WciWUkSk3fQ9qkE78NgE/lUcDbDbbbiW8FR5x6130JOTcunAa52sqKc+nemK4ShCZS2SpSAcj1o9PKxIjDEQz9ObiJkctFvBaXt58wKIl5tTV6skqE8kKQ80pGD5ZFCTpTPbchhxKcLJOc+dGaO740bJAAIwf0rY0hBVkmFqgQ4InzAvFtVa9UT4axsVHfW1jGc4URVlvhCnBi73OOFEBaUL5/MUHOudmOnupV2bxhKn1OBXru5qYfDHeBG18mOF7RIYUnk9yCDWSzFWVx4M1wA9BU/Eunf47cyyzmVkJS40pGffFQiTdI9u0P/AMS+hZjo2lS1AA47cn+v3pxusYwIc1+TcVoTgrCFOAIAA781Tfq91hF6Szb3XW4dpUtbUO2Mr+qWofjUtzyBPAqanU2W2ZC4OCPmC+n6H1fPAIg16xakXrvVky5sh2Vam1lEdABw6M/Uo/6QpQ/+0AetQO6XtTdmcbdKdiFl0hCedx7DPpTpdNWzH7iPBW9FjdjEKx4baBx9IABBFDrU1y8Qrjt4SjOPpOc0TTV7goxNvWn+HBJP7SMvuqkOqdWfqcUSfzpU+AmMgHkAdvTmkqB4joyPpSaVzEkojt+ayM/1rXPBAnlQcgmcoaymQ24EkkKB4OCfzojac1WYhZbXIKFtHI+ZQUlbg/BucSQSBn08/OohYLaqRKBxkJ54Gcc8cedEZ7SUeXEjsLSErKQr8P4uOcfmf5VVwD3Nn6fXaFLpFkHUKUqjKKy4QtZc8JS1AuED6NpSf3Z8+fLtTNc9QpbtzbZStbzbhDiG1LUlKsceHyMAd/6USunHwzWW96Xk3u7XNSVONuLYhoWE4AB2lQyMk+VRQWGIizqwiOp9UZtRDiik7vqBK0g4wceXIPrSo2g8TYSy69SCMYg+vDl0lQ0uIbMeM4tfJTtKlHkqI7596iRt7QTkLJz6mj5cLUxcdMfukKS0l1YQlPIHbgHyB4++RQOuTaoEh6M4khxtWDuGDjHnTtTA5EwPqmnatlfOcxuUlKluK5znn0ripRQrGcqPIx5V2ShchS9g5SCSR5D1rgGi2vvkEZ3HtirmZAyozJZomcpjUsNRJAyUnk8BXFWGtsOSxHSlCg+2U/vBkFKj5J+2P6VWfT7iUTCsnKUI5KTjNGDQ+pJ9stkAOL8WK82FNtuK+kc+v50GxccxyiwfaZPJXghiPvWpSkkrSkcYI8z7AeQ/Ko9dlLcKiTvz9R+rHYd8edKlXNV1BWhadzSiChxH1Z7DI9ecgjim6SslKQuKcAEl3zQr1p6lsrjucs4MV2qRtbZQna2yOFAKABJPAII/lRF0PdbnPvEK3w1mQ46sNeApYB2A5GUkdgDnzNC10tiQkKYU6ylKSd30jnPOPM0VuhGoYumdUtXZ2O5MjskBXgOJS60nzXt7lODzjnv60YsduICWa6q+JHkIS5t2pZbbyk8ZCB5eQoatWVc5QdYTux5jtRO60usTLPbroyn/AD2MhfkQeQP60w6UuMZVlQEgK+jnA5JrzWoXFpJmjQ5FQxIw1bHmyEvpG3sR3pPd7PHZTkcHtnNPt1dccStQQUexNDe8X2UiS4k7igH0zQcBuo6G4yY+2S2FiWHE5wT+LyoitMBcJJOM47ihXYL+8+tCUNLyOcbDiiJbp7jjO0jB8wfKglcGD76iNmQ8xKU2c4p0jxUyUqUTkgdq4+G24tW78frS6OltmMSFY8yaC7qCIUiJGSYko5SSAPOhj1quyXWUISACBzRBl3VtCFf6iaD/AFTkpkRl5H1c4xTdQyRAWdGD6NcUOYCsc9zin60pQ/IS2kgbsdu5qBQFFT45wB61J9P3DwruwD2zTzrAI2eIUnbOyzbFhac/TxmgnraQhoSGUjkc8CrCqjquFvGwBSSnvmq59TWjCuL7RGCaDUBmEtG1eIP2FJbSs9zntXJchTqhhXakqMqcUkHzpUGtjROORWh1MscxW3KBSEK59zXIhBzs+k02l85wDk+laoeKHc5z/SpjzObsxO46TKUM1459DgVntXj+EPggd/SsdVlsGrSsk/TOekdRdPKXjYJaEklOcZOM4r6Z6w0azfenUyMtzxQuMoBCUgAnb/vXyqtN0XarvBlt4DjD6HE+5Br6t23ULs/ps1KUUo8WIFk59U5oLgEnPxOqx4AnyevkYw7nLjkYU26tGPsTTQr8Qp81erdqS5kK3AyXCFev1GmTPNMDqCPZnUEFPBOasp8DV6t9p1/dGJzzMcvRklovp3EkK7J471WgHBoh9D7u/aupdnXHXscdX4ecZ71WwEoZ1PuE+pbt1talkmTuPr4dZUGt8S4vxELU64CfKsrP3t8Rr0F+YZawjcCkjIVxim+PfYkl1xLbqShofUs8DOewpTOnIt8VUlwfu0YKvXGe4HnW6uposQurAgdzJ2sp6nz01Tb3NGfEGy+19BYuiTtHkA5j+hr6GsKCisjsrC/1FC7WnQXR9/n3HU0yM+9dVBUlDnjqCEqHIIQOKdNJdUY1xtDL0mE8ykJ2NOoTuS8lOBuHtWENXVorlS9sAjg+P7ZjT1tYuVHUIVM2sbam76Vu0RbYc8WMvaCM4Vg4P6il0a8Q5jxaalNrcA3bQoE4PNKHEpdaWknKVJIz7Vu767kYocjETwytzxPnixpK+6x8duJEU+41wpKcJA5Pmag186b6o0rc30y7HLQkpCg400XEY+6c1cnR+jr7pi9XZTloeaYcWrwilSVBwZOO3bv51MYtrvU9SEvWlTAP07n1JAx/U1891n1HXU2lKKd4/vPSolQVWLf3nz7hPrad8NxC2nexbUkpUPyNSCDdw06ULJ4789qvlI6OWO7pSu6We2S5YJBedZCzj2OKHl5+DnTE+8yLg3dJdvZcIPykRCUtp+27JFbSU6ixA1te04+ZF1iLwDBz0evCHbBeY5eykELSgn2pNOnh9Kkvr2jOB5UWLR0S07oYSPk3ZchbicEvu7v0wAKH2oLXbmZrzDkckpVwRVUGwlTGN4t5WS7pTeIdujKYD4U6oFSAo0WLpriJa9PNlyW23NXhAQD9Sj6Cq/2xmFDfaMZraoDAVSe/urfuTSllRcTygnyIou5gGCnGRiAegWMCZKNR9J4vVK5Opnp8KSRlt9CsrHoR6/am/pp8Mt+0bqpF0mzoxjRCotfLglbg9SD2qVdJ7hKn3guPOKdWhISAqjg+24/GCArbuGFHHOKpo9F+k25iYDU3tWwUdSr3xI3XUz1sDFqjurYfWhkrH4huJSkqHkCQcA8nk+lU+67Wb/COobBHXJEwt2tAKkdkqC1lWPfJ/Wvo31kskpGj1qtny6nGX0POIe/EvgpBB/1DI/n6VT/q/wBH036wRdRtSFSZLcgwlNpxgNDJW6f/ADOEj2CB60KpE0+oFbdnJM1ldrdGzLxjA/vmAGTIXOs0a4k5ddbLb2B/8xJwr9RtV+ZqAzFlbwV348/WirKsK4dnuVtXwWAmYwD5p/AtP3GUn8qFT7RCNxBGxRSrHl6Vq0AKxEFrne6mtj8TmwjxFIA4K1f+9KpDCpM3Y2fwJAznzzWlvRl5LhyUNIUojH6UthvNmDcVuJAdabCk884KgD/UU1nnEx0AI56k10bZ0upCgncpSwnGPfBwftniiQhhMRme+hAW3kJSpsHaskA9v4SAUd++O1Mel7eEMW1SG3ty2g6lKCAVqDe4lHpypPfzFSeS6GLMHdza0vBbmD3UMnCseShhI3HuFcUHOTPb6aoV1Y/EOfT7TLUDpvIPgIU8tlY3lO4njt/M8Cq9MNLVbktLQ8jalxstOsJLbZQrcFKI5SSCcY9KtF0nUqV0ptnilvxPlShRQorTlOU9/M8VVt8sxLk+gIAC1JkhKFlC1EKKHA4gntgqUcEjOOKFjmJ6JuXBmMXFlvRrr7jxAQSta1I2eJyRyj/0nAT2PNAnV0gyJ6nw0I7bmC22Dn6ewOfyotqaXdbe9HcU78nHdcc+sDdkAkKPsOBihpr5IlXS4OoS2huIUs/ushO4lWf6ij1/cYv9Uy1IzElutyhDabC+ZSPEJ9EAkYPvwKYripK3lFGClJ25FSUThGtr8xalLWWhGjZO0gYOcj25/UUwi1uItolrwltZWkZPoKMp55nn7gAgC/E62cFEd1zjn+LFFjTYTK0lAcWgLUhCU+FnOAOfPywKHNuioFlWVFIUewwc0RNC3BoWyIHAPC8IsrKhuAOMZ/LOatZ1FqTliI/2yc0wQ46hOxaPDS4SSEnngkeXvShcvchba44QkZIV4mAVDGB9v96TuRwtksZCG2RtxuJDgIzyn24/WuW1T0RoJXv2HBUOxI4Gc+xH6UBG2NkRzBIwYtExsNNKUhKx+HxFnk+w9OTT/wBNNPTNUavstnYwiVJfSlZSnhCTkKKiOw29z9qis9tiMwlS1EutoVx343eQ/Ou+hNb3TR94jz7VMdiSFJU0qQhWFhJPIAPcY4z5eVO+rgZHcWxzhp9FOoseFdOm0qPDw63F8NtgpHAKQAk8+WKHGhLM5CjBMoJGfIVMNB6fuTPSq2typ6LhLmATHVp4AQoDagYJyB61xcsUtCUpDiEbj3FYetYtYDDUttUrEV/iRVtEJxmowbPAU9lbaT+QqdO6DdkxyoSVKOMkjtSG1aMZenradJyDg7jSRJyB8xoWLtxmJISbZDj/AEpQjjyApI4G3HypA+kip+vQkGPHKlJScJ86hF6MaMt2PHT+8Tx9PNUtDVfd3JVYHPEZpkd5tW9JO0iuKGZjo8NoqUT2TTvbLZdJW8uMgt7eMmnTSdmmuXx1T8cttIwE55yaVB3kcdxw2qg7kTkaEu8khwAAHnFRXX/S2c5YnX1kBSUlRTVoFREhASG8HFRXqZCDOlZy8AEMrOT9q2GRlXI8TMF+9sGfPFpwRZKkHyJFPMOUhp5t0EAg0jTZFTHHXFK+reTgfeu6rWtmOQFZI8h3pkkEAeYREaWf6ZJjX2yIcKkrwnATVb/iNhJt+rihvgKRk7ewp+6ea3uGmSplG9TR8vSoN1e1IvUN48R5JS4BzuFArUiwCWsYmvMFzaymQrjNOJf/AHSvKmdTxRJVj1pUh7xGlAedaJEzVPYida8L44rs2oKwSO1JFDLhBrtHUBgGrHqUHcx8JOMgGkz6js+1dnvpXjtXF4ZQakseYlU+QQBjPrV/ejvUGZqno8wyiM6t1mN4XqFYGOK+fqlYOPer+/A9Pg3Dpg5HcKPHYeWhQVz50rqiQo2y9RAbmUf1nGci6muLTqShaXlZSrv3NR1zIVxRe+KGFEtvWG9Ih7QypQUdvbOOaEC1blAUelt1amDYYJmBRBokdAZsaB1n0g9MKBG+dSlfi/h5BAz+ZFDYgg0vt0wwLlBlA4LLzbuT7KBozE44gp9qI0KL4DexkFOO6e1ZUI0T1Cst10tbpSLjGUlxlJBSs47CspddbSoAIGZw1WE5zElnsWp5MTFygRYLmD9bUkL/ADxin232KeWQ3dpqPBTkANuHO4dsZ8vanS2TijxEDLgUd3PPJ8vtW00l1W5YKz2G0dq81p/oP07Tfq1AknxuOP6COvdazYOJwtdvjWt59YkvSVuAApd5Skewr1mFCjoaaRFBSykpaH+lJ52gemaUMtKcG5XAI25IrbaWkqACTzj6TW6qKqgKvA/nAbvdnPMRRmorCkONQWm3U87gjkZ967m7OsnaACB7VgSplDgUQc9ue1cvlFuvAqUfcg964u6vivid9rfdF6ZbjqUKBA3HnFK1JLgySc+tJAlMWOCUBKQQOTik921ZZdPsrXcbpFhoR3U86lI/ma00cKD6rf1izgt9ojpyhXINI7k8WUHjKVUMNSfFX0z02lXj6mjSXE//ACoeXVn8gMfzoQah+PzTrq3GrXZLhLQPwOuBKEn3wTmg3ahCuK+YSupsjIxLFux/GWsKHCh+lBnqfa2oM4vqdS1nvlQGaA2oPjF1penCm2RI9ubUcIJSVqx/Sh7qPU2sdcupfuNweeKuChH0p/QVjYJOSJs1ZU5HIh+Z1nZ7W4DIntEJ74OTTFqHrJYvnEKiFT6k+aaEWm+nku4ZLxWc5zuyatD0B+HnS1wgmbeYSLhI7BD2dqR9qnZCL2YwzlV3EdQb6P8AiKuFnvC12qxP3PcceEyglX9DRHuHWvq5qa3F206PVbG1fhVJ7j3wcVZGyaIsWnGw3b7bGjIAwA02E/0pVdIzLMMpDaQD2AFMvo7lUtux+2ZlnVV2NyMys+gtM9VtaypD+o7whtl0BtEYYShsZypRx3IwAB708X7onE6a6SvMxqfKmS5+G1/Mu7kJBVnAT2A79qPenYiWkLVgAk+lRXrg0JGl2o4B/ePAjB9BmhDRoKTexJaGGrcutC8KDKI6zhsNSf3ikFrcW/FAwQlYCVfp3/KglK0+f2vKjOHYp5teMdi6jkj7HBo09Uo26ZIJOwO4UFJGccEYHqP7UMXFLuMGLdE8yGF7JAT/ABFPGfzTtP613JrUOJu6YDUF9P57Eg6oiocFzKPrK9gI8wOf7CuV3tD8WC1KIPhLIaUoDA7ZSfcEZ/NNS/VdqEApSr6QAdmf4goBST9iCKV2m1/tHpRdi4x45bO4KcVgtkJO1SOMq7EY8u9OJaOG+Yi+kyXT4Gf6cyUaBeLtptbvhNANwPEKFufjO5Kcj3+nIT58jzp01k/8haYseQElJLbC1FR+rJSk5wOVg8ceWKjHSGy3WRY58aLFVKW40pTUZpJUofUoEg/wK+nOT5EmnjqgsJL8dCXEODYhOxJUr6NyhhHdKhgc+YOagHvKib1dp/g1c/Esx8Ot8ZnaBVFDjajGdWn6FZA9e/pQG18gxdVvpUhaPCnuQ0ICkrJ8Q5SlSsbkhRUM+w8qmPw9amcj36XDfS4G7hHTJStxaVgqA5G5PfH6jzqM9b3WhrS9x2HGIynG0LHgKKJCnkp3gg9iSPXvUIwYlUQlzCCy5Xu62eZLTGipuEUIS66ttwbgsA5UkDuAf1qDy7i3L028pTg8d13xVp7jO4/zoiurTMhXQtBHjvttIZZa4UM8pBHkcHJ9cVCLxp1KI6FNOMtthAThAPJ4H1DyJzRVxmJatbMEqcjHX7xFZ4DmqLlCgMlS4zCOVKAJCRlSj+tPesoqGdMQghLQQn6cI/EOVA59fv50r6VsoEkKQGcqUUJU6rvyMEequePXt50r6hubtKsb1JBCwQEowMbv4T5jk4Hlz5irH78SiUj+Eaw9kf4kcgISbCFqA9Pw+dddIXJbMhyDuAO8LbB7E+ddbRHXKsqUYwgnOAPPFSHo50tn9TeqdgsUNLjXzDhXIkITnwWUfU4s/ZOfucDuaYfqedU4IMk7VslXNsgRt5CQk7Dg4/P+VKGtPzmW0pIdZTv+klOcjGCfc9qn+tLM30v1ROstzjJlPRV+CMbklQxlK+OcEYP2NR9F/alzAw68IiTyAhAH2H2rIa0g7cTVUowzGYaQlTEJcdSiOSvYp2S4lHmc4H6dqnGmIukNFsKduUNN+vTyNkRXiARoiscKKcZWsH1+kc+dC/V14Z/beEPLfcQoKK9x5xjB/lTzpuT/AI4n+HkmQ2MpUTyo1RmfbkdSu5G4xLH6K6m3mDAfRLuaHQr94N+E59kgcAegpLcevki4fu4yFFplX7x1I9KCCTcHLl8jK3teGdmRkAiu0ptWi2VtqX4jck4BJ5rKapbWwTCDCjMtjpDr9ZxYAqS6VLIweM5qd2S6wLm0i4MrSkrGe9UWj6mYssAhtG9eN20AYP8A1pXpDqdqBUxp2Ep4wmV5W0CcY86Y2vUOeVHUCwRm9sv1IfVKawOU/fvTLHtEdEoq2p8QnJ4pj0b1Us97sjTpfaQ5sGUqUMg0727UjMyYtTCkOD1BBou5LcHuCCsvQknjtIbSU+GPyFKowaZVuxtUaYntQFtONhJ/5RmmyRcrvOO2LBcUP9Shim1baRgZMEUJ4Jkvk3OPHyVHyoR9ZdZty7JKt0VW915Ow7TnAp6maG1JfSPGliG0RgpSSTW0LoTGKwqZMdfV/Fk4zRCt13Yll9GvljKmWvp/cZsnYztSnP4lqxU1tvQqVcVoTJuDTKSfqCEEn9TVoLd0lsNt5SwCr1JzzT5H0lb4/wCBpP5AUU6W5znGJc6ysDAzAbo3oDp+xuB15Tkx0ju6BgflQR+LzSVmsMeLKhISxJUvYUpGNwq9iLLFbScp7DuTVEPjulwkaitUGOrfKCVOOJSrhI7CgtpnqdSTzKrqAykCVMcdw+fPmlcdWQR2pAtOHO3HrSpp3Zj0rQIi4mOnDhrZhWFDnNYoFwkpHPtXWLapzzoQ1EdWo84Cc1UsMczvmc5xxtUK4pOW+aV3BhxkbHGylSe6SMEUiR2rinM6eIjexuPHnVmvgj1M3Av13tz62wh5AWhDjm0e+KrO+3g1Jumt4RYdTx5CyQMFGR71S5SyEDucQ4cGS34nGoSerF0VCeS8lzC17FbglR7jNCRQAGfMVLOo80XDUsiQlISlXII86iDij2qUZFSgztp95xN1HNdFoygH+WM0nScAZrop3czgZ7+VH8wMv18N0j9s9ILI8p1O5CVNHdjP0nFZVZOlHXG5aH0mLSyywttt9agVqORnBx3rK8Tf9N1TWsyqMEmayXJtGTPqHb2EoyklW7Ocjj8qWoTvCgEqAzhOT3NUIv8A8c3UGd9Nri2azbQVJcajl5f6rOP5UKdRddeo2rlJXc9XXV5KictMPeAgA+QS3txXqFbauAIkamJ5n00v+prVpiP4t3u8K2ITztkyEoP6E0J9SfFt060/ILQvouCzxi3tqd/XHFfPf5Cbd3QtwPSn92NzhU4pWfvk0RNH/DvrXWW1cWxPNMgg+JKHhDHqN3J/SgO5J7/pDpSBy0P96+POzxH3G7Zp2bNVj6HH1paT+Y5NQO5fG5ra6rDMC3W62+IrahwJU6oe3PFLdMfAzqGXcEJvN0iwGd31JZBcWBnyzgUadP8Awe6MsS47r/zN0fbXuCn14ST64TihgEjKgmXxWp5lW9Y9bOqOow/bpmoZ6EIOCxDSGsefO0Z/nTNZOk+uNcMpkKttymuO/wDzJZVg++VmvoxA0Fp62uKWxao7Lx5U4GwFKP3xTlFjobYWhtpKNvAwP0roqcdYlfVrHKrKJab+CjVF3ZS7c5kW2IP4m05cX/LArprH4WomgYyJPzrks5CSFpA/pV7ERSN3+vzoVdYrd85aXQrBA5+2KHYHQAljC0uHfBEq3a9Bw2oaVpbBwcfUKfYGnWGUJwgYCsHjyp3gwVBhTYOW/WlLDQQhaSOBVDzNWe2y3NNPKS2AOM8DtR66GOFMN5n/AErJoK2uIozG8cJWMZow9GCqNc32SrINEp/6qxTVHNTCGQpprvSj4QT707rxt+1MFzdK5KEeWa3tY21MfM85Ry37RfZkgR05qHdW2fnolujfUAtxZKknkACppAR4TSQe1QbrRPFpsLcwlWEJWgY75VgUvaP/AGoEPSf/AHAMo/1eU5NuSvBUpCGSWwr2yf50IdJvmHqZ22v/AFNzP3QwPp34yk/nyPzFFrWd1bmvKCmwx9JA8JJxuzyfcmhDqki0ONSmk+G+26laV7h+IEEf0pZU9SoofImyt7aXUJevan+vyP6SYydE3rXjsG32izy7rOix1NLEdsFIQ2r6SokgJG1QGVEduKIujOjWu4mkZNvc05Hjzo0sPRHbg63jlCgTjcc4URwfImjR0Lgw4XTpnULKsuanSietsAYZSnKUo9yDuJ9M1K3ZMMqUr9rqjeqA+gY/lms9BsUA9zeu1SvYxpHtP+8rnbLb1F6V9OGrA/pxl9qM88p65W6Uh4vBSyvxnUj6ycE5AycAUjf+Hu9640dbdVMz/lL9cC3Oat0lsNEskkArWTwooyoDyzg4o56kmeAyH4d0Mx5KhsC1IWnOex2jI+9BLqT1NutvjS51jub9svMFWJNrlpD8dzsNqm1ZA4OQ4kjyzT1DqGyRyYnZXe1KpXyB4katXTq59Ir9ZZsp+M1HRIUhTCmHYz7bRPm4v92vOR2Uc1I770mvetNWXW+xX4TEeQtAhuyFJX80lAAXhvO7AUNoV6E96Hlw+MTUF70jKsqLfHt1wkpCRcISyUoHZQ8JeRk+oJHoKhMHrxru025iE3qOS+wwnY21JbadCUjsPqTnA8uc960/TGZgnVsuMdySXzSd26bz2olzhhhDqC024lS8OkKOE7yBgkED8qiOoZSnI8gl9GcLSoNJAVnGcH19P19adXviCvty07d7PfUN3eLMbAQ68EhcZ0KBS6kgeQBGPQ8Vr1B0VcNKaatFwfQ4RPZU46iPHWpuMOyMyOULStJBBB88GqGrDArGhrfUqKmItBpbjQoToX4JWhaistb8YUkkgfrx3HlS7WMRQ0tcmShwhh0rSlfKTg5zz24APod/qaaunMpaIMVTf0qak7VKTgnCgU5Oe2M5/LFTK7RzdBKADrgmRAoqWNjilAFByg+5UeO3cey7cPNWkb9Lj8SAWBwG2pABJKkgKHAxV9/gT6Zv2bRE3VstnwpVzkH5MK4Jj7cEn1Cj2+2aoZpIrcgBCm0qTu2q3eXP+9fTf4TtY/4r6Yspcipjyoqgh9Tahh1eOV7MDZkAcduKdA3MMzyD5VSYLfjT0k5D1Zp7UkCIp924srhyAEcBbWChRPqUqx9hVb7palW+SxcrmjK2yFeCnjPtX0C+IWCwvp69PfDZFtfQ+FLH4Un6VHP/AKv5VRfVViu2rrgy9DQEwSc7x5Vh60bNQ3xH9NzRuHP4j1K0vpzXDVvlsxREdUAlagNpxT1cOn1h0XItzlrlfLOlQ3lRzmhxBm3LSV8QzMJ+WSBtJ7Zrt1D1Om6x21yXg0Un6dquQaTDNnA6hjtC7j3CXqaBDXIDrUxouKAOSc81Ab+0xfZkeIvKnEKwPCOQo1Cb3IjJtkaSzcnVPYzsS5/Wp/0l0zcnLcb2oiQv8SSQVYFVdRUpcdwqHe23Ellm6Lt3gbPqjvEcJWMAflR56b/DRarZYiv5ta5bgyskApJ9MUKmOojNtitTHnAzNCtvhIVnJz2xU0T1pu+l1Nyfk3PkljJOeBmsOvU3137dQpes/wBoe2gFd1JAMiv/AIBXSx62lxzPd/ZiVlbZjpySnPANFzSVmkWnEduEZSwrAWE4Vio1pHrmxcdTsMlkO/PL27yQAjPrViokGMxseGwOnncO5+1aeiqt1T5R8AfPx4iV1ppXaRkzlHRHiQm1OshCinnKckV1ZuEdtsqTkJHniuzkttMhLRUkrI5HpSG6W9t5I2fuyr/ScZr1bsyKTSQdvcxxhjhgZ2bvcR1RAcwR3BryTfocVGVO/kOah3+EJDq5OHXNxJKCFbSK42C1yWZfy0sOLd8gsfzrK/8AUdSMArjPGTD+hX2DJc1qmI6CUBX6d60evElaSppGxPrTTd5sKwH/AIgBvHPOBQ11f19t1qStiIPmHBxhOMVVtXqPtZufxLLSp5AhPn31yOwvxlYJGOVYBqjPxJWNGpdbPSoyhIfUkBe05CcdhmiHP1ff+oMottOOsMq/haOD9qy39Jrm9cGWnEbS8fxLycfel1tcPvsPUdWtcYxKkytAzW3sFCk58sUpi9NbrO4YhSHgO+xsmvoNbvh2s7DLb09pMl/uoknb+lTmyaGtNnbAYitMpHbw0gA/em21No4CxchPmUO0L8MOprymPK+US2gnP79W0gfai5qDoqOn2l5FxkIQ6W28r2jnHtVprgqPZYinGWivAzhI5/KqX/ED14v97Nw09FtJgxsltTzvK1p9h6Uq/q2t6bNz+IeohDuAlatS3Ru7XN95tBQhR+kHvTKkbSR5UsetMoL5QUjyHnWybRIUB+7Vk+1bqKEGBEmJJjY4nfXe2EMzmHCOAoU9WjRF3vT4biw3XecZSgmizon4StVanZcdk7bYlBykPpOSPyPFCs1FVYIZp1VZjwIHNdrSZTakgAFPYVElqJ5FEfrZoKf09vqbfNW26rblK217gRQ3PCfei1kMuRJbnecz1P1DnyrAvGRWnIGfKvFYUKLAzPFWngKAFZWuKyrSS91q+CCUkZu18itDd/lw0FSiPXKsf0qaab+E3Rtr8J2W3Ku6gCdji9qfbKRViXsPEJSE57kjsRSJmEgq3pSs8g4A968+ynOAZpLacZjNpzpfp3TkVJtlkhxXgeFIbTu/XvUtgRAltZSkBQ+nApTDZSoICwQAQBxWrQIfUlIKTu860EoVSrEdxJ7WbIJmy2cvZPHA868Wjc0pKf4eM5rssEkjOSfOubgCBk8DHf3phlAzjqCE5Jyp8DJISMEmt/B2BYBII7E13ZbScKPf+1aOEF5I8vPmuCsBd0m7JwJwBwkrJ+oeVD7qPDMy3vEJ7jHFEBR8RLqSNqgePcUwX2H89Ae+nsmkdQMiOac7WzKyQmiGnkpVlTa8bcVsWkoeSknGRmlxiqh3+bHWMDJUOOK53FkBxtfbnFJDkTfHzFtvAQpop7pPlRM6cSPlL8EkYKxmhhbnChZAAODmp3p26hm8Q1pA+o7SRVlOGEBcu5DD8tWWiR5jNRh1wuz08Z+rnNP6XS9EBBwSkcikcFphlxRV9bpPnW3qAbingTzVZCbovYbVtAxgHigx8Ss9T1vtlpbCluvkubUkZJzj+xNG/OcHtQk6oW1E3UrS0uJRLbiAFxXZpBJyr7nsPvVtZ7KcD5hdH7rQTKb9QmxaXGYfyy5T6wENx2U7lKX5JI9Tn+Vd5Pw6WjTmnYl96iTX/mnFgotFrc2FRVja2pZ/iBPO0Dv3qwNo0fY7JPQ/GZEuctQBlyCFqbz32+Q+4qvnX7V4vvXfRVrcccVaYs5p5TaMDdtIPbOe6fOs4WkKceAZsenvtUEdkCWE6XT7P/g+ZYbAwiNB03cXbT4SV+JsIShzG488la+/mDTy9H2hRSxDRnnKsAn/AO1NV76Da7a0Z1p6haRvrwYY1BMTdbe+6vKVucgp3dvqQtOPdFSvrRrzU9haCLE9HjAHKnXGkulY/wCUHgfekN3IX5/pNWupizKBjbHTWzkZLyWXWm46FEFcyGMFlWfpKjjge/Y9qBXWK1sXWwP/ALVCYlxCz4U9S/CQ8EnGQexBAyUKPBzjNMD3xHXeA+u13hhu7sraPiSEJS08hR7DgbVAZPBAPvUYidaFz4bNm1DZReIjf0ocac2PpTnAAJyknBxyKbSt8gkRldTp1H6nI5gpZT/xuAoKCDwR2PfmlBUDtCSSNvB9fWpZeNO6adece01cpLD5JSm33cBCwc8hLg+lXPGDiow/Zrk2Sr5GQkZ/+kopz54IFbKuJ4h6ypxiJ18c+VFGw9eZ6+nX+BbhAivW9TIiImKdUgoa3bsLHIUMZHGD2oSuPObi2QEqHdPY/pW8KN8zLaaPKScqq+4SJkHAk70NCdabfYC9rjycoWlPK+5AHkOUjvmiO4pTkSLOW2UhCsKeeUMbHEhRCFjlOCFgZx51G9PxVQW4rqAS42S2Q1jd3/Fzx+JAH2Xz3BqVw4RfiyohCWnCFtIW5kFPd5pAQThXG7I9+OKQc5M9vpK9lQBEgMOKu06guMBxtI3O+IkK7AK5H6c/pVzfgev8O3ybpZyXEyZSErSCQQ4UgjJ5Jz3HoeDgHNVMu8Jn9vxZjkpsJlQ0pASOErR+IqB7ZJOAKmejb4NKT4l1hvHxmWwpLzCvqT9XchX9PtTycgMJ5PUV7LXQ9T6SXGHC1zp+72uS2HIkpt2I6kgK4Ix28lJODg8givnnpy3X/SPUCRpSU4ZbUd0jeE4y2CQCR5HA5Bqydk6zMQ+otsuSEvC36lioc8JTocSy+CEvJOD9J+lCu3t510+IWErSOoGtZxbeZsSewGnJPctvAfSCMcBSQMe4NJatd6b2HIi9A2PjOBBZ1V0pZXrI1OYeT8yzhTjCe6vy9aGcG0WDVSCR+NsYU255n7VAdUal1LetZPzGw42wpf8AlA5Tj7UQbFptt+O1clyBbZI9FDCj7ivP6n9PbhsE9Ta05DggrnEkMXRFqsMJEqdZ1CIv6UrU3kGp5021ZZ9GIkriMkwyMqQOyfypFoLWjes5iNPXiOF2xoYckJP0rx2GaYOvz8O0LTaNHt4W6nCnWxlLfHIJ86y2r9S0FW935MOGUKQRgR5gCydTdVPyGIWwB0bEpGNy896KmrOg17vFmS0q4MW5KhwEoLm0+ivP9Kpx09vOrtFsSSykKloV4iSryI5FT574veot2et7FybYbaiOBZRFbKVOkdtxzTzaQb2L5O3rB4mabmAG3zHqd0A1ppNbr7qfHaZVlJirJWoZ/ElJ5/2o6QrHqB/RMG4OXh1ohAJSokLSn0yfOhDqb4wZ0tyA01aPDHAeQ4ecEc4P3rvefiBucqwob+TDERzGcLBAHsO9B1em9evkft+8KhPYMOelo9z8NwouO5Cf/mOHcpRqYW/Vi1x/lnlpckJ4CvU0A9I6om3C0pU74kRh/gLCsZBH8ql1vtilRT8lLWhwchajmvJpZf8ATqz6R2sTySeD/KNWUrYdzdSwUPPyaFEJKynJKR50xMvzIc92W+wVsjIUE/iSPXFDuydRbxZn2YmGZgcIQoOkjZ78UQJU4FDhky0J8ZJO1OBj7V7ur6nRraUKsQyf8/nMdtO9TEN0YxdQbTZeotmW1FloFw24bdClAp9lJqD2T4brQ9bUqnOOPzk8qcQohOfTB8qeFzBHS87EXlTZP7wYya9gdR3bdFbcLTrrZOVK20jV9RW92e0d+V6jH8Oyr+nHez9OLdpjYI8VCQBz5mpS1CaSpDm0Ap5ziuNs1RBvjCXQpI4z9qUS7tDjsKUXAR71o11U8ujcGLZsPDRat111vGBsHlXjKG1oUpS0gDjmhPqvr5bbIHo7BEh9PGxPr96ETnWnXGpJUhi0qLTSsjbGQCoA+586bFoJ3kZnPSIENmuOpFosHjNSZAK0cFtJyo1VbWNzRq++vSGIo2H8LeMnHqT60VNO9CbjqphEu5vSGZDpKlBSsqJPqaJGlegln064HHELekD+JxzcD+VKK2MsgJMbDKBjMrZo/o1P1cs+HBS0yDy46CP0oraZ+FW1odQ7cA48Ekfuh9Kf+tWHhW1i1toCGUIR2wE04TvDVFUUDnHBTTey11JLYPxFWuGcCQO2dLLDpyIPlIbMdKRk+H50y686q2HplpmZLecTlpJ2tJIJUryFMHVHVWrIEhm02qIH3pxU00vn6eO/FUQ6w6T1npHUDsHUYlFb+XUFThWhYPpSFFQvsyDt/fzDsdi5PMYuqfUy49T9TSLrcA22CohploYCE54HuahiAXVUp/Zz/dTS+falDVolKIKG1H2xXpkVUUKvQiDEscxE6gI4yPSuG3nyP50/DTkp1O5SCMd+K4r09LWdjTCln2FXyJXBjcGOP4ayn1nS09bYPgVlcyPmTB+J9iGwS5+8SAR3z3FaqAaeCG1HKuO+K3WCjxFE5A7+xPlmtUvoCwtSg2CO59KyuM4MNzHZplTYbIKhkcpznFdVJTkKwM+VbMOAoBHJ8ifSsdTyFHyrdVRsGJnk8xMUBC85x96x5sFnJ+oA5/KvXElSQMZB4NYpsNtkeWO3figHPIxDAzi2kAkJOB71rJbCnW8JKT61s0jaypQP1eiq2UorS3nOc+VBwNuJbozx9AQkq/ixxTfKY3NLSRgKGMU7OteIkFR7dqTStjaCcEk8dqrdUTmXrswZWnWMVcPU6yRhJ5z61G7tPBASPxJOfaiL1agpjTo75/iOCrsB+VDRKSZSyhHi7TwT5CsTxiekrbcgMVWoylIDu0hB/wBVPdiu70G9seIoLyobQaVIgb7clShtJTnjyrt+ym2ExX0jc4lQPNQzrHiHm23JyVDbP4cjy+1OkGPsc3nuaiulnjJjMJx9WMcVOGW/DSB3x51t6RTaQT4nm7zsJA8zp+f5mghr2+BYuj7aA+4p8N+GF4OB2T9h/vRpmrU3EfWj8QQoj2wKqUNQCbfrnCkpOx51WVZBT3O0+/8AWufUX2hVjH06vcSTN7PqBxKkvSNiQHcFavpQgcYwD6ZNV1+JO2zLfqm3apiI3NW13C3GzlexRzvx6dwKsdNhCCl55QQ5HeKTtVyFJ243Z8tpwaiF7RGukNcO4IO1bSkJcWrAUlR/CR7eWayEfB56PE3CrcFexgj+UBoulm6j25hM4HxmOYsthe12N+HgL/0pA5JHJPFNWp4muozRaiXH9vQ9uELUoJdSnOBuB9ua5XrpVKsN5ku6cuLYQFZDLqcpJHIx7DP2phVD1PqS4M2xyR4fiAhSWvpISPxKJzz7ngH+VcTTvW2UYbPzNh/qFGqr22VkW9DbxmRdFrdYkSHJbiX5iSS8ltW5LRz/ABK/2rbS8D9qS/H2+Iha3ArAJ2/TkdufKluq3I1kifsy2qC2lIG5R/F2GSr7mpHoGyvRrPAcDa21LekKBT3UQ3kDP5Hg1qgnbkzJSoPeKh/p7/55jXcLXhV0ad2K8FZJBXt2gp4OAPIj186brR+0LVGU7AnPwyQgDwnNoz+fGee1TL9juXJyVAYSpSXZqju7kpIzkeuQf51I9RaCXp63xFp8X94jkNbeSCD58ewPoD61UOBxCWUq9gXEi6db3qTGTGv9hs+rIgB2mbFDTyQEbspebwc4+9coWlLTMlLvNttrtnjgJHyL8n5kN8EqUFED6SRgDmpHEszYlRSkIBW+ptRSkocA8Nwcj8KlfSeO4xT9Y4TZ0024vEgqwtC1tlKgQCggjH4+eB2UPtVvU8Q9X05A+5vEaE2xLKEsocWFlJJQpxOD5JOOy1bm0/TkHvS2FIat7zL3iQ2GI4bwpwKdbZKH9pGO6SULx7ZyOK5tPtSAx+9ZSopO8lklCcqayD/z5Ueff2r2IcojvJkOFZS8j9y0PFZCmkqCBnhZJTwT55FQzSQbeJx1VC+ZtbjDanN8C5bUrcRgFK+OF4+pI45pIbY6wvasJbCFlsKZXkEDvg/xD29+1O+p1KkQdVBTrqWS0xKSkN7c5IV9Sccdzn7J96iEd8pjIHguFS0YU2jg5PmT5du9P0cieW+qLi4H5hF0nfkR7K9sYDsqyvJujG5RSQkfQsj1B3JVgf6TV5tLOxOr3SYR5SWVGYysBK07koWCdhUPYgV8/dIz3rHdYcksMzW+EmM+MoUhQIWCOOcE/pVv/hC1GlcC/afUlRTCkJU0+peQ4k7sADHGE44/rRGUE4PRmO5JXI7ggf8Ah8vdqsN0vspcZp+3uOJfhJ5+lBwopUOPehRrHR81uZAe+e8aBJ2q8BoEFOe33qwfxk6Z6gWu5F/STkp/T19ZJnxIqBlp9AAVn2WnB48waGHTtEe/uWiPd98J+OR4iXvpUOO2D5e9eN1Fb6azJOe5q6axbkOYUul9kt1o060HGwhSkgKC8ZNTuJ0tga2tchEFtDax2d7EE+dMkhy02e5Qx8yh22ZSFhJCtue2T6U42nWZs+qPl9Jn5tDgSXIqBuGfM+1eZp0i+p6l7Ec9Dsxy6xiMV8RpuPwiO2eOZsPUD86S5gOR3mUpAJ9CD/Wm639Ao2jJ613e1+Op0fS8ob2vy9DUt6rdWNXlqFb7Nb0WuYl1Lrrz+T252gHyNSQ9Spt/0wiFPhx2bi8keIppWWyfVI8q19dfpAG2WFD2M+f38xGqvUqBuUEfMrdrzplbW9SNS5UVareAoIQlolCVeWcc4oTr0vquVqVaLTaZkqxtvbmk7OPD9Dnyq4errxG0oi1s3VlPhTHA2HvIK9CfKpKNOSV2h2baY7T8Pw92HO6sDuMd6HTfqtm4JujDmsgDOIFYmjNb6jtsRMK1JRE2YUsEIII7Aj2p4iab1roxK21tNOoUjccuc/atJfxKu6NV+zmojS/qwpxfGz1wKkeiOs8LqXMebfebZLKM+GFDP86X1irbRhV9xPkZE6rWBvd1BBA6mXCPqRceVFcbeK9mz8RJzU/vcrVdxkwi2yoR1YOxR2q7VKrlaNNMRpV8RGZflskq8VAyo4pttOuWdURhIjuJaQyeATk1nmvcQ1VeOBmMK7HqSnTq/lmgiU3gbcqGM81y1Nvg21TrLSVRlEYaPcfao5orqCiRq1+K+pLwbIOB5ge1T3XGqoF88JlgJC0DkHGT96LVUUpc2OBzx/OAsV0tA25gm1FeJunYTRiuOR1ukdu3PlTMm63pM1p+Zc3H4Shy2skc/lXHq7qa4QmksNxk7c43pOf5UNl3ebHswW7KIGcqSCSR9q2NHUu05OYOzk/ENCdAWW+utTXpCkhf4mwoYNEbTWnrJpJoKiRRhWMlPOfc1VjRc75qa1LlznG4O7PKyP5UbXesem7Db0oYWHnAAMBzGaeNbsCc9QRKw8Wq5/MuoDTIQ36qBFPzrSRKQQrbxgp3VXGw9enZjgSi3lpjdt8TxQf5V3151ivNiSxLt7bbzWQXErO0488VZdWKl2uuYs2nLHcJZHhwlB4yPKmxxxu3yNrzuGjkjccChDZ/iEgXG3RnHN7EpzCQ0oYVuqOdXLhqO92f5yHNbEXbkx0qIdI++KZfW12sAo9w/pKV6dhyepO+onV7S+mJTRXKaekNq4Yj4Us/mO1Vj6x61idSp7ctcZMZlkFKEK5I9Sajt1s09paFvNErVzuPH86Rz7YthkF51CSRkAHOPzo6AbtzHmMgbRxIPMtjEmQUtN5we6RUssehHXreXRsSrHCe5P5+VOOmbXEW74z5CkZ5UmiBb58OOpLbbiEsqH8Qxn/eivcF+0yJSCckyFWXp240D83FQsrOAAvJzT9aum0YSFJMUJUDwF+VSQXeK++E/LNvhH/MUj+XNOUie1EaL7rbcTjICgSf1pUXOTiMBEUxpRoeFGSG1NM5HsKyovc+qZZmLQhwLSnjPhCsq25pX1KxLyz0BtjZuO78WD2J9aRybaLikx30b23EgEDjA4NK3md7YS4lSl7s8HIApXCYW2jccjJ53DyooT1H/Ey87RmOERsshQQAAMYSDniuinM9/p9jWrCgn6uOaxW1TgKgCD2NbycIBECOSZrg53JJ2+1Zk7jk9vOvVNknHdP3rcN5OR2rgBzJkCN77h8RXmD3FbMhTykgAgJOaWux20J3KI7+dcHpSkEJZbABPJpY1hG3MeIbfuGBFnhjHOK0cAUggAZHqK6JGUgnvWi8IG7H3p84IyBFh3AL1yaUphoknAX2FQK2xS5HSUgKyOaLHWGGmTbnFbdx8uO1DLTTe6LjGPLPvXkWHuM9bQf0gZKWIqja2wo52jFcVJW3AWrg7Dx7U8QGUOwSnJOB51yeh5jLbAwPP3q+PMpuk46fBS0NqxkYBohAYFQXp+jYhIHZIFTsDNb2iBFZM8/qzl5zeTvZWkeaSMH7VTU6fU7eJhJAWw4oobVwrIUTn09RVzex4quer4Vpj6+uaITzDklGHHowP1J3cg49PcUr9T6V459OYBmUyI3Zt1UJB8M4QoHKl4Rxwc+gNDjV14di7kNsuKKRlltH7zaP9XPmT29vKiJqKAuSltZDpQwoKQG1FSm+O3v9jUDuthmzlqQ1HcQtZzvTlO7jJJPasNWGczfIgt1HfX48YuJS2vgOKStJ3JPYn/v1pFopYe05qS8OPNMGSpESPISgkIKMLcGR2428eeTTn1PtFyaQmA0kI8RO6QWsAJT5J9eaaNJXGNY9MvWa6wCYapKpAWyB4iVY2nI7KGASPPI96fLKKwx8mE0KPZq9oHQJg8tGnJGor+y20kuuSCSnJx5+ef1watFononL1Ha47VrKxFaWHBKbJQlB24ODyVZyRkYzQp0prHSkW8phQo8x2cpSEJlPpDQSlRAWeCSAB+ZzgV9H9NWy3WywQmLa2luGhoeElIxgdxVmY2MB0Je29NCh9Plz2ZXi2fDFDsYdkfOvmSsbsk5SlXngH/eoR1KsLkSxOsSGfmHoTw3EK2/T2JB+3P61bW6vttgglI+9A7qzY1S7XcpuweCpaE7VJ/EAME+3Pn5VVmVejzFdHa91y7z2ZWZplQejKS5HDbjrL6EBRKE5UApaHMA7iFqASfbvinuBK+Y0lGcKlltQCUuPpIJOcAeoc7bT7exppkbULcC3mktqcQ5uVH3sKUFtbStX8KwPwgcc80+Wl9Y0kjc86r6yjxZLOzGXMJbIz+I5wFdvxGu5xPWLj3CMEULWiMpEievYhX0pYG5Ay0e2PqGN2T/56yLtEaIsOS3UJfZSkrSNiclxBKTwSe2R5E5r2EtTrMQ5uDqgyralshDiOGSQjtkZGc4/1etdPHUzBXKT4vgplthLiVAM7vmHR9Ke4Vzyexzz2pjOYvtnt3gNiNML7Elt12x/vUuvAuJLeB9Q5yOO/sKg1unvPW5IaQjgI/CClYA/96ns5oLSphUZlt5dqkNFpT+XNgWrkK8x5keWBQ+s7XyzCXFPstH8IShW8rwO5/75rR05nlfq3NimPCFLeXk/vGhzkD+Z+1HHoV1Ff071HsIelfLQLlsgSGVHKVPNghBAxnJBSM/0FAj5hakIabUkLwQQj6edwxkdj286nHTQJud7CC44u6tLTIiIjYU4t1JH7vBGACCRkeYxTLjjMw1n0a1VAeu+nJrEVtC5haUuOlxW1PiDsCfLPbNfPf4gBfW3mJiIqY8sFW9MXnCuyhx3HvX0H0nNVL0/anHFKLjkZtaiobSVbQf6/wB6rz8VGhH25kK9Wjw2lIUVy2VHhxs9ykeo5zWF9QrAZNTjgcGW0zkBqesytWg52o1WaM4za591dWr6mUNqXjmradB1RrZb3rk9B+XmOnDrTicONkfwnPI5pu6N9Q9I2BmOx+0IyHtnLfiAHJ74z51J9XxLXrq+xZFnuxtr7igHnGFJw6nHZQ7E+hry94sCC2hgHzwDNHccmtxlcRl6t6nuGr5MSBbrd4CEOAqnPHgAenqaEepIVxsd8izHrmooYwcoJCfz9DUg623vVGkNQW6wWNg3KK8gOOzgk5ZGcYURwCTRW6Aki0vwrrFbdlOErW4sBzfn1z3pdan1VgTUkbm4zDCwUU/pjIEhnUfS141Noi13WAr9rFpSXCwhAIIIP1D1Iqesy9UM9JENWpiKZymNgSpRSUA8Egeo9K5XzW1j6fa9a0lHS3GauLJebZSCENKyQR/yg+WKEes9Yav6aaofjMXD9p2OarxGGtn1MqPdJ9venGJ0alK+cAjGfPXfxFRnUAADuAHqfovWFumIWbPMmOHkuR2y9n1PFTboX07Gkr5FuXUCAqHaprf7hT6iEb8ZCVgcgkdgatb0fuMrUlgVdJcVDS21H6Fj6iQM/lW+u5Ng6mWlNtZZDssrBbUtG1SVjtTdb50ym0hSfGO5Rs+qUPOP7Qc68Vp42pUbSExhtEgbPAaXubVn0B5FVW1YzqPo2+kuyS7Glq3bW1HjPOKnfWnpzqHphqa3TIylt7jvSlpe5tQzz+dJtJdULBdeo1nia5bZ+UKtpU+nLaVY43fnQVptW3BAKmMGxFr9p9wiPQV3e1e2uZCcVEfHdeTuqTaaiXpGpCf2g7IX3w4vIFLuvWorRE1JH/wimOiJ4A8dyMkBGc8AEcEYqPWOa+q2CYxKSXcfUfOgbdthDgbTHgS9QbzGvrHqi9wbqmAoIeUvsUDn86hsa/SI8dcOe04srHCVDipNrCyOOgXYT3JUxWdrSlZT9sVppVw29a5OoICW2/4FrTx7VpVpXWmFEzzl2xmS3Srtkm6VVDkn5dzaQFLAOTQkkW1yw3SQ68PFi7yW1DPI9qkU+XG1TrBmFbS5GY3gqWyUgGiVqDTUS2wopaT82lWEqyrdn7+lXJ9PBHmVKi3gcYg6iapcXb3GgpUbI+lQ+mlmnOrjcNSIlzmGTtOAVjcf0NPOqei8iTZFXCEA26obhHCsAj296r/edEXWFKLzba3tpyrCT9P3q/pVX8PKl3qOcSzM6exco7cmIwUHIUFp/rxSpjWN7lstsuyn3ISP4MDn88ZoWaT187H034bzIQW04KsUZ+g2qol/WlbbSHVxuXSnAUCc/wCrvWVcnoksOo2lq2fcOf6Ri1JqF6U0htbJaCxhJKd4H3A5oYz4dykurWt5Wxk92mylBHuDV+bbbrBq6CuPKgMOYOcOx05B9dyeRQi6laZtWn0y2IoJafPKVLK08/fmmFtNdatnOeouF9QkHiV+tOya0QUrUEjBJJQkH8u9IZ98Q2ox46sLR3AUefsDRTtEGJpx1qSlIdQk7jhQVgfY08yrpbtZR3Go0EtKRxukwgkLI74Viutfg5AhFQt7QZEOn2lk/IuXeZ4ySpO5JV2/TvXusdTR71a1W6EhPzJ4w1ycj3NO10ehW6xLDojsrRn/AClKbVj28j9sVCVXG1QrT+0YjTTz55J8E/yVmuq7WHOJVxtGJCF6bvAUc26Ws/6jHKv54rKkjXV6UhtKRb0KAHfxVJz+VZTm5orsr+Z9FWWQ44gupIVjJA8x5V1bcOFZUUgnaCoZrS3oDoK1qC1AYznypQuKH0ulPIwAAk9/zrTrQsAV7iTNtJBnMtnBRu9Bn3pYhskJyk8dhmtUKbZCWyR4nfCRn+ddUu+IjKePY07UqqODAscngTzYDjefyrcqJBSBtHlWjSSnk8muyMeYplYExN4RUdilEgevnWeFsUB5f2rqfx8CsOCe1VKDuW3eJuDhIANeBJUME8GvTwnjvWgVzjJJomcSsgXUK2h+C+nOPpNBzTQS1JWwoEjd/Oj5qqIH4rm70NBGCyId1fAPG85z968teu20iej0j5rxJVBbShpSQc1ik7gpJBrxtX7g7fKurY/d55P2roHEg4ku0AsIcLZVztGAanmDgYoYaJlIcvgaS4NwHPrRPBxW5ojlCJjatcPmM+rrmuz6cnzWyErZaKsq7V8xdf62evHUmTNZuTiZfjErkpVgjnsK+hnX6Y5G6ZXQMkpU4NmR71ULpz8O9smaTnXS8JU9NkrU6lwchPpzWX9U1CUn3xzRVFhleIR+kM6c5ZGpF/mKuDez6HHCCrb/AMx9aLqr1pCZpSSG3WmZjLZO4YCsgcd+9AbTum7lboEdlU1BiI+kNp/v9qXWKxybZGnvzH/Hjh3xCSBu2p+rH5naK8XpqbBqGc8hvmb91SOBz1Bz1EdS3c5b7BSpYUlpKQNxWE8EKPpQjuMgvNbiQdyATj1O7NE6/wA9cwyFobKA6VF1K0DOc90n8xQwvTa46mkuoLayyCQe4IWoc4r1Ni4qVT4mn9HO3Ut//J/yJHdCQi/1EitpOD4iOfTAOK+muk3X4VojtoUW0BA+gnIHtXz++H+yftfqqHVJPhNOAZxyNqQVY9eP619Crc2luOlO3GB2SM/958vUUWxdxUj4mFqfuYY7Yxb8uJzm57BPYAjvUF63R4idCSy8k7GlJdSUHBBByCPX7edT5nalR9hj/v8AsaGfxDPqY0Y2hO4eLIS3tRgLPkSknjI7nPlmubABmU0OTqUGfMqbIdd2vSHJIVgNoUSwpTOAtonxEZ2hWcbfLtmn6zb0aUf3OOup37R8yMrJJH0HvnJ+ndwE4pkIfS206huUl1MdRStBQ5sBU2SAnP1g84UBjKvLkh500yf8LSFhchtCZZASVpdWkeIMgKyQW++TwcVc9z3C9mMlv8VRtY8GUtYaKQjeEHGGjhCvQFJ79ykjzrV+ItMCa78sjKSEKcbdPJD+QjYPLJBz67hxXJmOSzACYpUFhSQ27J2tOZbTnCu6QNo/QHzrtcIO233B0eEkIU4tb5Vh7HzIVgDH4d2Of9Ro0CfM9uFsbSuGkCAgvNz44ZSrcFFO9W8rIyk5xnnGQeOaGdnd8BgtgoTtb+kYAJV7nzoouPpdm25syGEoK5qS2wgqa28nasf6k5GfMmhTaIw2gFCEuNhRSlWScev860tOe55P6uuGTH5j8Zy0rCHG0+DtStSgMHOfqH9P0p10tdpMS/xpkV5SS0sKDyRjalPft34yaaW2fET4pcC05By4CMHsMU4WtLbRL53oUohKSg4OP9+Kc7EwejL49Ouori9IaacnFLj/AIJZdcVlRDiQcK29yCAcqHrntTr8QdytyOl6706sKjja2k5/zAvI259c/wB6rdqfUj1m01YmFLdUoxm397q07HVEcDaMncBggpIP1e1Gno9eY/WHovfrFPPzfghTSWXCFOISACjg8jCkqAJrNuqL0ujdH/bmWJCOriV46P8ATOw63tdzflyVRrky4Q20CBjzBIPcfarC9F+nlvtEeUxdEGSVfgWon6R549DQesWiL2nWKrZa7epogZLpIRgeQzUl1N1QvPQ64RkaitsgMyDsQoYWl37KHGfvXhne1rxYADX+01vTRkIDcyeXzVNt0OLjbI2bg48o7Q4vcvnyOfSlHTO2Xxhpd6WwW2EJJGVDnz7elMsxyzawtzeoTbyy8pHibtuFfnim2wdYtSR7RdIcCzKlWxKFBuQg8p45BBoFTepeLGPtX4+ZdlK07FHfzITcNXJ6o9V590dUyqLBPysdbeeUg5JJPvmp3/hyRfAoRmjNkIT9I3VW20W26RtRf8ATDQ+6S4lR4BUcmjxZpN66cPQ5bUxMiPIIDiXhnb7g0HWVM14sdvafELUNqYUcidUNdTbC67Ct1ofZivcrKOUgedFfRlwatdliRJLKUXN9QG9SRwo9s55pVaes8SMhKZSmVOq5SEOYoJdfNfxZd/tq3VlhClDY2w4Qvdng5HpTvq007U07ZP8A8cdRf07bd3qDA+YS+vDsLT8CG/dSLpMeBZZHh9jjJ48hVMmtNJvN+eFwZQkqWpacgcDyFEPW2tv2i7G8ac8+ttGAHlE44obSpl2duTM5pBLCSBx3raqbI9QjGYNq9qBM5Ik6sXSC563t8tpm6It0dkYSkt7s/wA+BUalaJv3TRhUeJK/bSXCQ4y00vegeoPYip3o/wCZktrMZ9xpLifqUVkJ+2BT/od6DoO5TjPdVcZEv8KVqK0pPoMnilxd7irwnp/6vMGNliqkKjzZBKEtncpCuD+Yp31/qSxXm0vJkKQ3sRtBSMGnPqXrGwRbY9HMFSZTxKkNhs9/uKH9t05bb5b0G5uqjKX/AArGKvtYEOTxKpjdt8yHWcPafktXCAy4+yo/5iUEg/nRS07rKVMtMl1tSkvpGQCoJI9sGkDlwtWlw3bWg2Y4TkL3lvd+fah9dXpe+Q5BkEJcUSB5kUzgWH4gCvonuTxXW3UcSSN8dMhtPCmmzkfcZ7Gma8dRZrqXpRhISmQOcHaR9xXHRN5t0VbMO4FPzLx2lS+D+tEXU/TaO5avm0Si4yBu2qwpOPyqrEIwBE7jeuQ0gmhra3fELbuCPBiO91pGB+ZomaJ0jJ0Rc5CLM4ow5RCtyilwgjyHpQll6ocZZNuZQ22yj6dyFEA++KMvSnUMW+RYkJchHzhWGWkJcDSlnHHfvQ7QRnjI+JKwu0N5ElsbX8+xrfaddfacGRzgZ/3pOb6xqaCRJuBD5XyQvFd7zoWQLnc4VyZk24ONgsqeQlxKs+YV/tQx/wDBm62q/JbTe/GirG/cpKkbfY7eKVrrUk7h1GlfYQcZzOeutWuaSmNlp9UlgfiwyCf17V7K6tv3K0MmAp2Ayr8ZKyUqPuOwof61tr0d2U3MeS422raP3hKSM/an2wosi9LiMhTbsooIASTken3p4oigHGcxV7HLEDgTJU65TVpdfWqZFcPJSoGm7VsaVaowXBgSfBI+pWw7R+leaMdk2G+GPdW0IhlWEh/Kcj2PaiJqTV8G3uJgRoIKVoyCha1YB8x5GjbdpBWBGGGcwS2KbAet6VycpeKjkeKE/wAqyh/qRT7l8mLZaWltThIG3tWU0KifMX9UCfY1DUeGS1nco/UUJP4R/esfmOqKkgpCScJA4wP965Fnw3wpOcJ8wePOubS/EwFKGAclXnRmYgbRxBBc8mLY+WQDnhRwCe+a7kgAEnPFIULUFKytOByN3rXBVyS7JDaZCFKQBuSByDRRcEXmVZCTxHpshSRXTHBpLGd3tAjnnvSoHNadfIzE24OJqpPpWA55rdX4DXNo7snzFWOMyeJse9ciQMknGK6qPY1pvGcEYBrjTqiMWpHAIq+xynigAiV//UMlB4TvOM0dtVOp+VdG3sOKru474WoH1q3E7zhJ868tqWzfPR6Jf0zCHGWEsZVhKCnkmkK57kgeBFBxnldIW2n7oAVKLbfbwx2p7jsIiNhAGMd6soJl2wIp0UwLVqJslRUtwjJJo0A5GaBMaV8rfYiwfpKvKiDqLUl2iW56bb2m1oiIK1JWcb8DkU9TqF0ytuGZm6msuykSL/EVqSXYtLxlxLabmj5gB5CVAFKSDzg96rwnrDeIDLkEWQi2OcIX5jPsKUdV/iDk6/chwbM09G3r2yULHH2H+9QG+XibZUhJaeeSBncU5rzGsY6u4kjg9TX0tYqrwTGu4dRb9G1ibcylTbL3KAry9hVh7gz8roiCw/8A/un0pW4jOU71JPB9s1XTSOnr5rvWVouiGCxCEtsKk52kJ3c4/nR81tcBOW2hBX+9cUFKJ/CP+/70zWoGABDAEGCXXqjbYrxS54YaUghX4RzkH3PmaEV83rjx1HnKnW+e/wCLcP5Koza7a2W59chJdZS4E5UeQPUD3zQakJKoj+Qk+HKQrcM/UFApJ/kK0WG6rP5jehsNerA+RiFT4UYTH7flPO7SSVOJVnnJcIz+QSMehIq5kZpxSE7B9I5z5A+35f8ASqzfCDboosa5pZbVIXyHSnKgnxXBgH05q07OQgY4wMYq6zJ1TZc4myUFC8HAACdv+1CP4lpAa0Wwks+IlchOVeJsKcZIJP8ApzgH2JouPK2raWSMkFJJ4496CfxTJW5pO3FtISpErIeUf8v6SNwT2URn8P2IrrdS308Z1Kyrz+IscraaClrYU4BFkBSwk+CP3CTyWyBj1B3HsKlOmAp3TE5r5cNOJll3w2HcA/vBhSVgAdgePPGKjFyZbfeksluIHCDmOhKmlFfitpKg72QcYyj0IAp60m+27pK4ONKiGOp9YWllKksbgsElQPmQDgjz+9Rp7ZPujA3HZUxHy3AwNyf3yiG/8rgup7pACeAMfypXPcEe1XZK1tpLZeBSVFbwR8wOQR3TyAfPP1UmYcDjbDZLiVh1zBUwFuZ2r9OF/by7UvkrD9lvYWsOMEPq2Nsnw1KDiPqCvI8E7c8pz3xVpQcrmd5amzOtjyZfzCkSJbC/BbADathVtXxyADwfYUMLAokrW4olQOAUjgcf3onyEFSoSnHJDpTPWWspDaUBccfSk/xjsM+ooL2MyAEJKsHdhQWe2M5FaVB5nlfrH3J/P/aTCM604gB1zwgVAqKz+Dn/ALFdJMVDCk7VqVtcCgtCcg/+9IEhDwQlW5xRSTtH1Yz6mlDJLLbYSnbtG5Cwo9ucjH9/Oms5nnjCbd9SibYbdCYYb3xGVNeO06CohYJCCPLt65ov/BA2ti9XcOBxlLjAb8MgAAhXfcD/AF96rlDfcet6XkOnYy4XF4SMJBPfjy454qyXweQfnNQvXFMjDKUFSWAkYVv8/XAxjPbkdqjDKgfMjHgn4j91H0R1Q05bLvqTTMqM5IhOOL+V8MeIphJJJAP4lAc48/Kq+a/61ak6jaThWy9w25s9TiAlbLO0KJPBCPU8Diru6+ul9TflW+1z4zEZyKC4061uKionkHy4yKEGoLVBsVytsiTbWkOxzubdQBwf0rwGoto0ZNdYPt7mlple0b278Rd0p0bqKNodw3aM7BfDf7pp9PJGMjJH6V7oBXi215haxHfdWSWyAMHOO3n5/pRFT1V8O2soei4JSPq7DFAe9fEZChawdtkWyredC/pW1ggqPpWXdVVqEFmkcnPfHRjCGwZ9YQiyfhtgamiuLbu79vkqH0uNpSdqu+cHv9q8Pwu3OZa0wrjq92UB+B5ljw1pHuk5BoOX3qdrTUes49uSZGn2lNlRbSVIUofcjt9qmDnxCah6dRYlq8E3cZ2F950lSOM5J7+dael/hvbVehLAZyDz/fmAsGo2+rW3B4kL6qdInej0vfJvLt1iup3tvrSUKSR5Hkgf9Krtd5Gpdf3lsWtC5Hgr2NOKJA+9W664a1dc0ZDuF5aYkQ5hS26kKOWwoZBHqKGehrvYLhPZYsQRHORuCQE5/L1pmh0DtYiftmFPqOgqZsf7wL3vQerLfc4yp/ih07SoE8EflxVjNE9NbdqnRq4binFXQIyFIWQps+R+3tRMtHTqzdRZb7C5C47kZsfhGw5PY4Pemvp00jQWorqzJkhYaJbCjjPB4qWW7lVmGOZKq1G8A5MAOobbrTT8hNriAxW9xQuQeFAD3pxs2l5MCSic/cHZMrGT9e4Zx71L+pXWfSq58+O7JTvJITsGSTQg0h1TgaenSHn1fMtqWS2nPb070WtHsBBXrz8wbsqMDunXVOq7hC1TGTNt6XGSvCXCnv8AlUk1Ha4t4tjc5sAOcEtI7/oKZNZdXYGqYySLZgoORlOaicDWxQ6ZDbymVI/+S52NEKM+MDqVyNzZOcyUNaZi3JglZGwfibzg1F5L1ssbslGUuhIwlCiRimqLr56NfHpz25bCs/u0jgGlEi1x7s4Lgt0tNyFZSFEgDPlTSoU+/qKkhjhRzIu9p6be5QmRnSgpVuQ3uyfaicw9fH9OtsTpRZwMAJJzSaPpRq1rYeRPSojBDYP8/f7VIrubhHjR5C2vmUEYy3kce4rltnAwJetOSMSLdO5Nrh3583tZfZbPClgEk/aiHfGLVeNRW2/aXdTDn21SXm8NJ2rKf9SDgKqDNaffealyWoBfUoZCc4NSjp7bFRAy/ODEZrdsLbqske3PAoNn3eovcsqcbcQr686223XWh22p22Df2PxstZaKVD+JPJyk+lDxzqGi72ZlMGcpFwQNm7CwM/8Am7UzdQbTaLfruI4w6DBdQCpoHxAD7Edvzqcv6Ytj+nDKgRHWlOIyl1pkDJ9wO5oLBc5bzCLuX2jxBN1A0Xf4MWI49JVNk3AkpbawrJ9sd6RdONB3yPqaMia09HZUohaVoBUnH/Ka7NtatVfWrqhDtxYtzhPhOZQQB5YxTtfetzM+OwmWyliUF5IBIKfYnuaeHC7Vi7EO24+IRNRaWtr6G1zZY8Js8JwptKiPQHIoVao16Y1+KktFENlPhIJOMj2xXSR1VtM+RGak/VHSoKWFArCv596X6yh6T1pp102dDImAbgA2ptQOPY4qynaBkSMQft7gkueo48qa65sT9R9/96yoq9BXDdUy5t3pOD9VZTwqB8xfcfJn2ucWkE8btpCVgDJHFchFeCskAbDjJ7EU7BhCBnaOTk47ZrZTYIUT5/1pn+GDctFBbjqMaYTucj8ByMnnHNdEWwokB0kHKcEJ8/enBCSOFklWewrqkZGKqmlUnJljcRMaQEpAAxXXaO+OaxKMceVYrg4rSC4GIqTk5MxedpwcVyaUR3GK7K8gPOtClOO1c285nc+Ji8baTuryEgZ3GuyuKTuuNRklazhSec+ZoVrYHPEInJwJHdUKIiuJCfrAO4+gqtV1uiYmq/CCvES4Tyecc1YjUVxTObcSFbU47edVi14pMPWMNTZ43lJzxXl7mBtOJ6XRrhOYVLS7ujIUk4UfKnB9RQjIPfvTFYnf+GTt5BHc09SF/uee3maYTkSrjBjNOneDKZdBP0qz9qTdVPiEtmiunkyK2sP3eSC0iOCN3Pc/YCmvVFzbhwnFbtyhyEjkmqodUJT9+1W86pp1opH0KUDg0QqrAgmL3HAGO4s0xqK6XTU4n/JGJHSc7duSanc7XJmrkB0oQhofgUnBPtUH6fO32dYLg+iMl5MPP1ryDinyzWK3X3Trk+5TUNvyF4SgK5Tzgce9ZbVKufgRhLD0p7j7pbqVc5t5tMO0RURYgltIfUeBgqH8qM99aYFykMJKUuMukbUqA9eQfXJH86QW34bGmrHab7pW7CS2gtuSo0gj6xkElJ8lVJNVwiJ8p1tpO9p4upJwFEEEVxeDwMCHrs3nk8wJdRN7rRKleKVrIIwMBIzkZ9SaE8KKZEa7bUBKUtbwjdnbtUk/0Jou9Q4an30NpbSlLaCrZuClIV/Cr7YqC6JiNzbo9DdUhyRPZeZRhRJBKTz+vlWmR+iZeptuqQ/mFj4QFf8A9Hx055C3I5+4WSP5pNWgYeKgnB4IB+/lVOfhB1H8tP1PYHjtfiviY0g99ilfV+is/rVv4igU8c4JGf0P96sIjeMHHxFqlna1nJ5xx9j/ALUB/iekOrjWlhpsu7At4JbSleVDPdKuMZAwT2OPI0d3OQkgZO7se3nQJ+Ju1tOW6FIdSVpKHGlgZ+rtj6vLv+Y9wK4/Ub+mAfxK5lbrm+ksTW1PBorOFePHwwF+M0PrPOHOM8cdsdqetIOrcsF9Up1Q8EZStLWHQMK4COylZHn3yD3TTHcPmHw6SmUlaylOUPpccUkSAMlo/iH0jCu/JJpz0Kgrt8htwubVq8MqLnijnxE8LHIGVEZ8s+prh+Z7BPv/AOfmManHEubGhILJeeCUodThRw7kJJ/Cfv7eYp3ZSXbfe0gv7mjLQvJASQC24N6D3Vz+IduB2NMbraFzkK/cAplEHJ3HBCjk84WnJ/D3Jp+YWPkri2hDDxeL7rSG1Er/AMpo4azwAQc4Plx5VZvmDTogxPOlq+VgPYWlkT4S9z7mRy2BgI7oUeRg9/ehUiE5F1DLbBQnbJcQlOfIKUMj2oo3NphdnSptbe8KiKxHaO8pCSPxnhX4fy/ShnfnEsavvC8haTLcJUn6eCfIeWPSn6J5z6yOFP5jmxIaitkqVhBUMZyNwz/Sto8lKZC0bEpbxg7yQT6H9KRR2kuoccdJXjA2pPBH38qWiQmMwtAYAWrupWVZBHrTc8yOZJLXNUiN4bm1hkAqbUnO4A9wfbFWR+DRXgamuDCXUKCFqbSFqwtSCAUkJ9O49M5qqbC3PmlrwlKVKCslQUACcefYVbr4V2S1qmPJM5amnoBDbS0KSV7XVBa0jnAJAznA4GDUY8ASEHBh+13pm03e7MypjimJ4jFplxCyhX4iccd+T502Wrpgxc7UFTZjsi4tDhSsbc+WQfKnrqLPiQYrfz23wCglK842qB8jQItvxCF27PNtTEpMdZaB/wDqD1I+1eE+qWaejVs99W4cjj/eO6ZbXqARsQlo0k5MaCnvCDbTm1bKu4xwahGu+l8iHqe26r05ZIbk2GpLjqXU7EyAn+EnsDjsaUx9SJuEr/iJTjXzZ3A7sBZqfv62jW63xWJS2yzjb9JyTx3rE0Oq0qK1YTZt/v8AEbtS4fnMSPDT/XeLDbmwJVrkQ1bwXClDyFEYKEqGcjP5Gq16j+Ha+ROr02Eq/KuNvUAqOsq2q2kfhUPIjt71aFu0WLUlrfkWeemPKAO7wl8pOPMeVRHV+grLE0Y9dbZeJcXV8Vousy0yCtS3AD9CmzkKSe2Petg2WOfft3EZ3ZHI+BEkxWcjJHx+ZDovTG32ppm2X+USwgfS064CCB5DPH5UE9aaQ0n0z1LJv+nLo3ubdSpcFLgLaznkAfwmixpKFeOpsNM/UMbdcGk+Gph5Phgq88Af1prb+G6xv3l52+wltRXPq+lwhOPc+tcrLIcg4Xz+ZosS3YBM7R+scjUUG3y4jX7OfQkBakrBJT517+1411knerxlLOHVZ5x5mo7rzoPE094Dmlb643GV9KoshfiBI9UqHP5GoJc7ZeNM2/xYd1SZaVYW2ojBHsfKi+nnLIc5k3bcHbj5nDrN0vsLc0TbcgNqc/GEE43euKEKOl1xnTkhh1KG9wBz5CircLTN1NAb+ZuYRKHJGcUO9RXe76DuaULkiUhQ74p/S23FduQSIpci5yRxDIz0ObZ0w3Lt09uRKbbytl05Cjjtny/OoBC+HDU+rbgbi6lqFb84WWnPqH5GmLp31Kusa9SpDMhxQdQQWSv6fzBqX/8AjLqO12d5ty5gMyFHLI2q257geYo+25OfMCxrcc9TS76Ft2gWUJl/8dHQRl0p+r88U5T7vbtbaaMezsNMoYHKnDgD+XFJNN6nj6mjLtj8czpTuQlRGQCaYrz0j1fpq5pEV1DMSUfwtOEY9lJqmCx9zYMMp2j2rlZGblpycy8HoL8iS40cuNtq37cfailppGsbzY0eHa1Lb24y4Rnt3FItL6JuOiLgi5SXG3lHlbW36gfv50TonWG0S2126ERFlLGNoITg+vNHZwwGOYJF2HJOMyO2q23ONp2YtyWI8lA2+GCM/oaGNwsWqIMWdJemPvxykrwhOAPun+9SE3RyLeLiZ1wDjAJUolQBp40Xr6LdYz8VtSFNpJQA4ef/AGpVmcZIHELtyAMwY6O6gR4kpDt2ZXIU0cAlO3I9KK+netC2Yr7yYiCyDhKUr+sj3pq/wbYLlc31XFTbSCcjB5BPsPKovrvQsi2XNk2mT8zCKfpCXOB7UYhGAECpZRzJtaeszbd1mKnt+EzI4QyV5P8A6VVFequlZGrba1cLdaHkOJO8vob4UPfHnUEVpKfKkNOyt3CvLKgP0qdnqrOsvytnQGS2lOCclCiPLFE2emQySvq7gVf/ABArMssiEMKS5vzgpUOc/aiVo23yYUBZZYcRILeASCfL0pn1VelG5pmvxyPrBKVgjPn2qeRNZuSmY6rdHSrxGwdqRyOKLY7MAAIFEUEkmCq4aD1DKnPOlgKK1E5xWUUjebqVEuKS2snJSoDP9KyrC1viV9FT5n1P8h7Vh5FZXoGa9JMuaeGCQTXpGDx2r0jBrAD+VVAAkmZzWVg5JrKtJMAzWLH01lYeE+1SSaE4GVc/eo5fHtrayT+dSJ8fQR6io1e2SQdw+kjsKydbnZgRzT4LcyJySlX0gFRUOAO1V66sQ1M6liOkkHxAcHzqyQiYTyMgcj1oLdaLdvuEJ0oIIJ7V53BB5noaWHUeNOOp+WRnngGnOXJAbUSR29aj+m1eHDZUtXkO9M3UTVTOm4KpCnUtpxyAeTWhWJRyAcmBjrvqKXB1jFVDl+C2gAlvPB9agqr7cbvdEqlllTCBlJwAVVz1g8vqddvHtXiBwHYUE53H2qWWzoZqdVqjnwNriSMhasHFA1OpoqYb3AgUQvyRO2nNbWW2W6da31fLPyc8g4Ch6GpVorSdr/YD8tyIVw0AqJHdPuKjOouiDGnpNvcuIckvTFpSgtAkJJIyfyo6WKFaNAJEK5KXIt6mc7mxk+mCB3rzuvuOwChuWMbrG48r1JT0M0Zcbhpeb4F2cS087+6aCzsSjA4Pr+Vb6sbEO8yWJW4gjHA9ODTrI6u2yyafgJ0y0lOSlJK07Eto9VD+gpr1ytNwkMTdyPGdbK8EcZVin6DUFCrnd5+JxRYG3MMAwDa7WhTUtkNgOMpKQoj/ADBnuPP1/Sobp51lvUdvmsR/qbkhQSSAlCcjBHmaIXUCKlL28lLLr30qdaH4COVA5PfnsPWh1p0E6otqmVLCEyRvUrgL88D7j+lbi81kzjDDiOGkIrukPijbajJ2Rrgh1C0p7bVI34/I4q6dhUpTKCrORjv+X+1VnvdmLXV/S93wElEJxJHA+oEJwffBFWbtb7Xyba0KBSRnOe1CqcMgl9YhDlh0ef6//UdifpR54yfzxQY+JdRTpqMrIA8RQTj3GT7H+1F5C/GIKT9OMZ8j70H/AIlnlnS8dpDSnDvVkgjGcDuD/wBirMciT6dxqllUrs4uNZZjzbIw2l/clMYpGPGSokq/Eg/V37c8djT9oTCG7u7sCWVv94/CQnKucH+EZwfUEGmG6BDjdwZJaU4tK1MuKfUThTQIAUnhIyhXKuCc+tSXQzvjxbgSvOHMpUXt/konPHJ+r8PY8Y4rp6nsKx+oOYwLU5IlNupC0oamoI8Nv90R9I+nzB54HYYNPKPEagXtorfTneteQDtzHSQHCO/KR9Sfv2NM5QEySVHDqJjai4VlLikBaNwUBx3Vzj28qdoHg7322UstsueGhsbilIywtOGweyvpwUq4wAPSrN4kUYzEM3YdMFQ8VTK2oRSHF7Y6/pPAA5Tz3zwTihvqBIc1bfFJSoD5tZIe/Fkn29aIV4KFafDilt+OmPHdyPqcwhRbypGMFPlxUA1K6GdXXsrWdq5BCUDJxnFO6c8zzP1kYRc/P+xnsZl1jJ4QlRKSonHbuAKWeKzGKFqURk43qOB27kfam2OuXlaApKd3ljcoDjv5D704tW1ctalOpXIcA2qx9RHt6CnMGeYHEcbJdIQW6l1TicpCwUtlWHEj6cduDwOPUelW5+Fi0XuTLbvU152JbCz4bMbalZkL3k7tpG4AZwTkAnmqhQ0gueO1lMjBwlI3duCM+R7c1bn4ar609FlhDUoKbZ2vNtDLWQRkrdJ+hH3wDg45zVLBtXMtnIxLQ6itUC721fzrSXEsoKgVDO3jn70GrL0X01qbT92KILAuQdUpLyE8gjkYx7UZrBORMhtqSoPsLGA4MBCv+VI9Mcfkaimnunt10reJz0O5trtb7iimK4khSUnkDd6jNY/1HTG2xLkTIIIOPk9H+UrRaa1ZM4wRiBu+aNTIhwHZniJhRFgeIjIwe3J+9D7q/aNQRoTU2yvoLLXJ8VR3Ee36VZPqRLt1q0Te7ZcFohqcZWpK1nbgnsR681TW5ydUXyxsXbxQbW0rZtKyCtPAJx6V5FdI9ThSwPzkdT0FWo9UHsE9YnHpbqvU111OmJK3w23CQ66hZAx6e9FgdSGLFqB2ztQXrktIBU7wpIz655ocMuriXaEYsV1ZcwFFpJwgn1NFKwdD9QCcm9QnEK8ZQUQ6Sc47flVLK1a8YXAA4AHmHBWpSrHnPcfbj1BtEKGy2mcbXeFkFMYnapRz22kdqjvVzqDqeHp0rgbHHVJ/y1owSn1qK/ExIukO4Wn9sWtm2ogqSpMtJCucg4zjtnyNOknqjYtaaESJL7UeawnaEoOTux3A8wr08qbqValULkjr/wC4sQSxJ/4IEjryZFukKRImrWofW41uwKiPUTqS9qW5hy2IU0QQDg/ix5miTqDoklbgmx3Q6JP1FtBJLZIz+mCOajultIwtOalLMxDa9xwEueRrapFK+5R1FrXtb2EYzILHuF8MQLdW4gK4KjmmUtSpl/YZmu+K0s8lSsgVcK09JhdLa47MdiMW5Yyna39R+9CaJ0Bk6gvlyXbZiDDjLPhpWrG71GfL2piu6oH4Jij12HA7xBRM0XKZupEBWxpR/G2R/OlErRylx0BbxU6VY3KohXGzyNNIUUMlxSD4agrGQR6muEWTFuktiKgoQ6RvWrPA9aYLHGZ0UjHJ5i2ExA0BpT5xp1CroE5B8zXfROo9UdQp7Ts25/Lx2hgFRB/602z9Oi6XYeOdzDQ7A5CqcFaFlW6RFaS+WkSBtQG/pIrPygBycn/EOEtxwOJI7jNs9ukvJvF7Q+tIwE78cflQ/wBTW23FSJ1ikB0qP1KSrNOF103a9NS1Q7r++W6NxWvBIp0szGlLXaVCG59bmRj/AKGrKVHXGYIkk4IkHumhXZFmdnl5wKUMq5ODUT0Cl1V5EQ+Ih0qwkpPP/WjknVa4doFunRW12508OtDKgPLKfT3qPaksdv0Vc4F6QyG4rmFKSUHJSfbzolbkAofMj1KwDr47ia8WliwRE3C5OrUErwppX4h9valmn+oEK6SwhiE6iEkZ3qaKQP61LulN5tWtLlcX34qXoiVgtoWMD9DRKvFqi3iM4xp22sqmOJ8MNNrDa/c/6aUe3aNrdwwqON69QcRZmm9V3mBa7Otv9oyTsUpKlcYGfwDvUj1ppaL090km4Xmzi4rQ7tZkMp8VCD5HJG5H50x2PoxO0VfhPnWxRdbSpw+H9R59QOce4rjrDVOpdRWNURyUllCHP3DRWCrGex8yPzNWJCsBulRuIJkVuVjh3yxruUtptDqznwgSsbfQp9PcHOagWh7nHs95fbLBQDuCVAEoT9x3FFXUl+tdh07bYaoxeuq0gvqaSogHHv2/TFQbUC23kByPGTH3jcF7fqH3pmtscZ4grU4GO5pcFqelLU9KdSrsAl04A8sVlJLbYbldYiZLK47jaicKW8Wz+mP51lH93zFp9baysrK9PMmZ5e9ZWV6nvUknmce1ZWbR51lSSZXi+UnntzWxVnivMZ/vXDOiclnIB9aabm3uT659+1LcnaMDjkVsWN6eRnNIXD1l2iM1nacyNMRcrIxx6VDOpGkvnI7UnZ+A5xRWiW9LTqlrAJps1uhlFjkuu4DbaCok9gMVnPpCtRcnqO16j9QASpusNeRtFWZ1x5SS4ySAj1ocWxlXxAXeFGfmphRHlbQjdt/M+tOl4tVi17qwNXiO9IgKk5UhtRSCnPPI9aPvSvoz01t9qujEaGl9pbv7qQ48rxmAeyUKHKcevesZtUjkV0nDH5/7+Jo2bkG5hkfiDaRoG3dPNtqtUJhycwoKUvP8+2fyolaQZvs9SkXKK2w6cFpOfpUmmW9dJLb0m1N+2kXiVdGJOFobmu71I57E+f3NGPVbFousG3z03RERezARHdA8UEcjA5rzF+gGqssa4j9PHf8A38xttUNiBV7kR1RoxuJaEXa4rbU2ySpSEd0/70N7tqeBcIap1rtbs6LG/G+SE5A7gZ5NSa+/LR3nWXZ0rw1A4aeUSDmm7TvTJy2aeelJfkPRpDiipg8JGT2A9KFWlOoP6fgfMui7OXkVVfos9tK7dbQpp0DKCMfepdqhxEZm3eC1sjtxgQlXYDbwAfUGma92NVplRlRoq0MqO3wkD+dPOqIC5Gm46pW5oBHgkp5zjkH2OKa+m7EuYZyWhrcYWCbU0d+Wlt1wuODxAFqQjIAJI5PqfsKhGmIhh6lQpSlIaSpTi8/wAZxnP/vRkeXGn2jAKkLaOCHBkOKSODuHGe2agDFmLeo2UBO9Tyy2pKVAnbjn+vf0r2NbewrFXX3AxZ1b1dH0ZHsd/ltOFqMVIcDKQtSgsADjI8xzzUTj/HFCtkVqOxp+dNQ2naA48hpKuPMcmuvxJ7Xun8pkDCkeG6dp4zu5H86qIlPOR513T0I4Jb5ltXYwVAOsf7mW1u//AMQG7rheHZtKRor5OPFnSS6lI/8AKkJzxjzqJNfFbqXqHerfatQxrWxb31eEtcdpSClw8JXkqOOccdqr4BXSItLEpp5Sd4aWlzb64OcU8aa8YETptauxX+DLIy20Nzx4RkhRUEFDQSQAncFFQPB/GBtPGBxXnTuQw3IkRnXQoKZSlCA3guhJBWoD/Vwffg+la3qUlampBSoNyNrhCQBlRIGcY/Ccg/l5VGnZ8i0z0zYRCHo0kKCiNwIKs8j0IWP1pIZIntmdUYNJhcbc7BdnstNEuNhLqENYLeUYOCT9XBbPIz38xThBfUzcl5U6Q8lpIC2QpS0gvD6tvl2+oduM9qW3hTMt2NJ8IK8VpDwQrO4HAORnPqB2PbzpnjqTCuMUJdU2Uu71KSrGSkpUc4I771d/+lExkAwh45iGQpT+lilClBwR1Iw0gAn94naoLPbny8+aHWokJc1JdZSh4yHFlIIPGRhJ+/IqXtyW4lk8SQ6tKYq3lqCVEgpS+Vdj67MYPb2qERWfmG3SHDhWVoykqLhI3DGO24EfnTmn4M8r9ZfcEEdIZQpoJJWeQAANo7djnv8AalzxUhxtJWTlQBJVsQPf39M0jgRi40w4N+5OUEPkY9sD9e9OzTDifDbCFEJTkFackYP8IrQBBnmsGcI7pcdSkJSvZnIP0oP28zRZ6S6qmWZhaWfCklccJksyV7IrjW7H1oJ+oJzn+x5oasQJU99oNIVLkHA2lvKwQfID+pxR16IdIbRfL3Mav90EBrwtv7PS2FPOAnP+YRtb9PpyftQNRqKKvbYwBPiERWI3gcSw3R/X/wC2GWbbuMtyO2lK32/r3ZCikNpAw2kDP4sDtjOeOmqviOh6X1k5p9eldRSZDQ3uOtxMJKP9SMn6hzUh0L09a0LAfTAnGNACSUttcjbyQVE8qIBPnQQ1B8TUiZFYeuVoZgyY77jCCV7g8MkApBGQFDBxWPfrrKK8LlSeh8iUWoXWEDqOnXLW9p6nWWFb4sNb8HeHvmXElC0Ec4x357EUKrVpc3jVFhs8dbqrKt4GQxvwkYGR/Oiw3ZLjrK2NLFlfh/OHeH8BPvmh0zL/APDfqdFsd2EhLqyFoDuQHU+qFdjj2rxo1OptvNli9/ieiVaq6fTQjIhc6khfSPRqnrHp03P5lQbUiOjPh5T+M4GcCoJ0N6parjaUkP6kW2xES6pTBIO5Kd3Yn0ov6t1bFs0SLLamoebeSElhSske4Pl71GdD6kgXa6S4syNHQ04kkbwMH14PB+1O6i8rYFr4/PcRqQtl7OR8R81JdumuvNOrTqiVEWlxspIkLKSRjy8vtQG1f8Lbtq0o/eLC26YSApxpJOVhvukkd8Y86fermgp9ngNTrNDYMFUlIV4fGwE9wPTyxU8sfVK/x9ANB5hlbrbYaUFcduMjHlijLeoH6vtOPHk/JE56bg4qOQf7SuV56PdTtLWmJfrM4i5MFsKMLeQtCSM5Tk4P24obai0xqHUkBc2XHkRpaFEuEDaUEfzqzPWTr4vRXTyKuCuO7cyUpTFWc7hnBxj0oI6C65XvUl9Ju9lWu1rP75xloq2DzPuK0a7HKB16/MFxuKOTmQqB1Ov8CELa+XniyACgk/UK6xutci2rV8h4keS6ChzHn+XqOKsf1B0LppNpt+q9PRGn07Ql5trJ8RCvPHqDQqv1otF7tociWltmQVEh3wwlQPoa4bKg2SsuA4XKtG3TtlevtjkSZ8lW55RcUSOTQh1XMYtN4WzBdcS4j+InBB/uDRptN5l2tTNsUlJVsOBwc+3NNUrQ6r3a5k1cdtcsuHbtA4T6kGj1Ehtx6lbUG0BO5CdKamejW5xt9SlynD9OT5VNX+oSLTItcmQ0ZDjY7EHiotaNHKcvUeMVobWo/VsI4pd1F0lc7UpkRECQyCNxIzj3qzLWXx8yq2MqRr1rqqNqS/fPSAUIVj6QTgU5uv2CNp5p91YLhVw2DlWPauEhuzW/TTjM9xtU91H07edp+1KOnHTO3X63h24y1JJJ2J3ZA/I1clEHJwIFAWfrJkwsmsdPsWFLcCG7OkhP0pKMbT6VH9QtXzU8YsXiM3HZWnc0jBISn19jUgh2q02AOsRZLSJiCfDynG7HrUaFg1Rd50iTOeU9F8kpJzt9BzQnZFG4HEZ2uRjH9P8Aee6Ksl60sp8Woh5pxv6snhI9Qa26c62v9g1c9OjXIrlBZSYjhSWz69+B98VMpuu7dOsTNggIcZlNI2ObEZUMefAzQ91Am2aIegSoS3HJjmVeIFDjPf3oNNvqePdIyFRweBDpdOuFxnt/MSm240hIIW0cYJ9QQf5ihRe9TzL5qK3OrwhhLu5a8gE/pTPZUjXnit+KIZCgFuKG7J+1GnTnw1WCVZkyZ+q3GFt/WfAKUjGO3JzUKMCS/cJ6gdQEHE6TNO6FvmmJDM+Ulq/PD/h3Q6oKCvQDBCufKhu/0q1PFt7inoLk6PsVtdguB5BHukHcOPUVNG+g2lbq+mQjWk5DCFhLS0vIyVZ8l4/lgGn3WSbz0YXAZgX5epIi2/oROQnxW/stPf70uLDUQR5lRX6h245lWEHUWnyuIwqQ20FFQT6ZrKIU/U98uc16S9FR4i1En6Ar+eKytkairHYix0duejPqSeDWVn/eayvS+cTCmZAxnGTwMnuawHFcpOA2hffYsK/niutVBySJPGZ73NeVlZVpJlZWVlczidERtJPivI/0rz9gaVoSOARXMJHzKyO6gM11yewoFa4HMux4mA8dqiPVNh6Zoi5R4+Q+82W0YGTzUiiXNqUmUpOUoYcU2okcHHf+tRe83dyda7jNCVJRDJUhtfG9IHJ/vWdr9Sq0lFPuYHH8oxpkZrAQM4xBDo7oTBFnjTyhxuW2+PmFPK+p8eYB7Afap1YOjtlh35c6E4uE64ncQhZV9wEk4qLDqgzcdMyZypTUZuO4VpjheVLT7f7U3dJ+qEPX+qXYEmc9CQw2pSSPpUTnjnyFfOxcovVTTuHGTkD+s9C6WhWy2MeI39duiGsJMs3O26nbetjqwlbMlvY6z6bccKFTfp/06mRrPGcvD7D8JtriRHOHUq9x2qVXjQx1DGfSzd5L+MFLjisjt/OoXHbudku7lquD7ggxFgr8FZCXARwf+lO6tEVg99WKz0M55/f4gKXd6tivyPxGe9P3mG7fVvrjuWuC5tZccbIW4kAHd/PH5U9WW6XJ62MeI94kVYDiUIGMVMrwdL6ysZg3BxplIBSlWdo/WoFEajaYu6bIu5CTJW2Vw0tfUHU+g+1ee12kNSo2ncEE+PjvBH9o5Xd6qlWXBH/MxF1C1xZbfJjR2Li2iSyjc4lafXyPvTWu9Ju+jA+w6pwPOLCChWCeOcZpB1d0lcnLJNfTpVdxfkt7ctkB1r0UKjmjG34fSizQ7hHcts3xJADUoE/Tu4VkcjPHFb30+nLC5lwYQFNgRTmeXZxVodWy2ttgLAUltxJaV+HklY4NMLaXJd6iPlpDqgWgXvESSoKIGMjByQP5U/XeUtbBS2XVLQUIbKCl1CvVRB7djUVgqEK8RcpQiS5IK8KbLeUIbJPHsVcV6VBlTicbjuRzr8kOaNvjigfpbCVKIxlWQcjy/KqiNpFW26/uoZ6ez1JVkvpSoJCcYG4Dn/aqloTjnvmm9J037werHtr/AGP+Z0SMCvMBK888f6e9boFeLH5U7E+hC3J6nWG5Q7eXn5EaSkIS+hccrRxgkpI8jjgeVLY14tN5aHgXSKomTvKFuFtSWxsO0hWO+3yoJlHmK7sc9+R70u1Q8TWr+oWs21gCJa2UBKslpWl1t5D0cNpKVFX8PYKBxjgjGe9NNxcfcQytK1jLzgCgonBCF5A9OyQQOc+tAmzayvOnm1JhznEIUMFCwHEfklQIH5U/Rest2RFU3Jt8OWEAKSpCVNEKBA3ZSfTI7ds0H02E1W19J+/gyX6p3o0jfltgAMGUgpSnCTlZxjyBIcHHfFJZeglWTQ9hv1suTd8t5ihuTPh8NR1heUJUokEKG4oKSAQU8ZBBqFak6jTdQwJUURWI7UlQLimslSgMYBJP/KPvxSfptcmm06jtFxuRh2yfaJqdjzivB+YSgONHb23FTQSD35ohFigMnj+8wta9d9g288SRxr7bIDRek3WOEEZ8NjLiz/ykUlb6yRIt4gFNmTKtjEhtchLqylx1oKHiJG38ORkZzxmht4R43JO7HOaIXTf4fdZ9WLZcLjYbdHVbIKR8xKly0MoTnPCd3KjwewppmCKSTgCZGzxL46Z1r086jG3QLDo6Zp6Ay1uStcEspKe+Nw/Eec5Oc1Lb9Z9N2eI7ESWAqQnLToUNyT7HvTX07v2oNDWLTluudnZmzWLYzHcdjKyhxaEBOQSAewHOKcpmjZbdyuWpJ8SOhU7auPFWc+FhI4HkCe/FfOdVT/F+pepy2e/gDz8czQT9FlU9RZoS+yrIzLi7lzYykgJKyTjj38qD3X+0WRxiDJeS2yto7kqHASQeM0tvUzqBCkpudns706OctqhsgFR9Dg96ZIOpNM9T41wsmtVr05e2fxW+YPCXjyI3cEfaiU1XD03fJ2/4MYYUqzEHkyT9K+tuo9V9Pp9lispXeIiCiHNUQlC+PoJ+x71PLtpn/wAVenEFWqLf8nqyGkOodYUFhuQB+JBHdKiO3vVcVyF2aMY+m5CEpjq8NC2lY3jyNSvR2ouqMq2Spkd5CkxxgCQrheK0VsfJJHH7xG2lc5EZEO3Y3eTCu7brciOcJUvKfc4B/tUz6fzoEPUbAuaA4woHg87Tjg0zI6tJvSHIepbc0zMH0+KjyPmef7VJJNotkbR0mZpyYxPmra5Q+vPljHqPvQCWf27eYyMKuDCDeNV2K7h+xxXFKVuG1CfIcHio31BtkLTbUK4h542hsgy2Ur7JyPqA7keoFVU0f1quGm9WPuyYhlSmCW/DK+Qfv51nVfrde9Q2vYSplElWTHSrIH5etMfw9zWDevcCpRVLKZYPq230Wv1ujzXJcJ2cWwGyy79Sj7gef3obaDdQZEi3w2UKhEYQcYVjy5oA6f0LdLtdIUp+M6qOtQWpRzjFWU03f7A5b2bZbnG2bnH4UArnIrQ1NRVcDxAUFmPIkitc+6dIIT05m0OXC0EqWtoL5TnuoChdI6qRdSagnSS0mF47m5DSeAPc+XNO73WOV+0ZlhmvpIxtSFH+YoL3WE+NRO7GlKC14ARnJJPYYoVNJce8Rm8CpQwM5dUdVOxtQIXbXtzm3lQ5wfypLpvUupYFpmzX5DgQvONx5/KifcOnGmJWnmXL0l613hACwo/SpXsfIimL9nMzI3yUcYZT9IWeAfLzrQFqBQgESFblt2YO9M65lRtQMyty3FhWVJV3NGGb1HZu1nktR0mRPcTnalP4eKU6T0fabReWZz1sRIKW9oRgEbsc03X1EHR9ykym46IkuUoqDeBwPsKG7I7ZA6lillY98Bq7TMuM916QHkrQrO01NIF8cTAQynxUqQNoQRinyzLdvs9x7YgAEZAT3FTtyLaGoqHS02hY+ngDlVGYl1wwlFRe1MD7+mNVXh/5+My4dpHO7gjyzUo0x1Hu+lJiUXRlTraSEr3c5/OpDqm7TrVHYbjl6ItzlCVN43j2PnXXStjm3Nwyrja1SW8hXKAoq/vSzgPX714jFYet/YZPtAa2tGitQx9UQbM9cmZpDTjUZsl0k/6Rjk+3nWdbLSz1S1JbrgNMydMQzlCJMmGGVOr9COP0NSfTPWC2aCuLCbzZlwI7CfpBZIKPQ49PtXLrP1Z/8YNL+Fp+AtYiOoe3KBClkdgnig1L7fY05Yctn+srpN0fN0vcltXH6GAvLLjaiEOf3B9qmuk9WGy+NvSJjTiSAlat2PzNFe86LVr7pSqXdlN2OcwzlKHGwtWQPPsefaqxaVtV6kTjb+EtpcID6wVJ7/qBRmrNoPu5EorbCNohAVItkm3qU7OFvlF4PDYscEdsjt+tKNULmMWeJORLW4h8/SVkHf8A8wHkPtxQ+1TbBZFqRcEIkuD+Jg70/wC4pz1JJlyJlnmxUPfsZlgNpZUTsBxyUpPbPn6kUIUbsBuYRbXRiVPM3t2nr/f2VS0PtpbKylIWOcD8qyptpLXOkbZZGo02G4JCCQr6T/vWVzaBxsje6w87zPpE2lSUJ8RYcWAAVBO3P5V6OBWAZHvWYI717cDAxPHzR9O5heeRtPasaVubSo8bkg4/KuoAxz2Pek8Q/wDDpBVuUklJPrgmqk+4TvidqwcmsrPMedXnJ6RivK9UcCuZcKcEDIzXCcTom2P3iVZOe1MOrtVM6Ygl5RCln+EHml1+lOQ7U8+2rapI75xjNQm46WGqZ1vlTZsVMRg7FNb8l05yMn1rA+pauysGnT/ef8R6itWIezqRGR18U3KfR4EdlL7edpUDg45UfftQ3iWfWmv9cypbt++Y00wgeJAQpSG3AecHZ3Hrk81YK8w4+m3A4u0QEMKOEPbAR9jxUNd1ZdbA9cpdi0+1IjyAC6GW8Np/5jjv9hXiHtYWmm5yWB5yp448eMH5m7VtZd1aYHzmRay9JrJMjF+4QW0o8TC4iXDgAdiCMH8qcLNoXTel7xNkWqOIinUY8z/M1FDru/T9YxrQkxXrc0R/xzLahkq5wR6j0HqB60abVpRN8jOpcdCXQnCFhPnWU1Gqvt9ConB5/PEPY4r/AFXPcaNF3S8TpsqzPyVR4qSP3wwNnmAk+9MHXFF40rp9L/y6pipbwa+dZVgM58lj38qR66sWpiiS1aGZDKo53SPBSf3gHkD5/lzTDCuWqdfaebZmS5TlojL/AOMhqaAUW/4VbvxDBHatSra1GzUqSR1nx8g/8zBenuIurYY8iSXpxp+4XvTVqN+QxcrQ04VLiBG1Z5ykrOeR5kY5rvrjSl+tGrEXnTNhQY5KWEZWn6En8RxngfamK0yblfWH49nvDlnRE2JQ4hCVbxnkEH1HGf60Y4kgXOzxohlradbUlYUo8O48jVqBVqF2OuG8eP7+BBXO9Tl15Ei8e7dRIs5MO5adbk2wo2/tNp1Klt5HZTfcj3FR2+aIk6qkxY1ukLcfaKkr8NvHh57lYOMe1GO/T7jb3YxtzKpCFJO5AAVtxUbb1VOhXVbkiAGXXwEEeGU7sdvvWtd6WkuCszcYBOCR189ROuyxgWUD5gY1P0q1DaGA25BZmvFOAGBk7f8AUMc5x60Mzpm5x5bzj1tlQPCbU0hLzZ3ELXzz3HASfzq7bEiQWipwMpdXhW9I5+1Y5GQ+B47SHh/zpCs/rW4iZ5U8H5lhq2/1ifN34hJjjGjW48hIDi9iApKvxjdnODg+lVlDrQ7qUPumvp78ZXSq2ap6JX65xbdGZu1pSia2+0yErU2hX7xBI8tpJ/8ATXy6eQEnHNMU17c/vL6jWGzaAOh/vn/eKg+1k4cTj868VIZAP7wH7A0gHFefrTW2KnUnHQndUtAVwkn86MXSHoe91X0Tdb3CvkWBKgTRFVAlIUd6S2FhYUDx3x28qChTmrX/AAOaci6xgaxtEi9u2d1L8N5HhNb1LSoOIPB90gfnWd9QayrTl6Tz+YXT3/qAueIO7j0NvNugz5Ltwtm2K0t0tpdV4iwkEkJG3k8cUI1XMNuhbYVkeecfccfpX0L6w9Brvpi92sWq4G8W+Qhbb/isYcj5GMqI42qBIB4r563+1uWW8zre8kodivrZUk+W1RH9qB9PtssZqrz7hiN6rUbkV6+j/WYbkjbhLJHtu4pEpwrWVAkDOazArwjFbQUCZb3O+MmeYKld8knz5q+PwYWB+8aAu5afbZTHda3Bw4BBSfL9aoenhQPvVkum+trlpXp8tu0pcU/LmNtbWs5UfDJAwO9Ja2v1KSmM/wBpfTnFnJxL0x9EqkS23HdYpbebSQhoIQEj25NQ/WF4ubHiMOagYnRberclCCApR8gcUBLfaepOr4ralWmcELUAouJ8Lb6nmiXF6a2uG5GRc7sID4SC624sFSj2868Sayi7UG3PfZ6/tNlWXO4tux+Iq0t1/GlnnU31xbjW/e2UJ5Sn0oU/EyiB1Qv0bVNmkJ8QMBktAYU5znNF/X/RPTt0iNKiXRZWhO5IACgriq0dW50XpnK/Y5iumStIcjSivGw/l71saVWYAI3XjuL2hDlyMRs6afta0X5pNwaejwCvDi3QcJ+/tRn/APGO2WFc6G1cA40cbFJPCsjtQx0J8SDovMJmZYmZ6lJDTpI4PlkcVKdW6SteodR/tePCjQ45RkRm8AZ754qmrwHHqDGJSr3LhDmcr5rODMitT16elzbV4g8acygng+vpU0urdgv/AE8k3TT9pkxfDR/nNZSvGOT3qD2bVkqysPWcyGmLcs8tqA4HnilqPiatuh467ILci4xXQQpyOOBnjkVVKzYQUU5hrG2cMRNtF9PtK3OwJfksqTMWAVPk/USfPNQ3qfo6zaQ1Na56UuyIiwf3XcE8EVPNIKZv8Ja2nVQYr6ipoOAgI/6UydTY8e12qMluT+27hGXuLiE/S0O/+9N0X2O5DDgQdiAJniQC4dSZ17Q7Et7ot6WknCD+LH3qJaUtU9u4PXhMpbYbV9TgyM+4NKbjo+XqS6CfBVsLp+pKRhIPpUy0dYmo3yVjuknwGX3NrpSPqH3p/cqrxzmJ82D3cYkX/Y7+v9ToZt8vwpzigA6vge+KJWoumdx6BN2rUN1ujN7eKv8A9ugZCVY4PrXvVnRMbQV3tv8Ah+Wh5lwZB3DxEKx3yPKoQq46lvc0RJSnbuUnLfiObto9Bmh+rvO0dTu3HJ7k1e1m51HfclapDdvirThsI7pTj3qNTnGXlmNZHHHYzX4XfP7U8QLSj5xFvvDKkyFD/IIAUB5cH+WKa4FxRp++yokOI5tCsBPhEn9KHu2j2iFAyQGOPzPI/UHVmk7e6y5Z3JIIyiQpGdo9aZpumrl1DgJ1A9P3yVcBhPJH2FTtOpnrjBlOrfZea27PBSn6k+R5qbaM0FbbRYWrxGUp443OnukfpVxZtGcYMqQXOC2RA5YNO3iNG+Wi7mSvgqJKT/OlbulzDlxYbl2/4zduwCThXvRvdudjmwnAuU2h7bwpOCAf04oNXKwvM3FUuO6JpQoqQvOT+vr7iuJebsiXCKuAJL03Z26tQ7feoraAytIRNGCj7keR/r50Y3Idua0ypVr1RGcksIBbbd2LGfyII54qu1ivb82YG7luUj+FHPJ/rUhn6JYEYynELjvOjKeSM+lIGreSoOI4xVhlDmF3WmuNNS7dFk3+bCbmwWgtLTZScqx2AOcjPlUf0n18/adrmqtNtiYaGQhTm3I9h50H9daFt8+BClracdkqAQhhvuo+ua7aB6IXW5MqjtR5cR+QrAbQspRjyJ8jRvQVFBL8xUM5bbt4hA1pd9STbZHF6hOxokhfjB9P+WpHoFDiovq13Tk21pjwpiYyynK1heFZ+9EW96H1PG03F09qC8ZjtpDaDwHFgdskdzjjNQWP8P0bxlFctx1lSs7FnOR510KFH3YjCq+OBGKx9HIurEwpdt1CqclScvocOSk5xgKz+WDT83FiWqS/YpbwW5HWAkKb+n+Xb8xRm0hpKxaWsaYlsjNMqzkuAgKP5+f50ku2nrWtxbyiyHV8qURlWfuKpvLcEwyUgDOOYMhbGGMoVDQog96ypTc7auXKK2kJ24Cc5PJHnWUTe3zL7R8S9NZjNZWEc4r2c8VMxniuEdOxyQnjHiFXHnnmu9cE4TNWMY3Ngj8v/ehscEGWE71lYD7VhOOaueJXueKOBTdcrzCtEZcibJQw0gZ3LVitLrcmYCC7JV4beQncTjk9qg2r+n07WepQ+9cQ1ZEMpQuKlf0u87vq9qytTqnrBFQy0dqqRiDYcCOcTVds6hGRDEKRItjaSsvk7Erx5DzIobr6RvXiPMegypdhbdKlI8YqIUQeAAe3lRG0lpq4We+NBxttu3oCtq2VgpV6f94pt131Cdtd5ZgPMuNpJJQyhBWtR7BSsdh6V4bU7rKf4zV5FgJAAHfxz8TVrY12enpz7ZBHtZnTTD9pvN2XfJ0ZoB1UjhABHBCR2OP/AHpV031i/dU4bSW7S6rCHSraDg87acbnaLH1CmIbnWRyaw42lt0tMqadOOx3DB471D+o2k3dKWiFp20qedhfUqMpxO15KQMkHHfHrWAPWv8A1A3OcfHGP78zTpFbv6LcZ5hNsl/0ter5Jbt7aHXoZIWCRnNOd61A5b2Qq327wy5wF54z9/Kqs6cYumm5xjNuSIqVEKWogha/1ogM9R7rY4Trc47om0pPjAJOPUH1o91urpPp14x8gDMZt+mqMMjZkxtPWbUdqfdjXCzN3De6QjwnNi2xnurPBGPTFeMXtL1ymTLhFWzEceA8CISQtB7g45NVX1x14bS4Ytvmrek7inDR3KPPbipV0l6b9S9TRY+oLm8/aNNOuBQ8Nwl55OecD+H7mtMVa21ENjAqvzz/AF/88RAnTVZHz3iWjuQ0J+zCzbZkG2TfD3teH9KvsQe9Ri06nuEmQ8yxCXNYaRs4QQFKx3FRZ/R8PQUtyXDNxv0V9weGiW0HFMHz+vGTUlt2q5EPwZsWNIQ8FY2pbJyfQiktXqHN6n09o+VEJVSqofTO78GDy7dV9a6PdEhTai2hagllDoWvv2KaOOhr1fdVWGHcb40yjxQHW2QjatOf9Wa4NX2z6oLUiVZ46p5UB8wlsbt36ZqZx0DwwMYHkK9FoRVaA1VpYD/nMzrm5w64MUIJX5hPocVsoFICU/iPY1o2kpB8sGtluJSlSiew4r0I4HMQ/EjWtHYa7TNgXFSPkpbDkVwL7FK0lJ/rXx01PaFWO+ToDhyqM8tkkee0kV9VNUW5esuoD1hQ+uO4zATIyT9GFrKe3rx3qgfxYdMZXTHqrLgSVpeTLYbmtPIHDiV5BP3yk0lpbLW1Dhh7R1DWrWtYIPMByhya1rdfBx51qO9bgic0qxHwP9Th046pTw6AYtygFpeR2U24Fj/+b9arxtqe9BWYsrrHpWFOfEWFPl/IPvqGfDQ8hTe7H3UP0pPV1G6h0DYOOCPELUVVwWGRPr/ZNY2DV8V0RnA8HW/3zf4vpxgZx684r5TfFtoF3p/1y1DDWytqPMUm4Riv+NpwcH9QofcV9GugnQJnpPEmqRqGZeWpZAHjgJGEnvQD/wDibaBRIs+kNZtIAdjuOWiQR5oUC60fyUlY/OhaRLmQWXEE+DjGR+3/ADmUdkViqdf4nz9r0DH/AErOyueKwn0IrSErNkH6/wCtXI+Dqxu6ks09DISX2pbKmxt3kHaeRntj1qmqeDmrz/8Aw7tSxbNG1AJSkgKcZG4j8GdwzWdr19TTsu7b1k/zh6GKvkDJ5h/6gWLXdhCPDX89bNn1yYKMKQcchSe4+9BnW+mpd4jRbo/ZpiC04Ns0qKd3sc+VXAuOvrHbYD09dwYciNna4AsZSft/ao3qO46d1NpV1yDNivxgsKDalZAOc9q87qdLUjF6ruh0T/g+Y7TqLOA6Ss8/VEuwtx3lqceUrCExWBuJ4oJfErb7lr9633yNbnojMVBbdLwwQcgcj2qxOv4TCb/bZ9gjqFwQr902j/LcURggjtQU+JxF+0zZoib6lLC7mvepLC8oT6/n2NC+mbgFFRBGY7qm3AlxiB3SMiPFkBhKW/mEjIdJyD9qlY1lcJ0tmK04hl3dsIcUUj0p66GWXTC4xkSi3NUvguOf/KPtRL1PofQWoGA5KuqmJAGAWQBtHkK1rfT9T3iJ17tmVME19sTMWQwmdPS+9JGPDjL3EZosdDOlFtmxXkSbc0lTbgKVy0fvFn8/KhnpK6WHpjrR6U3b/wDEbTKv3TshQ4qzWmOu8PXsCPNY0nJtaEDZ8w4E+Gsj/SR3FA1DstfsOBCINzDIiqXLtFkuJs060NlScFoNtjCh7VL77oW2XnRzy5Gnkhl5opBabwoAj9ahke3SLtfFXRD3zMoctsnk58gKsHZ7jcZOmGERmWlTkNgOsOqxzjkcedLaM+sSS5x/vO6g+mFGJ8yTdJFk1G9Ykp8Fxh9bQbP40gHjPqMEV3kaIvGo9TiRb3lspbwVuentTz8WNlnaQ62P3V5CAqe0h8JaTgZBIP58Ct+m3XjT+moji7nGcU/nKG0pzvPua2BnaHA7ifBYqx4EZdb6CuMG2LkfMvypCRy44ScUs6B2GPc3VuTbg4zLCsJBUPpPriiTM1JcepljmCNbm4yHm1FCUgZx5UHOnd7j6KnTf2hHcU4y4pCht889iKBuypWdZQGBXqOurdMahs+vHJqlvG2BWGpyk7kpHmkj054+9P2i9T/s3VMaWYzc9pGUuOpSTu9xTbceuEiXdQhUMPWdKMJYdRjb75pZohyJcNN3y+IkIifJLUpMXtu4zgCqtu2A4wYdVDNjMLmodEaV1rbPFZQmzzJRKjISAk5+3AJ9jQohOzNK2yfp1V6MiPv8ILb/AIweAQe4+xqAt6/1JrFchuG2pyKkFRQVbfpHoabW35d1sMmWXlxUod2DdwSrPkarXVcOHMtb6Iwa+4adR9KZmnunXj2l1yWt4b5ClHcojzAPrUV6e3+BYiz+0ojkiItOMqGSPvXPp71DvWmlFFwkPXOGEbfAdIP0+x9KKI636HjMohy9OB4ujKkttpVsz6/9KIMLkEwYHAYRTZb305tLIlvshC1r3JcWSraf6j+1ddU9SW9SJVaLFCauEfwtypOASgew86HN701D1xf0PWJswLCBucSs9j57QeRSCbomdpW8IVpuU5KElO1UZKwB9+eKEqoT+ZFJU48RW9qVCx8s4oteGMFwAZB+x70stmrtRxXEfsvUbUVlofSrA3Z/Ok0HptfUxnXbhbSypxQGC4lRNSG9dE3tO22HcPFZcDp2qYCjx+fY/amA1bDmMKzE8RBJ1Xc5Fzi3S7XN6+TWOUtABLY/LtTpYtX3addn3peyPCUPoaQPw1H5dtXGccYDvhhI4A8q307qeTYp4gLtIujL/dQIyn+dR1GM8QytsPPEnka8+OpwJdKUdwrPb+daXENr8BbcsuLQMrSo9/cVHLpciiR4ES0rYbUSHFpcSsp/LOa4Wm6NzQpJcC1t8KT2UAPWl0XPPUL6obgGSIapjMjYU7injOO/8qyoxJcZLuWikoIyO1ZRfTnN0+jw5NeqrwcGvSc16+eMnlcngEPMrzyVFHA9f/autcJqg2wXCMhshf6Ghv8AbLL3O/kOPKkF8vEWw212bLX4cdBAJ8+SAP50uJAPkBUdustF3fMNL6GmcZW4W9+PqH5DtxSupv8ASqOOz1L1rlpxduZRKeVKCFh4gRWHwBu98GmuVenrYVzCoIbWrY522q9sUm15bWLc+xKlXB0x431xYa0bvr7EBfcnzxS+33y3zdOJQ5GXEQkb1qWkKOR5jPnXiNWzes1D2bDjOfz8TXRVKhlXOTiRFfUGch6QmBCfdQ2ncptkEDb+dddLTp+vlftGFBU2gK8IyHjg5HcZPNL0yWytTrDhcbcwQSQTj04p+tl/XbYDkdiMglGSlY4Az6jzNeP0mopu1DVam5tnznOSPgeJo2namaUwY2O6pkwXDBlOKbPilHiBOORkHCvQGo/Ov1qFyt7Ep9uPdVp/ch44W7zyUKPfI9KQXUyJMh5YcDpkLKXP+VJOTgeR4Fc75E09eY0Fu9Wb9tMxngtoIJC2VDjcCOatbqBq9iG0gc8/4zItW0biOY4XrSl1vV8UtphqSw4kpYW64kKAx51Fb70EuF7Upy+viJbwgtqYLu9GCOFZFT6L1BsWnVSYTUQNllKUJSr6V7j5bjTtcdZxLpp0lxGxLivCcbKwojA7e+a9DpNJpKgbmsJf9ziCOo1QwgHEG9o6b2TQMSDC03ZbRNU2ne5cnGkqcCj33E5JNERMfUb+nZceKGWk+CFMubdqQfRKRQ8N0vEnW9rhWKHDTYiyh2bLmqKC0rJylIH4+32o5M36KHvDW/HQ0R9CkKIHbtin9Gld1jNdaVHgZ/zB376goRcnvqBWPBvU+yLauTsu2yWnCpCVKSkPK75I77TQxhdSblqvU37Fn3ZzTtsaPL7bGFO4PISasg9Gfv2qXnZCmSyyghtKFZ3J/wB+TW0TRNqgzDJZt0YPE/jLYJqLpF1BbacqCQPzj8Qw1Wwe4cmJ9Es6fhQm27ZBflup/wD7p9o/UR/FuNSpKASVYCRnhIOaRzpqLXGUSPqSkkIbSSVe2BSK0aiVdo61OWqZCdScAPABJHrWxQK9OopAx+wxMxt1h3R5cOFY9aRTXUNIccKglDaCpRPtWrzii1uUrCuwAqOdQ7sq2dONS3FvlUe3vqSPcINGducCcAxyYNeq2t3dAXe3agXIabTc2ww26lvnaOQk/rkUB/jnUnVuktC6lCG1Pt+NDeeH0kpWA4gEexSr9aFHUfq/feommdKwnmUxkWqP4SHW3PqdVgAKIPn9Na69u87UuiobEl10pjREr2LVuClJPKh+Xn71jVaO2jUrbW55PuBPH8o+fTes57AgGdGPzrn2NKpCfrJHYngelJj2Ir1vcxx1NaWWW4rtF6t05s7XIslp9JHkUrB/tSOvFAlJA4PlXSAVIMsp2kGfVrRHXmbHDKZsdibbnfqBZcAcTntgVH/j0mHUfwxftBmM802zeYTikOpwQk705+2VCnr4aeg2h5XT3R+tPknJ1yuFtZl7pLpUhtakjcAnOOFAj8qKXXXp8jqX0b1XpdCAHZcFfyoA/C+2PEaI/wDWkD86y9Do9Rpx77MoOhC6m6m1gUTB8z4sq715nkCuj7amXFIWgtuAlKkEYKVA4I/I1omtRTkQM8TkZFWL+E5s35eobEJi4Dj7CH0PtqwpOxQJ/luqu1Ej4f8AVqdI9SLc+4stxpCvl3j/AMquMH25oOorNlLIOyISltjgmfQqf0Ftz0BEjT7su+2tTYU6lTviPb/b1yMcUKmeodmtFrulotSZClocWwVymi2pLgOCjJ8xS2N1Lulj6hL0zoGTcJ85DZEoOI3ISryVjtjBBB96dtOfC/qTUKS7qi5KQ09KXLcZCsqUtaipRz+deJr+njU+68H8r4yPPyJsLcaeNwI/vPenJatSoEmXeWp01Tg/4BA3qSkn1FSD4nuk7vUyHZYcOCZLoCnCknaQAB2owaR6WWTSMdtq3W9iOEgAubMrUR5k1Bfiq1RqDp/pK3X7TRT+04khICVo3pcQeFJI9O1bdOkOmRmXjqLWakWuJR/TfTSfpnUz8OTBlBhlwoUwlJBSc8bqOvRbp9paRdbhDv0R6fcVqzHacSooSDwAk9iRUj6W9QtX6uclXLWOmoFvYeTvE1v6SewwUnn86I9o1/pS222b4hVGng5YdSnIX6YNZOo1Z/iTVbx8Hwfx+8YWn9IbF5gXsPwxNWTqof2/OagWdx4vwWHBuS7k5DZJ7Yz2oqa9kHpzHEG32iMqIE7m/p2trPsMd/yrLrrxnU0YR5wQ8gqSUDGVZ8jUquelY+s1We/Qr28w9bUlCoisLadBx+JJ8xjgjmh166rWOdOuev2z+JyymzTYZxA3YNIa+1fcm5rBb00veHEPoJIKfQoI5zRksWidQ2tz5x/Ub0icoAHa2EoP5VLbbc48qWmK2oOPJTlRSMAU/t2txSSpRDYT33cVtaaitk/T/tAXXvu9+JTb47NEyXbBp/UGS65GdVHeWB3Cxwf1FVR09pZd+caXGZW4pC8H6CcV9KviC0UdbdJb5DZOXUNeO0sDd9SPq4/SquQdIPae0nDets1m2uKAcKHUZKjjNNB/SGz+kCqCwwfwtQXDp/qa3JukqRDtLh2OKCMFKe2ftVgHOhuhdUwxKt13fjzZSPGS54gVu9yD3qsmv9WXi6agQ3coqZ8RI8LcgYBJ9PSjj0c0+ixRIdyvt1UHG2ilhjGdqCOxpK4Ee7qXUDdjxIY7o02t2UJqUXOIw6WxISyUpPPn5CptZ9B2d+yvrYS2hLg/eJQcge1TrWHUDSr+nJUCLcWg6oHLRbH1etRS0XRjUMFbVpg/LOlsJIQMJUfL/wB/TvSTBn88TQqsG7JxB9eOnKrW83PiOpt8dAIO048UemKb7PZ9OTZERy8SmnfCWVphtcbleRVU0c6c6xn3HbeIDhtmOHWnAtGPfHb+lQHV/TGBprURmKliG2nks+JlefTHvT6n1OM8xeza3KCZ1FEKREWiyR24az6DGBQ60y4xEuzMa6haUKP+eDxU8sL1mm3kqvDD70Q8BLZIGKJlzmdOBbXURILb8kN/SkpyQfKrDKKa2GSYuF3HJ8SMXS6iwWX5mG2HoyRwlCu59agydUXeU8JcXxI74PCQSP1pxiRpkiSph4iJHUsq2K7Y8qUKhuwXzsfaca81ITyKvRStOSeSY27erggYm9s6iagckhNzU87HV/Fu5B/tXfXXUe5PGC2wHC2k4KlL8qRxWxNeRDZSXHn1YS4e33zSW725u5zVW9YU4+f3agk8pNF9GvdmC2488yfovmm/2AkynWn5cgBKkhYJSqolNvKNLyVWpDzS7k8re2rfwlKuyai8TQFgtRdaukqZFlZ3trGSE04wOlunNS77m/qGSh5IyHXDgjHtSwVVJySYJ3cADEi1yTe4OpHWXn5McPHO5LpUkmnvTynGVLYQpanSSlSj3PrTlN6Z2yPAYmI1Yu4Ar2obI+o/zpbLhP6cbTLiW9yYjyVsPf1NGV/ads7WnOTNmoN0hNpaaQnYBkbjzWVB5eub/JkLcQ34SSeE57VlA/8AcfAhd1U+vFZWVleynmplauoS40tCvwqBBJrY9snj3rjuU+SEpIbIxk8ZobEdSwz3E8/wnYxU6pLbIHKlcYqF3bVqWvCt0NKGIaXEpW62MqUkHJxUnv8Ap1V5DQ+ZW0gH6k5yNvmcetcpMGDpaGpyLHSqSs7A46Nxz6k/asDXmytHvchEXsnnP4j9LV42/cT4kR6pa/fjWhmJp2y/4glynA2JbwKIsNJOC4teMlQBOEp7+ZqG9UZEqV4FssT4RHbKfmpCSR4x8wPyz+tTi5a1RpqCFzkxUwW1b1LcGAgZ7+1QjVOqoesZEe7WuO43bJbf0SkpH73BxnA/rXl312l+pobQ2SMDoj+81tLU1TjIIEWNRrLMhNrsIXbXI6CmT4i1LccOP4snH51x17dP8P8AQrUd9t8kG5JZSmNk7tq1LSkZHn3Na2SM3+9jRWFuPSBhYP4lAD0rsegjN8cQm63CcuAkJP7OCwGgR2PqTWdoazdqG/TBH7Q+oKqu0tjmAXp91Q1ze5rDa7A1MioUBJkIyltsepPqfSjParjJiPvT32RHjKVvbbVwlGewye9SG8dLblKsC7DZnY2m7QtQKzHyXlY8yr1pJG+HK2zw21qC+XW/xGyCmLIkFDaleqtuCft2p4/R8sPRQAfznV1laod/Jgx6iQo2vZ8a6M28agchLRmBb31IUpWeCoJ44PrRB07Fut5gj9paHcssdkhSkO3AKCvp/EEpHcUUNK6EsWiYIhWS3R7fHzuIaTgqPqo9yfvUhXEJA2FCz6Ctuv6b4Y8zPs1W4+0cSv1/s+pryWY+mre7EjoBSpyQMII9ieaWQekevLi/Hcm6kYhNtkZaYSVcfc8Zo6BjHKjz7VtkBOOce9HX6RpycuuZU/ULAMJGCxaZasmHXpLs2WRgvvHv9gOB2p2UobgAoZPavJb7MZJdeWlptIyVKVtA/Ohvqnr3p7SKpq3bm2+hhveWEtlRUfRGByftR2anRjaBgZ8CAVbbjuHMJDmBkkgmkb6xjA59ahPTL4h7F1Pf8CFZr3GU20FrdlQCloK/07/WprcXUlxx1CRtT+EAYyKK5QrvQ5/zKJuB2sI1SZBekGOk59KgPxIzjYehGqBHJRIfYLKAD3KyAf5VNrQDKnOOkYG47R7Uk6rdNE9WNFv2FcxUFtbrbi3kjcQEqBxilKxvJMPYQMAz59dDPhuv3W/UjPipXH09CWkypBBCVD/Qk+pHl5Zq42uvhbtF/Ysun4zarZaYUB1pMqKgZ3kAISonuM+tK9F6e1z0uS/p7QlgjT9PtnxlStQyCwVvng7NgyQcDuOOMURnIur9T6ZdbuceHYLg5gNoiSC+lsY/Eo4GT34HtRbFFo3gEkdcYEX34baSMT40XKMuFMkRnBhxlxTSh6FJIP8AMUgUO9EHrtpJehesGsLE44H1Q7k6nxf/AKgUd4Vj3CqH58/tWmmdoJg+/M0Ix2rE9xmt/wCEVpjJx2onicn1u+CKUqR8Lmhi4SVIakMpJ/0pkuY/rRulEhpWFYVjII8jQS+CmOqP8MWhN3AcjvOgE+SpDhBo0q/ePqSFcJ4omf08fMBgbsz5NfF30/i6R6uXSRb2vAZuX/HOxAOGXFqUCR/yqIKh6EkUCzxX161L0YsurdP6yh6isLc9+UiQIVwW2FPNgoJRtPdISrt9jXyJkNKaXtPcDB+4pDTs2wK3cafG7icxyK3jvKjvodbOFpORzjmuRzjzr0A59Kb8cymcT61fCcu1X3pVb741HaN0fAZkyi2A67tSNu4+eAcd/Kjc3HOzdtGAMkJ71Vj4BdWTZvS1UJUZUpEd4NIW0lIS0lKMJCj6+9WgatjrzyZMhXgPeaI7hCT9x50une1VyR3JZkE5MUNuIK0tEFLhTnaoYIFQDrTGVNt9uiJaDxee2lJHHHOaJGwbt3fjHJqI9Ub5J0xpp66QYMefNjpJZakLCBn7nt3qa6vdpmDHE5p3xaCsgGuNN2nTugAbpsWp1I8FfIKVYyBgVFLAxZdUabeiSIqFIUP3clKdqmVeoPtWW3W156gBu3a1009ZkP8AMQKOEujH8CvQUqa6ZTZDT9pth+RSjCvmEK3lOeeQe5NeDuO64ekhOOJ6OgYUmxseYH9VXCDph75CB4866bw0lYP0n3x6VJdL66YsKX4V0nIgHYFnxnPx+wHrTL1E0qx0/wBZNu3VaVXB1AS222e/lnHqf54pwmaStl8j71x1G6NpDjZcGCk9wR/KldUlQYVWZ+Mgc5/eaX8QbBtXG2NnULVGv+mMI6vgSlMwFSEeCwpG4ISeAV57A+ho5dPOomtequmrcuTa4dtalNpU8+h3OR6pT3FQfp3ZOpGrFCBdI0OXYlEJcdnM7Rtz2A86sVpDQlo0ZCSzbYbcbgBWzP6D0FbX0rQ6tqzRcNq57B7Hx+8wtbbWrZBBMcmLa0zbPlCN6Ajac8g/egX1q03bf8NS5qGWmBa21qUAnjAHbFWCUsge1V56u6SuN31nJiKuyY2n7iwlUlgjHIOD9XoRivTa1FpVQBx1M/TbnY/MBsbo8NU6PhXu33eNGekqD+yYj6QPtSDViLnpy2xl3QN+C6fDQ7DVuQogfyyK215pP59Nwtdg1A6I1vT9IjnftAHIwPTmhBbrxPgy41qbRcL5CaOEBWTg9vpzWPWGtyAf6zRZRXgkR+n2pMq729MdwqdKw74TyvpUPNJ9M1Nb/qHU8aWiJa7M1bWFpGVMHJUr1yKx7p1cLZblall292KWcKDTp+sini39S7Ta7exJuKxHecP0sKGeasRgbe4YCt+QcTXTOt9ewVKgTJxTFcSQSQFrb9wfWonqnRiPnfGEhU8uEqy4eUmiurV9qukYSPlkMOEA4aBUoj3ppuK4V/aO0bAjttGD+dcrbaeBiH9EMsENuabt8xYdB3dikZApVPaZb+vb4SVHP08cVM7KYce6SIUxht5t1PJx+H3rneNIpjhSW1lyIfwKV5D0z3/OmV1Cs2zzABMEiN1v0HFukMypE563tuchajx+eajd9v8AL6T6xhCIlnUMd1IUplKM7x6eeafrvp1yZo/ZIv2Wg4EIhN8KP3IqJR23LDNYfDSnVsY27/qJooJIJgCMjAhR1xcrZb9DxdVzLG7azIcADDacFBP27UAf8WX2FqVy72ZH0Hs28N2R70ff/F5jUlkFvlW0usbQHg+Ppx5miHZdBaG1NBiR3IMZjCUlDkX6Vn2yP70ol4rH6i8mcdWbo9Su8O29SupUdsIsQ2ODBdaaAG0/epDaOm02EXIctSUSGUkONFODkf1qfdUL7euner4Nq0HPVKjgobdVJa3JjrPZKiOCPSlTWl9StrmT7nKQ7LWkrW6lPCs+lDF785AAjVVasc8mR2E5YNMxmo8yKyJO0lLi2+Af96YZ/Ue46quC7Fa2QtsDwwW0BO4e1EGRCS/AVHktx5ZcTuBI7e1QeYxGjyENQWRFfbVlDgGFZ74zV6wCSYV1ZRxIjI6TXPx171Nx1Z5bdP1D71lSK89VNWsXF1sRIjgTgblsbiePM1lMb7vkRX06/In0irVa0tJKlqCUjuSe1eghXln2qJ3PWURmXIilKVobyFqUsJ2lOd2c+QrW1/1LTfTa/U1DYB4HZz/Seeqpe44QZj+4szlo8MK8JBzuH8VLkjgeR9PSmDTWo3NRR2ZUeO2q3qBCZSHBtVjjKfWn11S0tqLaErcxwCcAn3NE0Woq1Nfr1kkH5BH+cSWoUbYYlu9xNrgrf2pWUkDk8D3NDK8dULLIuTbD90ZcdB4jJBWnHY58hUnuWlbxqhWLrNRGjA5+Wj5I/XzpVaOm9htK0uIhpfeSchbwBx+XavPa/Q6v6leCrla/jwT8n5j9TU6dcvy34jLH6Xaa1JIcuFxtrdzbVjwfHUVNkd87M4znzNPz+hrSLSbdDYFtin+GIAjA88elPcmWzDVGQ4QjxnA0hI45IJ/tXYjyrX0+g0lVXohQcd/uYo2osY7gSJCbV0p09Ybqzc4zD6pzTfhJfekLWoJ9O+KlgRjmlCkA1z25GCB96aWiusYRcThsZuWOZwLaivIJx6U3368xNNWx6dNXtbbHHGST5ACnfwygd/0pHdrXHvUB2HKbDkdwfUk9/uD61R6ztO3udVhuG7qCXUXWW2tNFTkhew4IYZaUpQ/LHeo904ma/wCo+uY19SHdM6IhkgRn+X7kof6h5IzRAY6PWyPd0SnXlSYSDkRHE+fufMfepy1tYaS00EttpGEoSMACvOUaBhb6tzEkfmall1YTbUIpW5kEq4Ua5/MgDApI4+cnnOPWuQ3OnOCkVtG8ngREID3NrpFj3eIqLKaQ/HV+JtfINR1jp5puLJbIs8cnBxvTuH2wak7SQhGOCfetV8qyQO9AZAfce4VWK8AzhFgsQWgzFabjtjgIbSEgUhvrpQ2W0Z544pwUoNIUpRPoBTROJUlJPJJ8/wCVCfhcDzLpy00jSmLXBXKkKDTLYypfpSuTr22WmzQpbSvG+cUS2nG0lPmrHoAKC/U/U0ibKYtdvZflkK2Kjs8eIrPJ9gM96U3O4X7TmpoD1xggrbZSlDRWlbaG8cJ4rFP1CyosKf2z8fJmgdIrgbjzGvqh8S2t9M6kQ3YdLtXCwvbUtyfqU6s5+rG3seOAaJvT3rDeuoyJBi6QmWppl5CHHbwfBTsKeVJA5WcjHGKi+m9cW7S0B9TMJ2RdpTu9UfZhLHJ4Cj+vFP8ApLX991Zq+PHagGHbeVOkcnGOMn0zTGl1zEqHtJc94P8A36iV1IUkheJ8/PjjjfLfEzq4E/U78q6rAxkqjt5oBqGDVhfjuZ2fErqVX+tiIof/AOBNV5UcEV6dOohMJxWi1FKVqSMqAJA969JzWi+W3B6pI/lV50T7U9FdOo0Z0h0XY0qCvkrRGQpQ81FsKJ/VRqVwXyt9ef51EumV7aunSvSc5DiVmTZ4ixz+I+CjP9CPyp4elraY2MrQh98FpkOK2hThGEjPuaWe7Zj8SBM5kL6z9VhorSesUthaZDFucdjvAfSklsgj3wTXx+lcr579z78Zr6YfECy/dOkurG5d3bbuFutTyHWZQ+okclKVD18s18zpCs+RHse4rJ+laqzWCyx+s4A+B8Q91YqAAnAHIrD2rO1ZXoMxefSf/wCG2Celt+Ufw/PgDj/lNW87Gqqf/DlgmP0RmyCCEvXJYGf+Uf8AWrV0ek+yL2cmYe9Cb4nlpj9KJ8laVrRGcaeIRnIw4nniiyTgZqC9Z7M/qLp3doMZCFuvNbU+Irakcjkmg6wBqGBl9PxcpgMOp43xDdO3H9LPypGsNMSAVtJyje2rjckHjBA490qHnRUi6i1Xp3pY5e7naI6dQxmRsj7diXewAUR2Jpi6IaZ0P0oVPEKeF3KTHSufMJPhK2k4SD+EY3K4781GZnWLqH1Bus232OxQ7dp95zw2p93SQdmcbto9hn8xXml9GlQxb3f85M12Z3YoR7c5/wDAgz/xNJ6l9WbXfNcWeMG0sFpmLHdISwoE4Of4zmrY6P03DmWyPJnQUF9P4PERggeX34qNW3orp4X+z3KKlt52LgPhKtzaiB378c80WkoShIAGEgdhTOj0Jtv/AIi3kDoQOqvRV2U8TxDSW0gJASkcADyr0qFYpYwc9qSSJASOMdvWvSOy1rMsKWnrzwSCM0A/iSVFhDTdzmKIhCYYj5KsJCXEkAn2BA/WjK/M5PnQu686Sha86b3m2T3FNM+H43iI/EgpO4EfpWHqH9bgniaVKlCCJSa26zldF+scp/TLsa8W1alIdjKXlLjaj+HPkpPkfSiZcOqOk73cAiNaHLdNk4IU0sJCHDyTx2waADGlGYSnkwpQkuFRAdJ5xT3M0EwmI08ZqlvFOSpJwEmlnCAjnEOjOpJxC91F1zeGI8W2zruh2GACsJI+v0GaGFwtrmppglpUbk0xgpYZOT39Kg69AX+93GNGhmXcm3nA2CjKgn7nsKO2j+iU+0oTCbC4szbhwrXtz7V0kV455l/ULHheI76JvcFEBS3CYymyEOMqTkpp7uiITrHzLMlLTaxk9gabZsCD0jgw4t5d+Wiy3yXZK07wFVIbbqvSV0jvRxIh+E80Slx8pSV+WaSJOdwGRNAXgKAe4HNR3iXZbu3PtbYnp7LSrjNSuzaxTJtz8iU24ZUhBDccjKGj61wf02IHzDYfaKAsKQUq3pIPpWzatkVSgneBxlPFMGpHw3RlQvu3ExI1ZvmfGR4kd1xWFDc4AUn1xUiufTx0WL5tydEU82AS22ckig1f7DPk3NU6M6uMsK/hyM13jyr+w6ymVcS7GbO4Ng8qq7LZkbTxBbucYk4ta7Mu7C13a4otjbzKimQrATuA4HND67W2/wAO7Lbsd8lJRuGxcZ3CSPIjFdNWWka0ShzhpYzhA5qUaNtZtdvDZJbcA24IyR+tGxgZPMpgu5U9Qxad1rK6f9EW7b+xn7/qq5lTUmVKTuRlXAWpXsOw9qVWi8zoluaiTNrshKAHEZynketJNM3O4vxW7e1HTLYwFlX+n7mltwZkz4ri4UZK3k//AC94Cjj+tZbsCcEYjtapTzukRvrry5YYi5ZkLJ/dqI2j7Go6xGuUDUbDkiN4yVKyccjFeaqttzl3BDDkeYwon6SlCj5c8inzTmkfkyw6xcpKpakkJTJBJSfcHtR8hB3K5NjYHUnkbS+l5ESO7LZYW+psFXjOlKh7EVlaDptOuzbcmRcI3iqSM8VlZhY57jO0Q09W9V3lyQ1Z7C+9AdR9b05hQKmzj6Ujyz3JFDrQfwvOXCR85dLjNDTu5Tkl5wqde3HJIGfPPejOLVYtEeI/MWZ0wrLiGlK3KHoSPX3Ndz1LjKgBxDCg+oDak/hye4/KtO0adri2tsGf/j8f8/ExEudK9ulX/wD18yRaf0/A0rZo9strAjw46NiEg5x75pc9JaYCfFWlvPA3HvSKVcUQ7X8+4084pLQX4LSSVduwFCm/WDWOv5rcqPLFmtrwynY6AptIPbPJSTW1qNUaK1XTJuJ6H4mdVR67FrWwPkwzBQJwDznGPOuZktGSGN/7wp3YA8vOokq7WjpzpeDEmFaFNt+GhhLhedWfM7jyc+pppb1xOvNxjRbdH+X+Y/fFKRlxaRwc8kA4wDzQNR9Vq0wUP9zeBkn/AMTlekezLKPb8yQaqmFEgMMQlybk5GWI6knhs8ZODwCOOfyp+ieIIbIeOXghIWfMqwMn9aZNL6duVulTJ13uv7RlyQlIabQEtR0Ak7U+ajzyo+nGKkJAz6U1pa7Czai3jd0PgQdhGAg8TN2TjHlXGTJbitqWvdtSMkIGTj7VzlyhEbLmxx0AhOxtO5RJ9qF+puoWsX5ioVh0fLcaWf8A9zJPhjAPJyTgduK7qdStKnHcvTQ1n7QlO3aI00hS5LbW4ZSh36VH8jzXq1ulSlApUyEBW9Kv5UMbVMbiPypVwfclzZCSXAg/gP8Ap3Hy9QKyTr6bFjOMIWhsKOElI5AxnivK/wDro/8AzDH7d/zj40ZHC8wguSiv8IKhXMurWM9vtUE0XqG5XG9IZeCnmHGisuOA/Tj09DRBSjgnb9x703pNX/HV+qoI/eVsr9E4M4eGpRCfxDvXUnZhIzkfyrSRKZtsiOH/AKQtYGUnBHufSlSptuVLERmWy5O8PxyylzcrwycbiPIZzyfSnayjkqGGRAEkeJoEbU5OCT71xW4UnhJNKX0YT5Z9xikxCigr5x2GTgfertxmdGDIv1G1knRemZd32BxuKW0hBP4ipaU/3pvteq2bs3GQvDbzhUAknklNCz4y9Ri29MbfD8UNLuN3it7/ACCEL3qJA7jgU4zUxoGmIlxZkvruLZCm1bglpwEc4TjIIryn1PU2UamrDYB4x84mxpaUsrII5j90/uFulu3S5trfmTL3NWi3NLSjc0wk7CQD/CVBSio+o9KiGq7raonUaTp91+WwtgIStiQvDvKNyVJxyUEHihiz1f070e+fsFq03fIeo38reu7u1eQsFQ2An8P1Z2ih/oS4aitXUy36zjX57Vd8WtQdYcjr+Zd3p28pII9AMHI8hRr9J/E1EngeP+f95apjVZkjP85aOJo97WEOU829dETm/wD9s6Wd7KwOEhWcEfenTp1pLqZpi6NTPl46oTqgmXFkDa4pHO3byR3/ADxSfw9fztL3C8TLVc7SQFOPwy5uf2AZzsTyod+Bz7VEtG9UeoXUqzOztKxpU2GVfLNzZLgjtKUBgrG76jj2HcUrp9Eq4YqwYdEY/wB5a6wWBsMuJWT430uSOsiprjaGnnoTSHWkL3bFoKkkE+uKrmurhfFJ8PCtF9KIOrH5rlyv5uhF1klZUgpdSQjaD6LSBn/mqn7w+rtivbaMMtKq5yRMGzG84nKvRwQawjFeZxT3iCn0z+CnX8fVvQG0291xK5+nH3Le4FHkNfjaV+aVY/8ATTn8TnXD/wAJYdgZYtbV0kznVlKXjhCAgDn75UMGqhfBF1HVo7qyLI874dv1E18phRwBITlTJ+5O5P8A6qLHxg2S9XXqnZnLc07IKbahbDW0rAXvIVhPPfCfLyrHvq3uam6MbRsLuEEWrOrOpeoblwiqjO+BMacT8tCaU4pQxyVYyce9AB5W7GOCO49K+r3wwJk2Hpyhdw0YYV9StCJTcRtHjSUudljOMJx3Tx9q+WerIpgalu0UtFksTH2i2Rgow4obT9qvoq6ql20rgSt9ju3vPUaB2r0HJ4ryvUA7xjk54rTi0+s3wRWj9ifDjpoFJCpXiyTkd9yv+lHdT23GaH3Ri0nSvSHSFrUna5GtbAUk+SikEj9TUtcmADBrguCqAJUoSYvVJACiASabr8/DFsWu4tByFtPjAnACe5rRyalKB9VRHqxbVam6X6ntrbhQ7ItshDa05BCthxg+XIpey8spGYVayDmDOb1WtOprrIs2mWRcIiWVOIhQmsqcCRycevanhOoZemtMWK8W63uvftRpK0xnWCXGz3U2tBGcjkZoA/DD0g1/HtsW9KZkWMsN7kSXEfvJLZH+WEnyJxkmjC91/mWW52zScq0SoOqGXFR0ojo8VJC+QAoe1eNP0xUuNzsSx6/H7DqbIs3qETAHmWE0pJauVii3EQv2auSje40tvw1JOT3FOXjg5wcp8lDsah2m5Em9RFw72FpWkpOXjsOT5ZzyfaniH8qytVuiOo8ZgZ8DPO0+Yr2NWoxWgH7d85/2mI1XuMcXpOAcU0y5gIPIpmk63hR7oqGhpbr7avDWHMoShXoSadRdIkxgpnNt28o4UvxE8Hy5pU6tLWK7uRDBCnOMiI3nyCcHk003BgSWnGHRvbdSUKHqDSh2UkurDZ3tg4SvH4vek7qiCCefPvQCcxxQPM+XWtkTunvUK7spZcCY01xoAghKkhRx/LFEO2S2NU2d6I4kR5b0YveEFZwMcUe+vKtHDUgsmpbXMQu5NmTFnw2AsFQ4UCfIjj71FRbukmjNRWdRelQpXgBTi7iFIDpHbv8Ab7VHsDYXE4qsCeeIIOnD+uNFNLYhQp86KVl0eCypRT5jy5om3X4gdSWxhKpmiLnLbCB4zy2FNbD6g4qxepNZ6bg6PiaktF1gCCQltTsdaSN3bAA9/KuVv6kxZUVLV4SyEPpymQAMLB8iD2obhHbc6zgVse0yuWouqsDqtpZdpk6VmuJeRlLzpBDSh/ED7VCJOgLHZoDb1wT47bSBuSoKBSPUGje2/bYup5jaTH/ZniHY0hHcHv2pl6l2WwtxFzbfdWZLZH72BIG1SB/y+v2rlTqPYowIYBM4PcjmnL1o9MVTjNzbmtoR9bBUQUDy796cXrvp8OJXBl+K0U7nGkJ3bR6Z9aHto0jbNRNuXC2uNWxtvcVJeUE78d8CttKXqNbW9obQoHckpGORzyfejGoF8gmXBZThjxJV48G9OSAF+A2j8AWn61flTE8+iG+ptLKXnMdiMmukWUzqNDakqDSyopS6o8YFdWNbMW+LKhRwn59r6VKdYySPUKPlRM56hlIbnMcTY4cZth7xNzqhkpTxtJ8q6yYTjEUvuMl1HCQts/Un70NpfUO4sP3BC4apy3EjY4lO1KDUk6f9RZD0x5nUgDUF5G1KE8EkeWfKlzXYhLHkSC1Oh3FMjUF+sMtuVYJzbaCja8w4rKVgevpTdN1Tqm8PCT+0ExnAeEtKwAakOorppj5tpi0OOKdUSXG1YIQn3NdLTboMqS0l5kIOfxbf0oo2MNxECa97SCxuqepNOahSu6y7g60wQpoMEbVnzzmrQWS8SOqEO1aimMfIpfjpSw0sDeojsSfU032npnZLmzHN0siJYUnLT6TkHy5xRhsVgbh2GNAbjtxmGQEttkAgJ9AfWs290fAUYMYRTR31Blc9W6ghS1RrPpxU6KyPDU+hHClj8WOayiWpp22KMdqKdiTxwayl+PiE3g+Y+XLWv7c1M3Batjcu1PNKSl9xrY4jjkjdycZBHl5VxbtMC2SWFO3gmMhe50SIqmikAZJB5B49KUJsFk6aOSLpNuMm6XaWlKZDqzuO0cpS0wn6WkA54HPqTXttdHUFEmMwzco8VWSzNkRtrcdR/jb3dyPQgjPes69tSNYarU9Qk8YzxnB744x++IijKqB14XqO3+M4C1O21qZHv76SXSiFKSXgjOQVAeXlx+lPWlpky7CRPlfumlYSy2n8IA7kE/1pHY+lunrOmO45D/ak9lsI+fuH715XfPPYZPkkAVKtiUIH0hCUDy4SB/TFe10+juDiy9+B/pH9sn4EyLLKzwgg81RoGfrG9OuvfLtRQgJbeAI49h3P34FKOn3SCF0+ulymxrjNlrnKSpbD20NIIGPoAGR784rTXWvIAgOw7a7MuFwSrhFr5wf+ZXYj2FR2z6w1Zb0MqGn71N8Re35ZbaTnkclalYSOe57YpV7KKNTyhfPkc4/lGwLrKMbtoHiF55xSMHAJJx9SsVydWUgkcmtB4kltovo8FzH1NpVnB++Oa5oQtp5e0gtEDCTnIV/tW81hbJ8GZoUdT3BIypRUT+g9qhGvuoB0opUdqC49IWjKHHPpaHHkfP8AKpypQSnJ+rB9Kab/AKdi6mgKhT0KWySFfSdpSR2IPlSNysy7U7jVLKG3OOJWZzXt9XOmzJLceUp1W5tlA8JLZPl58U9dJ48/V2qJBvQacgR0bo8WK0sq3Ej/ADF5xtxnjzomN9Brf88FuTX1w858IJAVjyTu/vRBtGn4NghoiwIyIrY/hQME/f1Puaxavo4d/UsXE1LtdWqYrnOJBbYaShKNiQMBKRgAen2pQWPpKQO/IzSlac8Y49K0ycd+PMGt5aEqAUDiYzOW5gr1H0z1BKvrr1ovYi2959K1NOfWsD+IDcCBU6sumoFhQsstlcl1CUPSnMF17bnG9XnjJ47Dyp67j2HbFcnCnnINKro6KWNqryYZrnsAU9CcVuKTgJwok4povr4fxGQrASQCocZp4WQ20pe7GOE48qjD73jPqWkhSDgjjGKBe2BiEqAJzKmfG1Nly9RaJsqin5NSy8GwkglZdSg5Pbt5Uc7Jp2DdntT6bdgFFxtjqZkR5BIDjCgnIx7DcKZuv3S+Br6Toxb7nys9N1bYalA5IbALqkAdiVeHgZ8zXW76rmaU1kzq1u370NsCLKZKyd31kJKvQAFPPlivP667To9SW9n/AH7/ANpp0eptYVn8/wBIvvvRjT3UqZDuU68PxYsWEhlNuDH71JSDypRPPl5dqWaY6Tt6ThRX4biJEeMoqSzNeaZTtJzu+jJxnyJNBvXXX09OOrLyY0aTc4NtfVl1zCmpAWPqbSkAZQjdtSrzCaljNsjax0Tb9aaItlwTbJ63hIhhRdXBcQrkAdyk+mDj7UWwWvQA6Zx8H+h/7iCUbbOXwD2T/wA/vLHWq5veCH3blCcaThW1oFISPMZJJyPI+dN0i1xrcht+1NJVbniSG4gT4YJyTjHbmhErQuqtQdOyyxGTbLyiS2guPytrT7Cud7gTn6khQIx3HFTvp9o13Q+nWIMmeu4Sdv754bkIWrP8KcnArQrtudQti/zyc/8A1FTWiMSp5jR1j0eepPSzVWni2pD78FZYb4yHkje2fflIH518kJCFBR3J2kd0nuD6V9p1SAhRPKcdsj8VfK74oenv/hx1p1DAaSUQZTv7QiHHBaeJVj/0q3J/9IrT05wduYKwZ5ggJz6fnXn862USDWvetDuLxXa7nIs1xiXCG54UyI8h9lY/hWkhST+or6dtfFb00ssLS2pZzxeudztniLVFZ8VcVRAJaV/pyrI454r5dDv2zVqfg/6UWPqfbbpc9ROpctunHMuRASFSNyd6Acdk8HJ/KlNSq4FjHGIeo/6TLh/Df1LhdTZ2rLlFdAWZId2FeSlBOE8enHnXzS+ICD+zetuvY3/073Lxj0LhI/rX0J6Y23p30jF4m2HxY8l9LaXfm3iHHNysgJR2CUk18/8A4krhFuvXbXMyE6h6M9dHFIcbOUq4TnH5g0po3rzsQ5hdQrZ9QrgGDYnFSPptpxzV+v8ATtlbSVKnXBhjA9Csbv5ZqNYzViPgZ0j/AIg62M3V1AVGscZcxWe3iKGxv+aifyrSc7VJMVAycCfTAvtxmkso+lpACUj0AHH8q5OT0AcfV+VNRfS4T9XPp61zUSV4xjNY+/PMeWvEWqnKJwAMH1rpCk+K6ht1KVNqzkE8H2NNoaKhjJ48vKtYzq2LrEZ8JS0PlQ3g/hUBkA/eq7upbAIIhBZbS2gBtKW2ynhDZ4oVax0U5YtXPaqtrDUyS+0lk+IjK45Hd1J+2KItpvcK4Tplrjr2zITSFuoAwE7uB/ShP1h0v1G1MpuJaUKaglvDq4cgJLv3BwaZ1WNRRtpPJ8jnESpytmHMibmqGnr21KmXJM1aX21KaC9wKs4BwD5Gnnqnri2aXu8Ge3NQm5MpLqkMryoo9CPShvpD4TpjXjXO8ynbT4K95SwS44PckHiinpfRmjrgtkobTfZkQBKpcmNtVkHzOSCa8xRovQQ1W27iTmaz2I3KiM3/AIi/+MkRpyxSbW9LZdHiMvSfBkcDkFJxuH8qQ/sDW9gvbcx+MtCAfqbQpLiMeQxn9KdtUfDnpXU9+/apQ9Ae/ETDX4Z3eoUO1SyHp2fbo7cRrUl1dhhGwtPLSskYx+MjIrQOlUncScwa2MvGBidrXdF3C3xXHGih7bhxWfxGnFDgUCNpNawbYiM2loAqSOxJp2biIyBsApxVIABlSyjqQvVWmLRfHYUm5obYcYUUx5b6cpQpXAH51VP4lrLLvusSJoaXEhM+GgBG3LY53YNXS1NZ491sE2NIYEpotlZa8zt5GPfiqnK6a2u66ufvT9wem2KcPFS286vO3GPB+rtjniqlhW/unVBsGBA3oOPpOBGkFc9IZbIcU1lW0q79u2a3vfUBnWF5ZjwoUhLKQEZKlAAD1qTdStCxbLIZmWBuMzbCOYK1ZWCB50PWbvHNmliMFNyQrJO4AgelMLZ6nAgWVk9viT2wiei9svWt5MkxklRChuQOPPFJdR3kTGX5F1QFTHCfqbbI8P2xQvsOqrlpu5JWxMVFS6QHSQSnHrj2q1un7d0pvmhmp9z1PbrnNUje66uSGTnzGzOartdWxt4l02EE+ZWqPrFVpcQxFtq5Sc5AWnGakMiDJuSPnX0It8xwbgwyOMHsKfNT6/6f6e1hFiQbU47aUgeJPjq3lWR/Dnvj1p4eVatSF24WN5K4qFjDUlPhuq+wo27HiGHuGCcyHWVp+1NmO6z+HH1KyCOaeJCIThCvDKiRgJxgK/On2ZFMpC97Xy4TgqJHJNNL6Xm2V+KlBbA4Wo1zdmEKbRGmRaWkqaUyeTnelI/APSk0hhpLiW1ISo7c7SnI/WnFUhuMhRcZUsrAHPH6VwXGYmoDg3tqPCT3AogOeYPvqIWnmI7boaZQy+4kp3kd/uafdD6iRZJqG5DqXN6hvK1c4/OmVxpwKCdgUM4+jsqkM2A2lS3C34jrffdwa4QrAgyK2w7pajSEGNakftCApbTUtzcpReKgDjyGcCpyvULkRKVCUje5kJyrKT6VWDpXq6fAtAXImNCM26pkNL5KeM5/tUt1nr9o25rMpuM8ptW0uHblXt96xnpffgR9WSxQ0Ljmtrm04pJuUROD2WzuP65rKrXd7ublIbkfOJcK2k5U2o7c1lX/AIdpzfX8T6D2LSFrQwzMdjfMyXEBSlyTvyfXB4zUkQlKEpSkBISOMDFco7HycVplGVobSEAk84AroFbxkdvfvXrNNStNargZwM/k4nkLLGdic5E2HY58q4SozM1Gx9pLrf8AoVyk/ceddiQE4HJrUdqbPIxBjuaMMNRUhLLaGh2w2kJ/pWL5I8+ea9V39vWvOwoRUeBL5J7mizkADgD086wIB9a3yCOB3869UeB/aubRO5nPYCcYzXRKM/evE8c0wXvVUuGVtWm0SbvKTxlCdrKVeilHv+VVLJUCTLqrWHAiDU/UqzWOc/b5aJDklkjKEJxnI45z2r3SmsZmr3TIi275S0oyPHfXlbqvRIHlnzoaPdMdZay1O1JvyGrZbH3w5MEJxKXXE/6Qedo4AJHPNHSM0iMyhttCWm0DahCBgBPpWJpxrNRaXtbaoPAxyR+8euWipAqct5nN3xP4cj2JrxbqI7RU4tKM8blcD/elBOVDnA861KQFZxgjzrXK46MRBjS/dsT24rUSS8VZPiBspbTgeaj2zSvcVpQCktrUBlGc4/Ouzri1DCQcDt6UnOWGy4vgn6RSbB8+45hgfEQXSUkKS0nO1II4/Q0zoAQhRPckH9aUOKQ6rfyc9yfPik7aAsnOcZ4FZLsS2Y8gAECPW7q1ppaf2Um7TY12sl0SFptx2yGnPBVtWCRjaCsZ9cmhHZvic/YT37OvEF7UMBtsgz0JDbkgY/DtIxkj+L2qW6m+GnVureo+oZq4iIsSdOcfEyS4AjZkBJAGSeBwMUTtAfCtpbSjrcq6pGoZ6fq/4hADCPs35n/zUDU/T6NWB6wziM16j0lIUwIahtzfxCybJC0PBluLZUtTzs9sM+GFYASpQyDtxyftRX6T2DVXw52W4R7k63IYkqDyIjALrTSyMZU5/q7duKkvWGXqbp/Bto6bWiG3NdWtp7woRUlAIG3hOE59z6U1aLn/ABCJhPC7p09cEPHIbuqAhTeceTfcexqwoCVejSSmPI54/nBNbvYM4BHxJXoPWV11hf5K5iPDiBjhbRCRvHt58HyqdhkFQO4gkeRyaZrFp5+KpmbdkWsXRtKkZtEcsNbTjOUkkk+5qQBQPuatpq3rUq5zz/aVusR33VrtE4mIgDKUJ4/iI5qq/wAe3S1epOnsLV8ZombYFeHJKU8mI4QCfsheD9lGrYOEgDmmu9WiJqC0T7ZPa8aDLYXHfbPZSFAhQ/QmnVOw5i55HM+LLiCFYPFczxUy6r9PpnTDX970zMypy3yFIQ4R/mtHltweykkH9ah3Y1rDkZi8wHFHn4UuuUjovdtUON6fXqOPMt4cejIz+7S0SVuK4P0hClZ/KgLRa+Fa62u29edKIve39lT3XLbIUpW0JD7am0nPsop78etUtUOhBllODmfQLrXoO13jotqC+w0IgW1FgXcYKWHdi0OKa3DJPBHI8/tzXyqnuByS4pJylSiRzV6/i2Xc+kPTVWlI0tq56Dv7RbtrbckokRHG1JUco5C0ZHJHH8OB50OeSovKHn/Kl9OiLllGMyzsxwGORNUnyq+vwD6RNp6d3e/LbCXrrM8NtXmWmhj9NxNUUgWyVcJbUdhve64oJSM8ZPavrH0n0OjQHTfT2n2sLMGI2l11PZbhG5Z+25RxXNU427RLUDJzJQltRWFEFR/pSzwCVAggn0rWPGUogk8nyp0jxgkDJwrvWeojbNicERwEn6fzpNKY8MNPAEFDowcedPiWwlsYApBdoanIiHMlJQ6g43cHn0qzr7TBq3OJAdPaqY6d6Xm6vvjpdE9zKpKEHKvq4bAPbOP1pkv3xNs6q+ZjaVQ7sZ5W+42UuBJx5eXeo3cenfUjWMy6RLtqG3W3TkF11DDBiJWFN8kL25znHqahSepmgtLON6bjR78uC1tHzkFHih57H1K2khR58qzLTfVUK6iTmMqte7e3cM2i9eWe1Its643qS9crllr5VD/iLcVnGPDAyB65qZWbT0GwNyXW0fJpkPKdd3qwN57/AGob6Du+n7bFnajuFrmaYix0/LruF6aQh+QFcgJSBkDz9aHOrfihb1lqpGmLGh+52x6YlpS4qfqW3kAq+/8AYVWoMqghctOAAsecCWeQynfuaIW2sd0nIrZTBBScUitUVi1W9mMw34TTYwE5JP5+9ODS/EO4HPpWkvI57gjx1MCNhGOAKVsZUc1qhvcMkd/KlrTaQkcc0VRAscRPKYQY7oc3bNpBKTg9vKqVjW+oW9TXuEtpyXCtsl0jDWFFtKjtUR64xzV4yU8Agfn51UjrzemOiHVazyn2fF03qUKDzo/zozgIStII/EjBBwfeuWV7iCBOo+ICdbzr5qaTKu8qQEBagYzTWOG/TI/OoXqtMZ/TpehshuXkDAThSjnnNGfVyrLb50lMaewuLyWUHG1KTznj1oFak1XCVKeTHQFeCsbnUK+hZ+xqqISeBLs3HJi/SdgtupyEakfkW5HgnwZKQCQpP8JFR17RjLNzUm3vpeOMt7k4KxTf+35t6d8CPkZGMAcin/R1nlQLu1JlodeSeE+Io4p0Buz/AEi+QcLHaHp83RsNy2v3wSMZP4ABjNErRukF261o2yVvJXlSCeRj2Jpqt/gx39/yhdfcG1O1RGD6Gl7Gp3IYS3FebC0LwplxJ49ceVAfJ4E060Ss5jxLgrbQoIeJCgd2Tyk/Y1Gru3MVHQzHkpf3fSUFJBAp5l39c11bSY7yXx9eMjGPb1ppl3A3BC2FuLhJKClxITyfse9VAx3DOQw4ie1OS2JCULcLTrago+KgZI9MHypIXXvmloDoLRJOzGM+nFO8XU9vaYLNzfkSn2QlprxhuXt9lVxNyg2+WxMXICW2iFLOwAJHqfWrbsDMDtwJxZRG8HKcNvk52KOUn/akNzb8Vl8KSlZUMJUlfY+1FC7XPp+sxAmOJqmyFKXDKhvJHOSPvQz1HEiNzWzbCotrO5Tbp5b57f0oVdofiVcgDEQ2loRHDFc8RKy3uOTwf+tIrlCduLoXJPjpSAAlZyUinltqS6oKUkeIn+FXGR96w+G08tC2HGt4wcjNMcSgHtxHSwf4XFrZEyZNhyAMKZDRUB9jjtWVE3GGo6ykPJx3+rvWVXaPmU3fifWsjJrTbsz6qJJr0kjGa83ZNehPyZggGZhXljFZ/EK8KtorzeeKrkTs2HArwqBH3rVSs8Y4rAEoGB2HFVzLYmycCsKQo1rvANZk4J4zXciTBm2RjBrRSsq5Oa834GSOK8Vt70MnMsBiekny7V4V7e4CfvWinBgndgZ++KTBwurP1ZxzihPaBx5hFTiKlOA4JIyazdjt/OuPiFCu5/Subkjn8OBQzaAJ3ZFBWQ4AgEqPHam+4ulSylJw2Btx/Wu6ni2yp0dz9KRTY8SFgZOD3HkaUusyuIZE5zODqcAjsMZ5rW1tpcnJSsDYn6jWy1FSiD5U36m1CjSFiU81FM+4SPrahp4JSP4leiR3NZ5ZU97HAEa5xj5kpnXCPEbU5IcbYaGSVOKCUgDzyaaYN8tt/IctlzakIaV9aY6wrdkYwe/HnxVarjD1fr7ULMiaJDokrAAS2sMNJzjgD+Ec8milpbS9l6eXGAF3O5zbpKQtLMWKynw3wO6R7ZwNxOBSH/qNt1gCqCv7yvphR+YT3EK25KyPbNJi6ojCMH3rjHcWppCXGpABGQgjO3POM55xSlCVhXDeE+/FamS3IlOp620RyeQfUV025PIAHqK6tpSkDINb45J8qIAcSuYlUncrtgVqEIUsDOCPIedK0oG05ScDtXBSUIVuSDuz39KhGJ2U1/8AiC9IzdLLb9f25gmRb8QrltHJYUf3Th/8iztPstPpVC1DGRX2r1DYIOqrHcbPdWRIts+O5HktEcKQpOD+YHI9wK+P3U3QsvpzrW7adm58WC8UJWr/AOY2eW1/mkg/rTND/wCnzKMvmRMnNdI7q2XkOoz4jat6Sk4II5BFcyk4zS/T7DEm9Qm5Q3MKdAWnONyc8jNOZ8GD5B4kh1pdJEmXHiru793hMpDzK331rDZcSFKQArtg5zjjiouUHxSryoodetBW/S94tE+yxfAsl3hpcaCVFSW3kfS6gE+v0qx/zUNGgXQltPKjwB70NPtlnyGIMftEMLc1DBbaQXHXH0JQhIyVHI4r62WRSJFtiPNObmnGkKSrHcba+W3RxuPbNZWudOc8Fpp0LccI/wApI5/XIr6c9Oluv6AscpxJQmUyXk5OSElRKQfuOfzpDUZL5xGasKklDTQSUnj8qVtbtwwAc1wjpyQQKXt4CSeBVFlW7nRtr6e3vXC8MkWiSUjJABx6c0pS8FJwCRXC6vtotb7SlpS48gpQCcbj6UY4IMGCc8SLpmqE2ZClJAYUdoUpPBSU9simS1aI03aJzclFlhIkNuBTcgNg7cfhIPka6suC83C4wWW33yyUBTqM/TxxkeXn96UqkBgFpSic/iHr5VlqxAmkVHUBXxKQpuubtG0pCS/4JcTIkNAna872Soj/AJR5ipL0U6JW7phCL7jbMi6vY3PJR/lj/Skn+vnRAh2pl66LuDzZclrR4Wc/5SB/Cn09adUxFhKcKXtz2P8Aeib+MCcIEVsEqJwkA98+dOMdkJGRxxnFIGWVI5waXtKOAO5P60QQDGKWslVKx9KQf5UkC9vBTg1sh7ar1FHBxAnmLN+4ckBWOBQU+KXRtr1PpC0XG4seKqy3RqQg52jav92vcR/Dynj2owhZUoEDio/1DsCNV6KvtpccDIlxHG0uHH0K25SefQgVCxI4nFHPMod1E0zZrXqNKCppt19AHyMd4r3KHY5Pbv2oSXmHb1z5TjgxICglSUnaEY/5alLcq2m3yrnLfYcksK27lPnxXXM4yB54x60YvhytWiXVTY8xMOTepiVyPHmEFb6D5JJ4Pfy54qjEoMgmQKXfgSvcXT0VktzIExqS04APpXh1s+e5J5x71KozLzDaVBsBCPJPZX2Naal6TxrDrS7Soi3zbEyFlnYn8KTzgE+nauj9wYIaiuqejJCEpCVtZP8A5h96OtoYDBhEABMWO3PxIzaEh1LoURsAyD/zA16GH5LrSFnwA2MhW3k+xBre4NxYEdhTam1lwgtrwQCf7U8CEosgyZDiUEZSVkqwfSuZEaAycGNVykrloajAtw3WslUhRVhzB4z6Uv05GumspYiRYyp85pOVbCNpT25zj9adrNCt3z6f2ypt2IRsy6rDQP8ADu8+aIdx03Li2tFz0ObLBuBa+VUGvrQpOcjCge9AssKjgTucHMGS+mWrmrg007p51eHA6rBC/pzyPf7U79Z9M6cSymOw+i2XxbSVm3k48VJ8wK9uXU7qBpa0Px7wu2NzAohl5tClOuHHICe3A5zUHcnS9Q3L5y5SkSpykj/iH0hAQkc7QPL8qChtZg7Y4+JTcp47kcstkk6XeUlqU6zu+ogJyPvzSz9nPXCQVl5x9SkbUq2kZ9qeiyXm0qeUolGc5ORgeY9a2isrDP7l9C943ABzbinuCcybR1NoshLkcJmJLiwNiSMhQPYVtdJcm3RU/UF704yByB/1r1+RKZTsebQN6cpAWknnjj3pguM5olnc+orUDlsnlODXMZMsXA4iCXdXX3t4CiCP4U8VlKzJitnahLmBwdg4zWVfEDmfWQSkONBSFBaFDKVA5B+xrEuZPpxUZ0xbo+mbUmEl915tJyC76+eBTim5oW94TZIcUkqBUkgADzoterLKGcYPxM5qtpwOo6FY4x28628THkKSJWlxvBOR3yk4rzxt54zjtRvWlNkVlYwcH+9apJxk4z/KuO7GDkAEcZ4rbdkYyOKv6uZzaZ0P1eXFab1cnO72IrUOk8H+VaKWdxHnVWeWxmbBQ5ySR6CubsnkAAj0961KjuGO3rXLeFKx32586VNjDowoUTqB4yDnIx68VqV7eB28+K13cDv9q2BOQScj0oe45l+p4pwpGc/z5rmre84lKeyiBk146U8kd/StXHTGYU5wFKwkfn3/ADqmeczs8kPJce2JxsQMACuT30IBAwK5srHBPHPc+Yrs/jYFZ4HlQWbdzOgYiZhn5yUhpCtmTknHIFA3qZ0V6la+1EXxqGNbILAWmKGJBSrYT+FRSMkn349KPbD8ezW6TPlPJjsJBKnnOyEJGST/AN9qeYDbSmvGQ8iRvwdySFJx7UevSpaArzjWsmcSsmjfh/6j2S5Myp3U27RY7SQCiAtTzigDkIwtONv60arBpR20OPSFLm3GU7+OTcHASgHkhCAAltJIB2pHepxIlNxmnHXAsIbTuUoJJ49ePSm1V4jXJpPykgOBSQslKcggjjCu1EbS0U8BufjECtrsftiCKqUhx0SEMhHBQUElWf4s+XftSlpWPuRWyUjzBz6+tepQW1BQBoSrgjEKTmbDGOxOOK8KUg4yQBXRwhJGO1cXFbSSOSaKcSTRe4cg/T6edc15PJ/6CtlrAHqa9Kd6MngedB7M6IlfdDUN/d9QUMZx3/75qgvxZ9KWLlFn6qt6V/tGM+pyU2VFRcYPGU8nAQRnHoo+lXh1hPkRbcG22wCrKkFRJ3EY7gDtjJz6jFAa9sJumpYlucaQESklp1Ckd9/fPtgkYNJvcUtBHiaFFQsQhp82SME16lWxSVenPvU46z9PHemHUa9WEhaojDylRHlD/Mjk/u1fpx+VQU9630O5Qw8zKI2k/iWQt0iN1Q6FXOzPEOXWzsruUBalfUlTaf3iPspGf0TigHbmCp9K04UrI8MHjnyz7VN+hGuG9F6xZdk4chu/u3GyMgpIwofmCR+dSy7dHWrdrpy0WqVFlyrg+ldotqHSmQthwKWghJABxjacE/hoWdhIhW9wDCa6D6Wyr/qCzvrmwJmnJMkqlSIUjf4KWxvcDyCApGRkJJG1XkeK+j2j7kidYGghtLKEY8JgDGxGMAfpiqQ2rQ8rppdIFniQFXnUkkpRLgx+ElaylTUdSs4wgBTqiR9Ofert6Rs/7FtyESVBctSR4ihyAcD6R7Cs6xyzjHUbCItfPckQdKUjBG7zCRShtecjz96R70qUNp4xXdKweT39qikQLCKirDZyfq8qTyXEORVJWkqIPBAztJ862BBSTz27UjmJWqM4EHYe5OO4yMius3BxKheRBVM6gWS369l2Wa7NduDrbTfy8eI6oFGfpKiBjGfOpv8AJLeeP1g8n+PJ/Ou7lp8O9qfQ6lvegbhtBP6+ntSqLjx3NyCEJOQfWkFGDgx5myPbEtsZCr4i2JUlJeaLqVqWARg+n8X5U8TLU9b1EPIASey8cH39vzoOfEELjp6Ra9RR3EMCK3kKaewsBSsbwPMZ4NQrTvxWzdMQ3XZao93itnY4ypzKitR7qPfP8h6VwXrWStgP7iT0XdA6EftLKFQbTgJ5HkOaUNAKTnAOODUX0BrJ/XlqN4XbUWyC+rdEQhe/ejsVH05zUoIHA8s5JFMVuHG5eouwKnBmxIzz28qwcHJPHtSefJbgxlPubtiSM7Rk8nHavUqO9QGSexFHziCilBGcnOR5Vs6hD4UhaEuIUCFIUOCPSuTatw5rslP1DPaug5nDPmH1k6bx9C9SNS2tLCn4cS5rw3jBSw6A42oepAV/KoPN03qGfZmrjBdLtstah4TqFBDiMKyMgefP86tl8bWgBK1jYr1AaWmXcmPlnnkKKUnwz/F77VDGaCN6mJFxhtSNPx3FRkhrw47jiW3k+qhng8g5HpTKuMYEqEzyZKenN9itdPHnLvMU/dG3yn5SQk5cKuQsE+XNQrVt8fvGpNyI6UJQMF04BV/5fYU9zo7ynEqQ0pQCQEgfVjjgU3tsfKyz+0Yyg2QRlX07TWfWAtpPzGtgK8RrXIUZzDL6nXE4GwrIGDj9KkrNy8dpTMhTipaE7ULSeDz3P/StrbGgtCQiUlYSUnDgRuxx9PB9aQXSI1hKmC6hrBaweACOSf703vRj7YQKVzzHeIoyFhoyVJQkfvG1HIKh3wa4y1Wq3KdlNoIknOUDcnJ9cpIqP6UMiVKEVb+U+JlCd4SCD6k1JJemJH7bTap7kdp5Zw6t1zBaBScDHkO360JmUHDGdVmKcCMSr2m9zflVtBT4JLZfWpakDuUpPkK7P2JUhCyhYU4lIICVbu/t51xRpKTayJDf+YkEJkIBz25I88d+cUoTJe09FbbfUuWyHDsAVtCleYB7g0XII9pnFDYy08RDZajIiPFaXxyjKhwfv/akEi3PRVENFRychSSdvHpmlilzJqVB5hEN0guBI7lOeDk963hRXrkX1PTGLe5Ga8RG8H94ccAeWTU3bRmQ4iduCqTDW4tIWppJUd3CgPM/YVzg21pIekJQ0AP4k4wfy70zmXdF3hhlloFxwlG3xO+7g7s+VEm3dMLnKwnx4sNLSgiSkDeplXlkDuFeR7Vx7ErHvOJQEknA4kRcuCWlqSiMl5Ofxj6c/lWU3XiZK0zdZcBNvjXVDbqimQsLyRnt7Y9KyrggjIMqXPxPqc0Wl/g7jkH/AK10Q8lSsp/ET3SP714hlRAIbwMd8jNbFYQFA4xnONoFAA+YtnPU7JwgZI7+te7htOE/7UkQ8hfPiDvjkjiu/jstEbnUFXpuBFFU5lCpB5nZXKsbSceleq/DkHkd0kVzMxsJBBV6bdpP9q5fPoJyll9z/lDRo2V+ZzBndKueR396837lHPPtSdTzkkgiLs28jxVBJ/8AtFIfmLoy6EqahOoV/ElxaVD8sHNDL4/aXVc9R0UsAcJ4NeZSSSAPU0wNf4ocW6Vrs6U5PhtpS8cD/mJIz+QFLC9em14TAgOox3TKWk/bls8frVN2ZYoR5jiobduOD2Oc/wAq9W8A3gkk0yC63ZT60O6eeQlPZxucypB/Ugj8xXaS7cXmVeD8tFc8vFSp79cFI/rVS2JAvzFX1PL2Djd/F6UnmPJ8Xw9wKWhhJPJPrTVKmahs0yE84bfLtchXgSEpaW0+wpQ+l1B3FKkhWAUnBG4EdjXYKLigQfpNBdsAQirzkxwiKSvhQ/I12UgqKWudyjgBPekrQUAjJ8s/fmo/1B6iRen1ndnrSiTPP7uLFUrG5RHKj/ygfrmopHAMmws2BAP8V/VfUTEY6ahMy9OQHE5DyyUPzEAkeX4UE+Q5PnTr0E+KvTmnekENnXV/bjXiLKdjMttxluPOs5Gxe1I5AyQTkdhQY1TbNS9ata/POJful1dQGENNJPhMI54A7JHmSasF0f8AhS07oloT9Qxouob0sBQ8ZBWzH4/ClJ4Uf+Y/lTSNsbcDzL2KAuxpPOkHWyf1X04q5I01LskYOKbbmzXEKbkgcb2kfiwR33cDOOTU4gtphsoYYbDTKBhKQOwr1ltqKy2y0EttIAShDQ2pSAMAAeQrcPBWQPpqrMWILHqLgKPtnZCyTn0r3eE5Vn6vSka39u4fhPue9a7ioAFWCT5c1zeZ3EVqfCuexPlXBTicgEnPtWjg2oBJGR5Vy8+e3HNULczuIt+gJ470xav11aNDWhU65yNjfZDScFx0+iR/fypl6h9TrboaGG1uIkXJY/dxEkZ9iv0H9aqVrvVl01VdFT7pIU8pHI8kIT6IHkB/apknGIeurI3NDNpPrSrrFqK6QDutjlmlIdZbYypEqOUKSpCyR5K549BUT1nrWLpG+uagkqLkW1MuvqbBBK1IzhHtleBj1qunRXqgjQvU5u5y3lotT61NzQk5BSclKiPPacH9aHfUDqPddRPT4Lj5Vb35TsrYnIJ3uFeD6gcYFcOlZ7SfEOuoSuvjuJdY9QpXUOZcp17aRJus18PIkhRHgc/5Y8tuPp/LNQpxpSFqSoYKSRiuqGxk4cKQe+U5r2W0UqSQoq3DvjFbCgBcCZLMWOTHXS2m5V/lqbhSoyZTZ3CMpzD7iQMqLSOAtQHZOQo+Wam926iz1aeg22cwxHjRj40KQ6wlc9RBJwXM5ZbJwSE88DAPJI1jSVIDYbT4bqDuDqe4Pkfy70tkKF5ukh0NNxkrQ46EoJ25Cc7eeeT6+tdA5yZMkDE+lnw8HT+otEW++WyPIXcIyVQpkyf/AJ7rxwtxwk8HxMg7k90gemAXUN5SRjAT5/8Af3r51/Ct16t/TK5SWL8JLkF4NssONKKg24VnYFDBwhO5fIGcK8xxX0OtFzhXi3MzoElmZFdHD0dwLRkDJGR5jnI7jHNZFtexsx0OGEWABLeOc+opS1nYCSfTFaIIWPpOPuK6AYT+I59KGBKnmeqUSDtrR4LMR4FW0eGo59K7JwDg8H0rbw0uNvA4wUEY98VbE4DgiMpiF2Y0+kgISEtb3Fcqx7Ug1hqA6X04u6Bxh0QJLQkxSoAusq4wOcpUMgjjyp3eU854TcdCHCtAUQOMYB5J8jQBmdA9QXHqlImLurk6BMWXbg8jKGikk/uikjGRxjHlzSqjsRldpILwFdadW3XXWoHg6/MuGmYjqo/iRFYcdGSpS0pP04B4GeOOO9CrT9yg6K1JDuMCNJvBjyA6qFMjgMugeS0ryD6Yq3ly+F692aaV2VSpsJ1Sg54YKiQFZwoZGRn1p60V8OkFE8zr/F+ZCyC3F2+GrOefE5II8sUymxExgzjgMcg8yZ9FtW3DVOjI9+vFlY0rFeOyFCaeKmw0M4WEFI27vIegFEuEtNwIEZxLx27sJPlnvVTviW6suqLOl9Mboy4Kti5UVX0MjGC2geZHA3dh5U0fDb1bu+krj+w7ymRcIdxeCkS8qdfZcxgJA7qST5eXJpJFuRiQo2fzzLGtdvfMuQtW9W08EeVckHa4rkJPkBSdl2Q6FrdVu3E7QpOCBx/1rthPHHNNZzzAAYGIpbBIzShIz3rgzk+eR96UoGRxRVg2gy682aI/pJq7ympDjVpltyXREG5zYr92oge24E+wqr+uWm509UjTltirZKfDZUuMQCO+7BPKgfOryXaEqfa5kZCUl11laEhf4SopOMj0yBVObjrRjqHZ2tN3+I/pSW685BautocLbaJOeEqB4KecEd+aTvLq429RhDlMSud91RqC13Lc9cWnHyf3q2lhLeR5ADgVzja0zdbTLuU5E2M44VPMp7tDyUfU5pi1fop/R9+dtMt5E4sqK1KaBB7kYIPIORk0gtiG4soOPRBIQ2cKQ6TtUCfPBz2rS/h67EDEdxUW2LlYW9Q3kXNUVDS23EuLSEuBWMgkAA+1HaR0Ns69HPb3Hg8WQtuepX+QtIOCfLb3Bz3qqMGVbnLuoMOrt8dJ3NIkqK9vtn0rbXOvJ8ueW49xmO29GMNuvlQBwMjPGU/ccVnjSOg9Os4xDesOWeKZF4Xbn1pWhD4CjhWOF884p1tmom5rxPgKDigOD+IH7+dRqJra0Tm22blGJV2JzjkdiDS6Pc7PEkIQua0lCzlKl8ce5q/oKww64MsthXG08Q46GkruVrfWwwuXIZVsUSkKJSQCU5INKGtJ29+9fPXJli3B+QmQsPoJSjB7bE+R9POkmgYSrboOVLt8oSnJayW0Q1hwny7Z4HvXCZZPn0xGLldJgipSUuOq5Dbn+kjIJBzg45xg0mAQfa2BNg4ZdxGZGdWtw/8AE1zFuehrQVheUIUhLWe2wHsn27032y5WyD47eoI65EUsKU3Iad2BhQ7cdznyxXS56ZesEtbzcsyY5WU+Mp7f8w1gbQR5Ec/V+tIZMAOW9xMtXzbagUBKkgKSryIx3+/Y1pryMEzO5WMg6oWSDdYgt9leYbQ5++nyFlaiP4Tjv38jRLtXVq3vvouMd9EiQcpc8JeN6fNKh6f0oWqsjLOQPDRtO3Dic49hTbcoYitq2oQhaQeEJG38z3qW6au7AMX9R1yYQOoNz0/e9QmbGlyIfjNJU4yEdl85/tWUJX5c5Ckpdc8RSUgBW7uPKsq66faAMxY2MfE+u9ltt4Zihu63ZNxdHHjNRksE+/BPP6UqfszD60+KXlnkZ8VQ7/YinIBWOEjA/WvSgqIOMV015nC+TmNlusUG1qUqNGSlSzla1EqUr7qJzTogEIOEAny4r1KAD359q7pACRnjmjpV4lWfM4KKyR6D3716lJA5yc10U2Cccn05rMeR7/0omzBlN05Lwg8Dn7VwIUVY7fnSpSSOD5+RrjncORyfXyobjmWXqZgtjO0e5ArZSwE5PGB6VyUsfhPfyx51y3Eqxg8j8qFuGOJ3aDPJLuT9PP34rgkh9aEgZJ5JNblvfuO7PH6V6zhmO46R9X4Eig/ceeoTxiNN9WmSpxtK9iGxgflz/auoQlO3b54PtWgSFPYHbnz8q9gJKGG2yCFNgoO7ngcDn7YpbIZiTGelGIrG5IyE7j5Cud20rZ7u14dyt0WY54exxbzQWrBOSM05W9tLro/0tjKvv5CtnEKU6SMeeRgc02Ewu6LFzuxGyz6dt+nYxjWyC1BYPdDCAgH747/nS9KQjzOPavElbPCllRPGcedaL7/iP61zGJ0knuerIAwACO2BxiuaQlRGMZ9cV6ccHIz61otxKF9gTVSZAMzbwxk7vXvXqEJCiRkHvmuKHgor9z2z2rqHEtoUpZASnuScD3zUEnXE9kM+JtAUQR3zQw6ndYI+lWnLdalCTdB9Kl5ylj+xV7VEOrvX1cZxy0WBwHOUPTEKwfPhH+9As38OElQVvWd2Tzk1zG7kR6uoL7nne93SXeLo7IkurfecOVLcOST9/wDvFRLV8swbFMWkKSS2U4J754p9aeccK3FEFXkk+dQrqTMWzaEtrPC18nPpTFa8iEtb2mCQqDbSyCPxdx71MulvTm36ykT5lz3LbbSWmUDIwoj8fHfHkKhgcQw5v2eKkq3FCjii90hugumoIsKI0PEeBAbAxn/vBNW1djV1kj+sS0qLY+DALdLNLs12lW9/h2O4po57Ej0Pvx+tamMrwV+NwpOCAOMCrZ9UdDwOpuo7K7YbNBs05TbMKY6FnbIcB2+KoYwCAOe2fvVf+r2mk6Q6hXWysrU61bimMVra8NTn0hW4jyySfyxRKb0tAwecQVtDVkk9SBeEWnCD2I4NdG1FSNpBGQQK1cUkZCjuFatqAwDjvTYMXjvbrVLusKVEt8eU+60gyXhHbKwGkjKlqxwlIHmf6kVbX4TOr2nLbDOl1yLi3qcJb2PoiIQy+hO1vw/CC/3hAIVkALI3EHIOao2eZujXCOqS7ES6xlBQrahxaPqCHB5pPIHkFYNOGk7ZLu19tqbXNNvvSpCPk5a3vC8JzPCir+Hnz8smqsgtGJZH2HjmfXSHvLQDgQlwD6vDUSnPsTyR96VtjPcZqKdOrHrq26bYZ1k9aLvOQgKF0srivDfGP4m1JBCh6pylWCeO1Stho5+pRA9M1lsjIcMIwWDdTu03jzBrYpabbcU4pKAUnlRwPauiGgE5zmu6IyXgtC0pLZSQQRnyqwXPErnGCZHW7wIUWEl0IQ44ACduVd8HHt61GtSa7fsnUCzWd2EsWiYktC5urUGhIVw0g475OO5xz615qe7XGxiPJZjQJsT5daWkTHS0pUjccZUeAnHc8ng4FdNR6Wf1jpW4Wea5GDUuMdojFW1t04KVJUecBQBz54B4pMMSSMRsIAAfmQibqO/WyVJm6h1KvS8dLm+JDS8h9zj6tikjsPTPbPNTeH1OZ6laTlTtOuOyYS2FNtyENhC1vpThe3Plkjnt39KDV+6bwOu+lm73HceGpmgiHc2VLU20p9v6FkY/iwAfzxRmsej4WnNJQNOxUBq3xoyYwQ3lO9Pnz5EknP3qlavWCQ2QfE4wGRkSvsDpBdJ7yVXVtNqU47uWuX9S1ealBI5yPU8c0TbPF0n0enxFJjB56QhSnJ8xvxVhAA4QE9s+WPQ136w2K9NQ7aqAwRbFR1IC4oJWk4wpKj5DGPagFf39UyHVP/MSG48dIZDrn1BSQMbQCMYAzQ7LLGYp1iNL6dgy0thZuo+krylst3FUUrHHjpU2ng4J3KGM8j0p7mSY8e4xYe5YEpClsvHBQ4U43JBB7gEH3qptmvV4stpXEkQXEWxQAccEb908o8hW7tnHGRjjg0VOmmiJdwkwbskO/stoeJsaleGWnv8ASEEcAgjsaWTV2u/pBP5wT0onuDcQ3Nt7lAHJpSlO0/2rmlRB4HlXU8JHqK2gIgeZo4og8dxVTOtlp6eaS1Fc7dqQ3qyOXWSqdFeYjGRFkleCpSMZ2rSo4UDg+mRVs1AlOfOq9/GI7pqP0/YY1BbnZHzjyhCmsAbocxKctqJP8ChuSfzoVqhoWsyGWHpn02613aySJN7ej3mMkpfihsRXrkjGEuBXmoAAkpyfJQ86Zte/BtYbfCly4PUFpmQ0fri3dpIIHcJJQcj0BxQwdm3LTLVrctkhmQwttL0V4shfIzkKB7LT9QyO4Ip6Leo4lhF9vMFSrdPkbQ6MoWhRTlJHokjtml1tesDaf6zpRSfdBRO0XPsdvefmW4tsNODY8lzelxKiQCCMkYIPJAqMSoQcWVE8g52jnFHeKHI6HpjsSZMsBPg3F+Gra62g4+lWO+NwI8iTUHj2du7XBAjeLIYfWW23HEBJOCcFX5d/enqtQcfqSzUDA2wdCwJkKWVN4BOQSOD9qJPTXoO7qRgPT31QbepQUgKTuLgPH0JxRL0b05XYDElO2yM6+lzxG5DmVISn029seeeftRAiaqXZdRJXCRHfYTkuMuMpSg8d8pOMfbBoFusYjbX/AFjVWhx7njna9D27TWnUJkxUIQy0mIJERIQpxGcAqzzk5HOfOo1qxvTsqdJTbreiPbY6AhQkrU4lboxyTztxjkjjkV31fq9VyeVDgQzIdaUl155g4jNjlScgnJyrjHPakN6h/M2dSoUFEhl6MpLw7NoQT9SwMg5BVkY7Y7VnVg/6vMe58DqQiP8AsOFaHH9pnreIU0SchfPACvIDkY86bL5cLeqQ9FVGLdwSQpLIBCVpVylSVDg9+R5Un1rYGbLboCIhebkFQSADhJUAPq486j7FtTAlbXHXI7uP4crSM8kin0pGQ26JWkgzvPhNsoSszdyN53oXyUH24pL/AIdXMg/NJU2WUkpBBO5QHt59x+tLhJIilLyCSrlC8/Sv14HY+eRSaw6kZhXaRb5EnYxITmMp8YabdIwcq/hzjueKabdtyO4ucRK2xHKEhFw8FKRjY639QrKSaovUG0XdcZEc3BSEjxHgE4K/MDntWVUM8r+nPrItsFRBVnBzjNelGMnPcV6EI37sfV2rFpJHBwadxjmZs9Svbx3rdJwe24+9aNnB+/lXv54NEBxOGdQkDk4z6VqeFE4rnvVivckjzAq2+TE0cWVJIUMfauCgcAd8Djyrrkn8XNeZQo4JOaWb3cwo4nNBODxmtdmecV1AxnAz9uK93eGjOOfeqYzO5+InCC4tKAe54yOKT3JwJUUoA2ITge/rS9sllpTvZR4GfWmeSCc4USnGO/FDswqfvLpycxMyFIG1fKjzkUpipI3FXBKifUf+9cG8pUcZPnzW1pL0q7yWHG/DbSUPNuhQwpG3B4HooHvSijLAQ5xjmPkRpUaOFkH68qKU9/bmtFLVk5B59MVsp/xCpCUuAJON6wAFD2xWhWVkpI/McU+2PtiYznJnCSlRWkAkY8q5qVu428+3FdFoDfJx981uhpKxu5z6Cl8QsTAbON2PyrVSN4Kh3+1KDgc4UD61wlKZisLkPvJaaQMqU4dqR96rjEsozwJzluCLFdeVtSEJ3KK/pA/M1W/rN1flXphVrs8n5SAeH3idq3SD2yOyf60u6t9Y3Lw45arS8UW5Jw4+O75//wBfag7MknjCgrPdJqBfMfrq2jc3cZNrkslSmlFQ43AZpUuIEMqO07xznNd2XhlajwPJIHnXJ5SVL3KV9Pc80eFIESJcKQoOckefah31IfK5TLBzlCCVc+ZP/Sjt056cvdSbqpCHBGtrQzJmnlDQ9M9ir2qEfFl0rg9K9X26LbpkiZDkwkuhcjBUFZIPI7g8Efei195il2cbRK8yAA6Ac9qKPQe6LtnUGMYsN6fMcjPMtNRUla0rKPpO0eWRgn3oYSk73G0pBK1ZT27+lWI+Hu/aN6LmVddSSIr98eYK2vlgp12MMcsnA2oWo4zk1XWKLKWrIzmA0xKuGXjESaR1G7NbfhyVqjykrKHEODa425k7sg9iDxzQO6gXZF51jdJKITMAF4thiMpakJCcJ4KySc7c5J86kererE7U/UG46iejtwUzHAUtMNgBtI4Tux+JWO6j3JqPXhtMqe+4cOeIQvcnzJoWnoNLfjEPfcLB+0ij8ZJJUlP1eac/zFJQkK7HBp9lWt1n94gqUnvg03SGPEQXkD6x+JIHatETN7nNttxCM8HPGPWpPpC3Sb9emGY7zUYhQUp95exKMHv96ZbQ4244UOEZIwCacE29xDweZVsUk5Ck96hY4wJ0DzPpX0t6sK05p63wJtzjyUNoS2hangSsjvgedF+zX236oSqRbnEObeVoQc/mBXyIGsL7ATgTe3YlOTU06b/E/rjpZIkP26el5MkYXHko3oJ8j60BUduHORGnepuVGDPqulogcmuzHc7T5d6hvRi9XjVnTGxXm/MGPdJkcPOtEYIBOUkjyJHOKm7IHiJAHHtXVSKs2DjOZE3W0rQ02v6wHllALe7nuSMggcZpWoFSNy1FYHIIAAB9sYpBcZbsCR4bKlKCnyVNhJJxjun3/sDXZEguhIDZKSCcq4/L1zWV/qMdwSAZygtR7Sx8vDjNRmiSvDSQMqJ5P3PrWrn7xJKl8euK6uN/MNuIU0FIUNqkk8Eehoe9RrZqu/TGLRYnv2TbiwVOzUq2+23IGf0rowTLKOeZIbt1UtGiobiHFouUxSwyqGiUnKQUkgqRzjOP61GLN1e0neLW9F1HYozJjKK4kRpre0oEYOAeCR35qqd7trmhdXXBpMpM6M5gOTGG1n94D78kckE1G9SdQrhFfRCsrSpEsuBKnCkqbH/KkeZPtS9n8SLQtfI/PUZSvThC1h5lpusfxD6NjWGBAgLuEm6qdbxp6IgNtuJ3A5cIyE+W0gc+QoyaMly7vpyFLnWt2yS3UArgPLC1NegyPbHfmq3/AAy9DFy56Neaqium4OOFcaPJSANw7Obe+AOwPY81bBtI4CgCDTCIoOf9XnEUfyo68TdDe3tXVPvWqQCMg5rY57etMDiAmOA4/wBqr98YWmbxqPpVcTCYhO2+C2ma54ilCSl1CwElv+HbtUrIPPerCHCkkjyFRzW2mmdYaUullkJCm50ZyOdw7FSSAfyzXSccy6dz50aP60XDSGlGrLdPl3YbLyZEZl2Kl1Yzydqu4SFD8IPn7EVI7r8Zty1LYLZZFaJizrlGfCiVLU4y+hPIQWkAA475z5VDp/TmLp+8T7LPfEOZBkFMp59pchnwhwSCjsRwcEcgmmy0R53TG/2y7Mx463TvKGyFIXg5wUgjKSUkK+xqn8PTy4HJlzZYfb4EdHOtkOVIkuOSFRG5G3fBabLbaV4wfp9OKbrDqBVxluptslSIhfC1BHJBPfv5Y9K4yumcia7Duz0yIYssB0PqUSMg4cTtIycHBOPI0RtMdIIk9nxLM60ypaEl8JJ2kjOCOcjJGCD2xQCtFHOTz/SWVbHYGTzS9+X8uGXXEOI24LTvCCkp4I/82D/al8vTTN6ZQbXIDENSvEdiEAtKHZW4j8Jx5jvgHypjsllfRcGxuUEFGC87ghGMkDHmnv8Aap2mOp+PHZiEqGC2oNKGAnvwR5+ftz60lYNrZWb6e4YMR2a02+yNy4TcctTYyS6WP9ST22knJ7DGe2eKS/NHwpUSRIjvx5SD8s4pkqCD6FQHCvLPcHFPlptKrnFShEl94gEeHc1lZwDgoPY4PqK7fJbWpLC1sBUd5XhMgENuISOFbvIjkc/2pX1F34Pc7x9sDblnfmyA4+qQ3HVtBS8obE8Hk47qB/iFaXTTz7MDxJiS6hKiFPpKcuI/1/8At/ei3frQubp6RcMtRbewQkAgFxClfhIAGSg+oNRW6xI12sUlFnWErZbL627mBvI4C0oUOCkd8nHamxqBkKfMGyrtJgruUu3uQG48JSVgLSlTroCVg5VynHrx9qjU+PFLTq97aZAOMAk7vUk9hSS4QfGJfEX922rYdmcd+/pXVCWWnQptGGsDuSUqVWtUnpjvMxHbmN3+Hvmf3iVBIPkpRSf0xWV2eQ0l1QUFZzzyayjwftn1v3bua8zzjzrVKh7j29K9KxlQ7cUUsCInia7s8H6T61iVJGQSK0UUqAwNxA8608Ue9BLYM6BmKPLg5FYtZ255B8jXBC1FQOSMc4rN5JxwrPNX9QYxJibJKyCc58sE4rxPc5OMe9dNpKckc14VBCCTgJHOVHFUHHcsTPdhJyc4HJyKYNV6vtuloS5M+QlsYylr+JX2FQ7qR1ut2l2lxbftlzh9O8cpQf71VTqX1Bl3VqQ9JkOrlP8ADe5WR7/ahu247VjtWnON9nUuD096nxOpVplS4TXgtxpBjgFXJx5mn6QVNgjuPtVY/g0vnii/wQSptIbewVefYn+dWWfyoA+ZPYjFLWHnBnWVVYbRPWwN5UM8Ht3JFdn7MqTGUtmS7b3X0BCnmAEvJAP04OeOc+XnXsJlTpCTxk4PHYedL31gqA5AwBjHlVqx/qMCzc4E1CltNNoL63DgDe4QVKx5n3rXxFJUML9jkViwkkdlY5B74rfw0ZyFFQJ7HuP9qJzBzkorWkkqGP0rmhxedvirOe2CP9qTXi9QrLCckzXxFZbH1LeUAB7D1P2qvfUL4h5E9L0LT6TEjkFBlK/Gv7elDOfEYSsv+0K3UHq1a9DoWyqQi4XDb9EZA5B/5iD/ANarVrjqRqLXL2JVxUywlX0RmGwG0/ke/wBzURenvSXlOPuOKWrlSlck/ma9SOCR3xxzRFHkxxVVBxPC7NCtplJXg4ypkf70jfZU459b7qye+Fbce/FKnUq253pPkdh4FYygDdkEgD+KryxyY0GO2p07gsnGMqWTn+dTTp10zkdQL21DisBCE4LsgjCWk+ZPqfQV00T05mdRbsmJDQUIzl18j6W0+p96uLofREDQ1kZt9vbwAMuPH8bqvMk/2qu/PCwLlaxzO2mtBRtN6ebslseVFibSHCUhRdyMKJPBBPqO1U0+N+CIN20qwFvOJjR3YyVPqKlFCHTsKlHknaU96vi2lbbKlBKFZyDk84qm3x8WvxoOmZyUlQDshpSs8g4Scf1o+NhT5iCOWDAyqfUS92O8W7SH7Fi/KzIdpTFuICNpW+lxf1H1ykoOaikN/wChLZbIOck4znPrWeAVSiByoH8Jp/TACBkIIUBwKaUBRiByWOY1mGFnCkg58iO9LI0NKE7QAEmliIpWsAopX+zyBkDJqHnuWC4jW6zjgjPtTHcLcuOvxmhz5pPYipqza1uHJHl5itl2EKyOCT7dvaqwgWDFcNEhzLTgZc80LOOfvSppm5JGEK3pA7g5FS+5aJbcBLJ2LI5OO9R5/Ts2ASVMeIPMpweKhOeJQoR4nFEV8n/iHEIHfKlj+g5p20wGrZfosxqIm5yWVhxtEoqS0Fjsdo5IB55IpnDTqThEdY9fpx/SnrT0W4vT2Esq+UUVjC0AgjngkjmuHIEiAbhxPo38MMvXj1klzNV7yxLIW07JRsWrPkhvA2o9OB+dHVh8BSf51H9HsusaXs7cmSuY8iGylchwEKdUEDKjnnJ708Nu4eSOMZ8qVpZlAyYS5vUcnGJB9YSGLdI+bX/A4E53kbcnJUR54FKLZef2zFVIYUj5Y5CFJWlzd6KyOw9u/rSLXskRmVuL8Mjd9CFAK3HHOPfH9KR6V09D0zbG2LednhpwpkqIbClHcVEdsnPl9qyixNpj23NQMknjFScBWCPIK7V54gLn1Kwk88j+1cG29/ClZR58Zz9q9bhOHCGwlCQBjcc/p50UH4ggBAJ8Q+kEJvDNxhw1Kbfby8422VJ3A9zjtkYqP9AbVbEatUhFsRJvizuZluqBZisgZUQnGSo+WKtIqGgtLC0DChtWk9lj3phXYbXpRwXSJEh2xllJVJfZQUrKB/CAAQoHPPY8cGjbzsKnqWyD0JJY0JZSC5IdWo/Yf2pWtmQw2VMPbiB+F7kH29vvQ3unX+x2B+MmQiVMbdO04iLYWD/qG5ITg+XJNTzTOrbZquAzJg+I2Vp3Fl5P1J/McdqFW9bcA8wL1uo3EcRzhL+YitvJVuDgCxgYwCM8+9b53H2H5VqpxLagnAHsPKvCrA57GmQYCbp4aKhkn0FcXyCjCk8ccHsR6GvS4EgegpO84laSMZHpUJ4lhxzKkdZei886jvc2JdEtvNhuY2ZUpLKZTCgQWwTgeKhacDB+pJAoXr1DbeqseZA1M3dLRqmzIV+z5XheI9IO0AxnEYySMZSfLJFWX+Jewrulp05IU8hMZqf4DgfISjK0/RlWOMlO3nAG/JoNOWG3yrheYsx2Qqdl5Mi8LWkPW5rCcDwQdytixsK+cY4JFB3hexHQpYAiQq8FLmn0sxbVNSl2IthUAbwIjrak5WNw/CpJJIHII70j0NonWthjG92aHL/ZzhS094gIKik53gdyB64p4usCXFYYLd1amstqU6FSLjuLuOCUIA7nAPfzIrjqTUWprpGbbt15uLLDzeDEQ7+H1BPBPnmrKwf24GJZhzlTFtn1szNdchzHjEfWSkyQSAvB/AQeOfXyoiQC2mI20XW2GXRuICskAdlJNANEFUGC0iXLjMLaIcKFKKsJ55wOeOCR3og6M1LMeKY8pyChZR+Fk7xuAyCffywaBdTxkRqm3w0Xa+v0+3WpTdrU7HuBd2hwqVu5BypI5G3Hr61KtNasf0H0yiXy9tPXxSNkhbBWULcWFcAL5/XtkHNMl5nN3x+zXKAw25IQXGZaAOQvYfDKh2GCOw9anD2kosvp5Jsl6HhyigbQg7EIIAAKfQg4JHnn3rOL17ghHIhSxLmPN+6vdMupfT62TLvebVpe8vZaZYW6FPRV7j+7cbT3aPfPYdxTP/hz9kaYecjTG/nyCy65GcSvYkn6VtkfjQpJz6+VV+170Ecs6ly4LomQ1oLnj4SFIOc7XAPP3HcVGYeudV6a0m9pZl9sQV8sP/8Az4oJyQ0sfwk8kH8sU4+kF5Vqz1FFtNAKsO5yu6LjbripmO8f3SyhITwlxOTg48xSO53O7oDcZ9pnYvClKbaAyPI5rpbfmlyY7cp5TjbaSAUnJOec/kadp4hOlKEkuKCMFa8hSSO+PvWwPgxALnkxh3qAAMxI44GD2rKcEQNoIQpSU57J7VlXyJNs+razgZ8vL1rxC95BJzkYrRzK08dx3z514klKAcAYGSKWLcwGMT1ZwsjP2zWnPB7+1a/iGTwCfKuqG0qBHn5k+VVBLTk1UvfgZPf9K6NIPJzn3rFgA89hzxQ+6g9XGNI74sZouzAnP1J+lI/ua7kJ90IiNadqdyZXzUUDTsVcic8lpAGQndyr7CgJ1F60zLslyJb1mPEORlJwpQ9z/ah5qLXNy1M+69LdUSVEbc8Cow7JUtZSnG49yaEzs/HiadVCV98meS5qpbyluuFR7knnP3oVaqvAm3NRQP3beUI4/nU41VdFW22OqSMrWNmfShFJdPjKOAUj8XuaaoTHMFqW8Q+/CHeRB6jfK5B+bjuI29ue4/vV1HBl0BIIH3r53dAr8bH1LssjHPzKEds8K4x/Ovooy0XSCnAUTjHlSl498EeVBjvbmihhbqh3G1PuPOtXV43bhkeZpm1lq6JoiJHXKaccQXA1hs9yRkq/IVDOo/U02qCWrUgPqcQkuLVlJSlacjGfPH6Va21alx5EDXS1h3eDCRElRJzAcYdQ81kp3IORkeX3qDdQusNn0O0toLRLuODtjtqGE8fxH09qCF86wXazaXEC2HwG3nFB15Qw6OOAMHA48xQdmyXpjqnXHVLU59RUs5OTUrY2rujApVDknMmmuOol01zPU9NeWMH6I4+ltv04qGuKdQsBWAD5ZyTXBh9TcMIUoqcB7571thT+dxyO3NGAxDlsjE2dfUrISTnOcEcfrSlposoA3Zz6ikTCEcEFRJ4z6UvaTtICj9qhnFnMoWrdsCTtP+oDIqVdPNCzNcXdESK2Q3nLjigdqB6muOhtESNc35qCwEpQpWVOEgYA7nFXH0VoW3aMs7cOE2EgD63T+JxXqapnJ2juVssFYz5nTQ+jLdoqzJgQWUpzguOkfU4rHJNSVKQSQABmvDtRhJBAPbzrYAlYAx+dNogBGZkuxY5m8v8AdxtnYq7mqo/HI3v0FaVZH0TyBjnu2Qef0q1E5ZO1OT9Kc8e9VU+OWQR0+tCdx3LmOK7ejdcubNqiFpHBzKHMocefUWkqUpOSSnuKmNsQ5MituPYQ4n6SSOTUVtrCvGBOAScFQ8qnrbgWhKQ2PTI4zimjKoDObMZG3g710oaiFPJQfvjNdI7fhk5wfTHlTjHBWSlXn2oRbiMBYkZikqHcJ9AacI8BAz9Oc5PJqYdP+ll019cTGtaWMp5ddeXtS2PXHc/lUy1j8P8AfNFQFz/mIs+GnG9xlRQofkr+1ANg6MMBiCBcIH6Up7ds0mcs6VA5AKu1SQxVA8gE+lbxrS7KdS0hIK1rCRkjuam6X2yKs6fbcIykEdu1GLoP0Pd1bqCNcJMbwrLFcC3HlJwHSOQhOe/ufKiB09+GeQH2pmqFIYipUNsFhYWpZ8tyhwAfbP5VYmCwxboTcaMyiPGZSEobbGEpHoBQTZAswX7YrDiUICcAeQAHArGnAFpOMEGuHzPiLxk/nXqVHent3qq/iLEfMg/U9La2IYW2h1Ie5Ck5UPIEfypbAZbMWMzD/wAlIyMdk8cj/vzpP1HiIfTAkKQVNx5KtxSraQCMEfY48q56UkFaphS0plJdDYQ44VhWBlJAzgZz7e4rMY/qnM0xzSIrf1dZdN35iBelttJksrU2p0FKFqBA2hX+rBJx7U4R02u+pTcbNLlMx15CFoc+hYBx+E5BrWRbm7iVCUEuMgYQhaASn1596UQmURI7cVlpDDDaQhDbY2hIHlgcU4rHaARFioPRihkuJC23VIeWkcqB/qPI0jvsWTN0/PZgrU1NcjrQyts4Ule07cHyOcUsbyCduEnGeea7pOwZIGPPFQ88GD6OYF+l2s+qtytLun5em4E1mMpTTd+vbysJOeykJGXSPLBHfvRWsWlo1jnSriXFvXOchAlPFW1CikcBLY+lAHoP1p1C0hPPb7VipAUOATiiccZHUjsWJJ8zdxweua08UK4PFJHHc9ic57GuYWtRTtGcnnBxiqluZULFXjZ8gfStCtSlEZ5/pXBtZyfLHHHnXVtW9WOxqmTO48SFdV9Hu620Rc4TCUKcLJWGnBw4U/UB388f+3egT0y09pvqREm2Qoea1pZmw+5IkuYNxbIKfCdB+pJTwg5OcjkmrXtpT4gDn4exHfg9x+ma+cWotV6s6P8AXrUSYExMdLUx6NLdXh1b8ULyQrOcnaU488p7101l1JEOj4GI+9WtPnROoeYjcyEhxC3Le80UIeUlOdxWk7kEjKSM43INLLLc4+sNPS0t2hEOS02pTEmI5sBA5TnPJIzgnHNEm9am0d1a0rGlRpD91cyuE8p5lUdZeQ2Frz3GS2gqSeRlOD+I5FCZqtGOv6Xnw3fGQ6X2Luh1KVpQcYQptORkK4yD2VjsKoh9VBgciFBKsD4MhE6x3CUiRLwVMkBvxmljAJHZRPOCB9waUwIA3x31uOLeCCVKVzyBxhWcny5NSyK8blcH47URgOPBaVMSSSlQKc4G3gKHBCuMVo5p79jvMlSA20hve4UHKynzPpmmTZkbTLekucyOXbqBJQ/bUxY0eNJbIQ4+0VBS09j4g7Egc5wDVnBeTebJbvBXHkPhtsFEjCsgDkhXn/Wq2aZ0mjWutXnyVvR2zvy4QFkY+kn1PbNFi4WsWWyoU+tXhFSQVpWSBgcDHfiktStZYAdxvTFyCW6nDXrkOK05NQEpkJV+BteFgjjaUnzx/I0JrjBauctDrLexpzKyDjAP+gVINVXbwJioaVmQokEl5OQD3wD3ximJuQ0/4rQSGcncOM7abpXYoMXufe2DEPy7kN3c2clJyEBPOO5rd5yNLcDjra0uKGMpOCOOfv8AaukqcIzzaRtLigchSc8+ua0+TS/BU46B4TagkkevfIFHLcjMVPxOSm242GzGceCRw40vhQ9fvWVq248ncG1nZuOOayr5kwJ//9k=;shadow=0;" vertex="1" parent="WIyWlLk6GJQsqaUBKTNV-1">
            <mxGeometry x="490" y="394" width="90" height="120" as="geometry" />
          </mxCell>
        </UserObject>
        <mxCell id="e0OOAfn7zYN69eVYryci-11" value="Icon" style="icon;html=1;image=img/clipart/Gear_128x128.png;shadow=0;" vertex="1" parent="WIyWlLk6GJQsqaUBKTNV-1">
          <mxGeometry x="90" y="420" width="60" height="60" as="geometry" />
        </mxCell>
        <mxCell id="e0OOAfn7zYN69eVYryci-12" value="这是" style="text;html=1;align=center;verticalAlign=middle;resizable=0;points=[];autosize=1;strokeColor=none;" vertex="1" parent="WIyWlLk6GJQsqaUBKTNV-1">
          <mxGeometry x="200" y="560" width="40" height="20" as="geometry" />
        </mxCell>
        <mxCell id="e0OOAfn7zYN69eVYryci-13" value="房贷首付" style="shape=umlActor;verticalLabelPosition=bottom;verticalAlign=top;html=1;outlineConnect=0;shadow=0;gradientColor=#7ea6e0;fillColor=#dae8fc;strokeColor=#6c8ebf;" vertex="1" parent="WIyWlLk6GJQsqaUBKTNV-1">
          <mxGeometry x="70" y="560" width="30" height="60" as="geometry" />
        </mxCell>
        <mxCell id="e0OOAfn7zYN69eVYryci-34" value="" style="endArrow=classic;html=1;shadow=0;exitX=1;exitY=0.5;exitDx=0;exitDy=0;exitPerimeter=0;" edge="1" parent="WIyWlLk6GJQsqaUBKTNV-1" source="e0OOAfn7zYN69eVYryci-0" target="e0OOAfn7zYN69eVYryci-9">
          <mxGeometry relative="1" as="geometry">
            <mxPoint x="320" y="410" as="sourcePoint" />
            <mxPoint x="420" y="410" as="targetPoint" />
          </mxGeometry>
        </mxCell>
        <mxCell id="e0OOAfn7zYN69eVYryci-35" value="t234234" style="edgeLabel;resizable=0;html=1;align=center;verticalAlign=middle;" connectable="0" vertex="1" parent="e0OOAfn7zYN69eVYryci-34">
          <mxGeometry relative="1" as="geometry" />
        </mxCell>
      </root>
    </mxGraphModel>
  </diagram>
</mxfile>
